<?xml version="1.0" encoding="utf-8"?>
<!-- Generator: Adobe Illustrator 22.1.0, SVG Export Plug-In . SVG Version: 6.00 Build 0)  -->
<svg version="1.1" id="Layer_1" xmlns="http://www.w3.org/2000/svg" xmlns:xlink="http://www.w3.org/1999/xlink" x="0px" y="0px"
	 width="612px" height="792px" viewBox="0 0 612 792" style="enable-background:new 0 0 612 792;" xml:space="preserve">
<style type="text/css">
	.st0{fill:none;stroke:#000000;stroke-width:1.1339;stroke-linecap:round;stroke-linejoin:round;stroke-miterlimit:10;}
</style>
<g>
	<g id="LINE">
		<line class="st0" x1="868" y1="364.5" x2="868" y2="328.5"/>
	</g>
	<g id="LINE_1_">
		<line class="st0" x1="877" y1="328.5" x2="868" y2="328.5"/>
	</g>
	<g id="LINE_2_">
		<line class="st0" x1="877" y1="364.5" x2="877" y2="328.5"/>
	</g>
	<g id="LINE_3_">
		<line class="st0" x1="877" y1="364.5" x2="868" y2="364.5"/>
	</g>
	<g id="LINE_4_">
		<line class="st0" x1="868" y1="454.5" x2="868" y2="418.5"/>
	</g>
	<g id="LINE_5_">
		<line class="st0" x1="877" y1="418.5" x2="868" y2="418.5"/>
	</g>
	<g id="LINE_6_">
		<line class="st0" x1="877" y1="454.5" x2="877" y2="418.5"/>
	</g>
	<g id="LINE_7_">
		<line class="st0" x1="877" y1="454.5" x2="868" y2="454.5"/>
	</g>
	<g id="LINE_8_">
		<line class="st0" x1="-265" y1="364.5" x2="-265" y2="328.5"/>
	</g>
	<g id="LINE_9_">
		<line class="st0" x1="-256" y1="328.5" x2="-265" y2="328.5"/>
	</g>
	<g id="LINE_10_">
		<line class="st0" x1="-256" y1="364.5" x2="-256" y2="328.5"/>
	</g>
	<g id="LINE_11_">
		<line class="st0" x1="-256" y1="364.5" x2="-265" y2="364.5"/>
	</g>
	<g id="LINE_12_">
		<line class="st0" x1="-265" y1="454.5" x2="-265" y2="418.5"/>
	</g>
	<g id="LINE_13_">
		<line class="st0" x1="-256" y1="418.5" x2="-265" y2="418.5"/>
	</g>
	<g id="LINE_14_">
		<line class="st0" x1="-256" y1="454.5" x2="-256" y2="418.5"/>
	</g>
	<g id="LINE_15_">
		<line class="st0" x1="-256" y1="454.5" x2="-265" y2="454.5"/>
	</g>
	<g id="LINE_16_">
		<line class="st0" x1="-6.5" y1="571.5" x2="-6.5" y2="427.5"/>
	</g>
	<g id="LINE_17_">
		<line class="st0" x1="-6.5" y1="571.5" x2="11.3" y2="571.5"/>
	</g>
	<g id="LINE_18_">
		<line class="st0" x1="11.3" y1="580.5" x2="11.3" y2="571.5"/>
	</g>
	<g id="LINE_19_">
		<line class="st0" x1="11.3" y1="580.5" x2="47.3" y2="580.5"/>
	</g>
	<g id="LINE_20_">
		<line class="st0" x1="47.3" y1="580.5" x2="47.3" y2="571.5"/>
	</g>
	<g id="LINE_21_">
		<line class="st0" x1="47.3" y1="571.5" x2="65" y2="571.5"/>
	</g>
	<g id="LINE_22_">
		<line class="st0" x1="65" y1="580.5" x2="65" y2="571.5"/>
	</g>
	<g id="LINE_23_">
		<line class="st0" x1="65" y1="580.5" x2="101" y2="580.5"/>
	</g>
	<g id="LINE_24_">
		<line class="st0" x1="101" y1="580.5" x2="101" y2="571.5"/>
	</g>
	<g id="LINE_25_">
		<line class="st0" x1="101" y1="571.5" x2="118.8" y2="571.5"/>
	</g>
	<g id="LINE_26_">
		<line class="st0" x1="118.8" y1="571.5" x2="118.8" y2="427.5"/>
	</g>
	<g id="ARC">
		<path class="st0" d="M243.4,427.5c0-34.4-27.9-62.3-62.3-62.3s-62.3,27.9-62.3,62.3"/>
	</g>
	<g id="LINE_27_">
		<line class="st0" x1="243.4" y1="571.5" x2="243.4" y2="427.5"/>
	</g>
	<g id="LINE_28_">
		<line class="st0" x1="243.4" y1="571.5" x2="261.1" y2="571.5"/>
	</g>
	<g id="LINE_29_">
		<line class="st0" x1="261.1" y1="580.5" x2="261.1" y2="571.5"/>
	</g>
	<g id="LINE_30_">
		<line class="st0" x1="261.1" y1="580.5" x2="297.1" y2="580.5"/>
	</g>
	<g id="LINE_31_">
		<line class="st0" x1="297.1" y1="580.5" x2="297.1" y2="571.5"/>
	</g>
	<g id="LINE_32_">
		<line class="st0" x1="297.1" y1="571.5" x2="314.9" y2="571.5"/>
	</g>
	<g id="LINE_33_">
		<line class="st0" x1="314.9" y1="580.5" x2="314.9" y2="571.5"/>
	</g>
	<g id="LINE_34_">
		<line class="st0" x1="314.9" y1="580.5" x2="350.9" y2="580.5"/>
	</g>
	<g id="LINE_35_">
		<line class="st0" x1="350.9" y1="580.5" x2="350.9" y2="571.5"/>
	</g>
	<g id="LINE_36_">
		<line class="st0" x1="350.9" y1="571.5" x2="368.6" y2="571.5"/>
	</g>
	<g id="LINE_37_">
		<line class="st0" x1="368.6" y1="571.5" x2="368.6" y2="427.5"/>
	</g>
	<g id="ARC_1_">
		<path class="st0" d="M493.2,427.5c0-34.4-27.9-62.3-62.3-62.3s-62.3,27.9-62.3,62.3"/>
	</g>
	<g id="LINE_38_">
		<line class="st0" x1="493.2" y1="571.5" x2="493.2" y2="427.5"/>
	</g>
	<g id="LINE_39_">
		<line class="st0" x1="493.2" y1="571.5" x2="511" y2="571.5"/>
	</g>
	<g id="LINE_40_">
		<line class="st0" x1="511" y1="580.5" x2="511" y2="571.5"/>
	</g>
	<g id="LINE_41_">
		<line class="st0" x1="511" y1="580.5" x2="547" y2="580.5"/>
	</g>
	<g id="LINE_42_">
		<line class="st0" x1="547" y1="580.5" x2="547" y2="571.5"/>
	</g>
	<g id="LINE_43_">
		<line class="st0" x1="547" y1="571.5" x2="564.7" y2="571.5"/>
	</g>
	<g id="LINE_44_">
		<line class="st0" x1="564.7" y1="580.5" x2="564.7" y2="571.5"/>
	</g>
	<g id="LINE_45_">
		<line class="st0" x1="564.7" y1="580.5" x2="600.7" y2="580.5"/>
	</g>
	<g id="LINE_46_">
		<line class="st0" x1="600.7" y1="580.5" x2="600.7" y2="571.5"/>
	</g>
	<g id="LINE_47_">
		<line class="st0" x1="600.7" y1="571.5" x2="618.5" y2="571.5"/>
	</g>
	<g id="LINE_48_">
		<line class="st0" x1="618.5" y1="571.5" x2="618.5" y2="427.5"/>
	</g>
	<g id="ARC_2_">
		<path class="st0" d="M743,427.5c0-34.4-27.9-62.3-62.3-62.3s-62.3,27.9-62.3,62.3"/>
	</g>
	<g id="LINE_49_">
		<line class="st0" x1="743" y1="571.5" x2="743" y2="427.5"/>
	</g>
	<g id="LINE_50_">
		<line class="st0" x1="743" y1="571.5" x2="769.7" y2="571.5"/>
	</g>
	<g id="LINE_51_">
		<line class="st0" x1="769.7" y1="580.5" x2="769.7" y2="571.5"/>
	</g>
	<g id="LINE_52_">
		<line class="st0" x1="769.7" y1="580.5" x2="805.7" y2="580.5"/>
	</g>
	<g id="LINE_53_">
		<line class="st0" x1="805.7" y1="580.5" x2="805.7" y2="571.5"/>
	</g>
	<g id="LINE_54_">
		<line class="st0" x1="805.7" y1="571.5" x2="832.3" y2="571.5"/>
	</g>
	<g id="LINE_55_">
		<line class="st0" x1="832.3" y1="580.5" x2="832.3" y2="571.5"/>
	</g>
	<g id="LINE_56_">
		<line class="st0" x1="832.3" y1="580.5" x2="868.3" y2="580.5"/>
	</g>
	<g id="LINE_57_">
		<line class="st0" x1="868.3" y1="580.5" x2="868.3" y2="571.5"/>
	</g>
	<g id="LINE_58_">
		<line class="st0" x1="868.3" y1="571.5" x2="895" y2="571.5"/>
	</g>
	<g id="LINE_59_">
		<line class="st0" x1="895" y1="211.5" x2="895" y2="571.5"/>
	</g>
	<g id="LINE_60_">
		<line class="st0" x1="-283" y1="211.5" x2="895" y2="211.5"/>
	</g>
	<g id="LINE_61_">
		<line class="st0" x1="-283" y1="211.5" x2="-283" y2="571.5"/>
	</g>
	<g id="LINE_62_">
		<line class="st0" x1="-283" y1="571.5" x2="-256.3" y2="571.5"/>
	</g>
	<g id="LINE_63_">
		<line class="st0" x1="-256.3" y1="580.5" x2="-256.3" y2="571.5"/>
	</g>
	<g id="LINE_64_">
		<line class="st0" x1="-256.3" y1="580.5" x2="-220.3" y2="580.5"/>
	</g>
	<g id="LINE_65_">
		<line class="st0" x1="-220.3" y1="580.5" x2="-220.3" y2="571.5"/>
	</g>
	<g id="LINE_66_">
		<line class="st0" x1="-220.3" y1="571.5" x2="-193.7" y2="571.5"/>
	</g>
	<g id="LINE_67_">
		<line class="st0" x1="-193.7" y1="580.5" x2="-193.7" y2="571.5"/>
	</g>
	<g id="LINE_68_">
		<line class="st0" x1="-193.7" y1="580.5" x2="-157.7" y2="580.5"/>
	</g>
	<g id="LINE_69_">
		<line class="st0" x1="-157.7" y1="580.5" x2="-157.7" y2="571.5"/>
	</g>
	<g id="LINE_70_">
		<line class="st0" x1="-157.7" y1="571.5" x2="-131" y2="571.5"/>
	</g>
	<g id="LINE_71_">
		<line class="st0" x1="-131" y1="571.5" x2="-131" y2="427.5"/>
	</g>
	<g id="ARC_3_">
		<path class="st0" d="M-6.5,427.5c0-34.4-27.9-62.3-62.3-62.3s-62.3,27.9-62.3,62.3"/>
	</g>
	<g id="LINE_72_">
		<line class="st0" x1="-265" y1="274.5" x2="-265" y2="238.5"/>
	</g>
	<g id="LINE_73_">
		<line class="st0" x1="-256" y1="238.5" x2="-265" y2="238.5"/>
	</g>
	<g id="LINE_74_">
		<line class="st0" x1="-256" y1="274.5" x2="-256" y2="238.5"/>
	</g>
	<g id="LINE_75_">
		<line class="st0" x1="-256" y1="274.5" x2="-265" y2="274.5"/>
	</g>
	<g id="LINE_76_">
		<line class="st0" x1="-265" y1="544.5" x2="-265" y2="508.5"/>
	</g>
	<g id="LINE_77_">
		<line class="st0" x1="-256" y1="508.5" x2="-265" y2="508.5"/>
	</g>
	<g id="LINE_78_">
		<line class="st0" x1="-256" y1="544.5" x2="-256" y2="508.5"/>
	</g>
	<g id="LINE_79_">
		<line class="st0" x1="-256" y1="544.5" x2="-265" y2="544.5"/>
	</g>
	<g id="LINE_80_">
		<line class="st0" x1="868" y1="544.5" x2="868" y2="508.5"/>
	</g>
	<g id="LINE_81_">
		<line class="st0" x1="877" y1="508.5" x2="868" y2="508.5"/>
	</g>
	<g id="LINE_82_">
		<line class="st0" x1="877" y1="544.5" x2="877" y2="508.5"/>
	</g>
	<g id="LINE_83_">
		<line class="st0" x1="877" y1="544.5" x2="868" y2="544.5"/>
	</g>
	<g id="LINE_84_">
		<line class="st0" x1="868" y1="274.5" x2="868" y2="238.5"/>
	</g>
	<g id="LINE_85_">
		<line class="st0" x1="877" y1="238.5" x2="868" y2="238.5"/>
	</g>
	<g id="LINE_86_">
		<line class="st0" x1="877" y1="274.5" x2="877" y2="238.5"/>
	</g>
	<g id="LINE_87_">
		<line class="st0" x1="877" y1="274.5" x2="868" y2="274.5"/>
	</g>
</g>
</svg>
