<?xml version="1.0" encoding="utf-8"?>
<!-- Generator: Adobe Illustrator 22.1.0, SVG Export Plug-In . SVG Version: 6.00 Build 0)  -->
<svg version="1.1" id="Layer_1" xmlns="http://www.w3.org/2000/svg" xmlns:xlink="http://www.w3.org/1999/xlink" x="0px" y="0px"
	 width="612px" height="792px" viewBox="0 0 612 792" style="enable-background:new 0 0 612 792;" xml:space="preserve">
<style type="text/css">
	.st0{fill:none;stroke:#000000;stroke-width:1.1339;stroke-linecap:round;stroke-linejoin:round;stroke-miterlimit:10;}
</style>
<g>
	<g id="CIRCLE">
		<path class="st0" d="M5.7,586.8c0-3,2.4-5.4,5.4-5.4s5.4,2.4,5.4,5.4c0,3-2.4,5.4-5.4,5.4S5.7,589.8,5.7,586.8L5.7,586.8z"/>
	</g>
	<g id="CIRCLE_1_">
		<path class="st0" d="M513.3,586.8c0-3,2.4-5.4,5.4-5.4c3,0,5.4,2.4,5.4,5.4c0,3-2.4,5.4-5.4,5.4
			C515.7,592.2,513.3,589.8,513.3,586.8L513.3,586.8z"/>
	</g>
	<g id="CIRCLE_2_">
		<path class="st0" d="M43.5,586.8c0-3,2.4-5.4,5.4-5.4c3,0,5.4,2.4,5.4,5.4c0,3-2.4,5.4-5.4,5.4C46,592.2,43.5,589.8,43.5,586.8
			L43.5,586.8z"/>
	</g>
	<g id="CIRCLE_3_">
		<path class="st0" d="M551.1,586.8c0-3,2.4-5.4,5.4-5.4c3,0,5.4,2.4,5.4,5.4c0,3-2.4,5.4-5.4,5.4
			C553.5,592.2,551.1,589.8,551.1,586.8L551.1,586.8z"/>
	</g>
	<g id="LINE">
		<line class="st0" x1="542.1" y1="676.8" x2="533.1" y2="676.8"/>
	</g>
	<g id="LINE_1_">
		<line class="st0" x1="533.1" y1="676.8" x2="533.1" y2="640.8"/>
	</g>
	<g id="LINE_2_">
		<line class="st0" x1="533.1" y1="640.8" x2="542.1" y2="640.8"/>
	</g>
	<g id="LINE_3_">
		<line class="st0" x1="542.1" y1="676.8" x2="542.1" y2="640.8"/>
	</g>
	<g id="LINE_4_">
		<line class="st0" x1="542.1" y1="604.8" x2="533.1" y2="604.8"/>
	</g>
	<g id="LINE_5_">
		<line class="st0" x1="533.1" y1="604.8" x2="533.1" y2="568.8"/>
	</g>
	<g id="LINE_6_">
		<line class="st0" x1="533.1" y1="568.8" x2="542.1" y2="568.8"/>
	</g>
	<g id="LINE_7_">
		<line class="st0" x1="542.1" y1="604.8" x2="542.1" y2="568.8"/>
	</g>
	<g id="LINE_8_">
		<line class="st0" x1="542.1" y1="532.8" x2="533.1" y2="532.8"/>
	</g>
	<g id="LINE_9_">
		<line class="st0" x1="533.1" y1="532.8" x2="533.1" y2="496.8"/>
	</g>
	<g id="LINE_10_">
		<line class="st0" x1="533.1" y1="496.8" x2="542.1" y2="496.8"/>
	</g>
	<g id="LINE_11_">
		<line class="st0" x1="542.1" y1="532.8" x2="542.1" y2="496.8"/>
	</g>
	<g id="LINE_12_">
		<line class="st0" x1="34.5" y1="676.8" x2="25.5" y2="676.8"/>
	</g>
	<g id="LINE_13_">
		<line class="st0" x1="25.5" y1="676.8" x2="25.5" y2="640.8"/>
	</g>
	<g id="LINE_14_">
		<line class="st0" x1="25.5" y1="640.8" x2="34.5" y2="640.8"/>
	</g>
	<g id="LINE_15_">
		<line class="st0" x1="34.5" y1="676.8" x2="34.5" y2="640.8"/>
	</g>
	<g id="LINE_16_">
		<line class="st0" x1="868" y1="139.5" x2="868" y2="179.1"/>
	</g>
	<g id="LINE_17_">
		<line class="st0" x1="868" y1="139.5" x2="877" y2="139.5"/>
	</g>
	<g id="LINE_18_">
		<line class="st0" x1="877" y1="139.5" x2="877" y2="179.1"/>
	</g>
	<g id="LINE_19_">
		<line class="st0" x1="868" y1="179.1" x2="877" y2="179.1"/>
	</g>
	<g id="LINE_20_">
		<line class="st0" x1="-256" y1="139.5" x2="-256" y2="179.1"/>
	</g>
	<g id="LINE_21_">
		<line class="st0" x1="-256" y1="179.1" x2="-265" y2="179.1"/>
	</g>
	<g id="LINE_22_">
		<line class="st0" x1="-265" y1="139.5" x2="-265" y2="179.1"/>
	</g>
	<g id="LINE_23_">
		<line class="st0" x1="-256" y1="139.5" x2="-265" y2="139.5"/>
	</g>
	<g id="LINE_24_">
		<line class="st0" x1="862.5" y1="88.2" x2="895" y2="88.2"/>
	</g>
	<g id="ARC">
		<path class="st0" d="M862.5,88.2c-2,0-3.6,1.6-3.6,3.6c0,0.6,0.2,1.3,0.5,1.8"/>
	</g>
	<g id="LINE_25_">
		<line class="st0" x1="868.8" y1="109.8" x2="859.4" y2="93.6"/>
	</g>
	<g id="ARC_1_">
		<path class="st0" d="M865.6,115.2c2,0,3.6-1.6,3.6-3.6c0-0.6-0.2-1.3-0.5-1.8"/>
	</g>
	<g id="LINE_26_">
		<line class="st0" x1="817.9" y1="115.2" x2="865.6" y2="115.2"/>
	</g>
	<g id="ARC_2_">
		<path class="st0" d="M814.8,109.8c-1,1.7-0.4,3.9,1.3,4.9c0.5,0.3,1.2,0.5,1.8,0.5"/>
	</g>
	<g id="LINE_27_">
		<line class="st0" x1="824.1" y1="93.6" x2="814.8" y2="109.8"/>
	</g>
	<g id="ARC_3_">
		<path class="st0" d="M824.1,93.6c1-1.7,0.4-3.9-1.3-4.9c-0.5-0.3-1.2-0.5-1.8-0.5"/>
	</g>
	<g id="LINE_28_">
		<line class="st0" x1="773.2" y1="88.2" x2="821" y2="88.2"/>
	</g>
	<g id="ARC_4_">
		<path class="st0" d="M773.2,88.2c-2,0-3.6,1.6-3.6,3.6c0,0.6,0.2,1.3,0.5,1.8"/>
	</g>
	<g id="LINE_29_">
		<line class="st0" x1="779.5" y1="109.8" x2="770.1" y2="93.6"/>
	</g>
	<g id="ARC_5_">
		<path class="st0" d="M776.4,115.2c2,0,3.6-1.6,3.6-3.6c0-0.6-0.2-1.3-0.5-1.8"/>
	</g>
	<g id="LINE_30_">
		<line class="st0" x1="728.6" y1="115.2" x2="776.4" y2="115.2"/>
	</g>
	<g id="ARC_6_">
		<path class="st0" d="M725.5,109.8c-1,1.7-0.4,3.9,1.3,4.9c0.5,0.3,1.2,0.5,1.8,0.5"/>
	</g>
	<g id="LINE_31_">
		<line class="st0" x1="734.8" y1="93.6" x2="725.5" y2="109.8"/>
	</g>
	<g id="ARC_7_">
		<path class="st0" d="M734.8,93.6c1-1.7,0.4-3.9-1.3-4.9c-0.5-0.3-1.2-0.5-1.8-0.5"/>
	</g>
	<g id="LINE_32_">
		<line class="st0" x1="683.9" y1="88.2" x2="731.7" y2="88.2"/>
	</g>
	<g id="ARC_8_">
		<path class="st0" d="M683.9,88.2c-2,0-3.6,1.6-3.6,3.6c0,0.6,0.2,1.3,0.5,1.8"/>
	</g>
	<g id="LINE_33_">
		<line class="st0" x1="690.2" y1="109.8" x2="680.8" y2="93.6"/>
	</g>
	<g id="ARC_9_">
		<path class="st0" d="M687.1,115.2c2,0,3.6-1.6,3.6-3.6c0-0.6-0.2-1.3-0.5-1.8"/>
	</g>
	<g id="LINE_34_">
		<line class="st0" x1="639.3" y1="115.2" x2="687.1" y2="115.2"/>
	</g>
	<g id="ARC_10_">
		<path class="st0" d="M636.2,109.8c-1,1.7-0.4,3.9,1.3,4.9c0.5,0.3,1.2,0.5,1.8,0.5"/>
	</g>
	<g id="LINE_35_">
		<line class="st0" x1="645.5" y1="93.6" x2="636.2" y2="109.8"/>
	</g>
	<g id="ARC_11_">
		<path class="st0" d="M645.5,93.6c1-1.7,0.4-3.9-1.3-4.9c-0.5-0.3-1.2-0.5-1.8-0.5"/>
	</g>
	<g id="LINE_36_">
		<line class="st0" x1="594.6" y1="88.2" x2="642.4" y2="88.2"/>
	</g>
	<g id="ARC_12_">
		<path class="st0" d="M594.6,88.2c-2,0-3.6,1.6-3.6,3.6c0,0.6,0.2,1.3,0.5,1.8"/>
	</g>
	<g id="LINE_37_">
		<line class="st0" x1="600.9" y1="109.8" x2="591.5" y2="93.6"/>
	</g>
	<g id="ARC_13_">
		<path class="st0" d="M597.8,115.2c2,0,3.6-1.6,3.6-3.6c0-0.6-0.2-1.3-0.5-1.8"/>
	</g>
	<g id="LINE_38_">
		<line class="st0" x1="550" y1="115.2" x2="597.8" y2="115.2"/>
	</g>
	<g id="ARC_14_">
		<path class="st0" d="M546.9,109.8c-1,1.7-0.4,3.9,1.3,4.9c0.5,0.3,1.2,0.5,1.8,0.5"/>
	</g>
	<g id="LINE_39_">
		<line class="st0" x1="556.2" y1="93.6" x2="546.9" y2="109.8"/>
	</g>
	<g id="ARC_15_">
		<path class="st0" d="M556.2,93.6c1-1.7,0.4-3.9-1.3-4.9c-0.5-0.3-1.2-0.5-1.8-0.5"/>
	</g>
	<g id="LINE_40_">
		<line class="st0" x1="505.4" y1="88.2" x2="553.1" y2="88.2"/>
	</g>
	<g id="ARC_16_">
		<path class="st0" d="M505.4,88.2c-2,0-3.6,1.6-3.6,3.6c0,0.6,0.2,1.3,0.5,1.8"/>
	</g>
	<g id="LINE_41_">
		<line class="st0" x1="511.6" y1="109.8" x2="502.2" y2="93.6"/>
	</g>
	<g id="ARC_17_">
		<path class="st0" d="M508.5,115.2c2,0,3.6-1.6,3.6-3.6c0-0.6-0.2-1.3-0.5-1.8"/>
	</g>
	<g id="LINE_42_">
		<line class="st0" x1="460.7" y1="115.2" x2="508.5" y2="115.2"/>
	</g>
	<g id="ARC_18_">
		<path class="st0" d="M457.6,109.8c-1,1.7-0.4,3.9,1.3,4.9c0.5,0.3,1.2,0.5,1.8,0.5"/>
	</g>
	<g id="LINE_43_">
		<line class="st0" x1="466.9" y1="93.6" x2="457.6" y2="109.8"/>
	</g>
	<g id="ARC_19_">
		<path class="st0" d="M466.9,93.6c1-1.7,0.4-3.9-1.3-4.9c-0.5-0.3-1.2-0.5-1.8-0.5"/>
	</g>
	<g id="LINE_44_">
		<line class="st0" x1="416.1" y1="88.2" x2="463.8" y2="88.2"/>
	</g>
	<g id="ARC_20_">
		<path class="st0" d="M416.1,88.2c-2,0-3.6,1.6-3.6,3.6c0,0.6,0.2,1.3,0.5,1.8"/>
	</g>
	<g id="LINE_45_">
		<line class="st0" x1="422.3" y1="109.8" x2="412.9" y2="93.6"/>
	</g>
	<g id="ARC_21_">
		<path class="st0" d="M419.2,115.2c2,0,3.6-1.6,3.6-3.6c0-0.6-0.2-1.3-0.5-1.8"/>
	</g>
	<g id="LINE_46_">
		<line class="st0" x1="371.4" y1="115.2" x2="419.2" y2="115.2"/>
	</g>
	<g id="ARC_22_">
		<path class="st0" d="M368.3,109.8c-1,1.7-0.4,3.9,1.3,4.9c0.5,0.3,1.2,0.5,1.8,0.5"/>
	</g>
	<g id="LINE_47_">
		<line class="st0" x1="377.6" y1="93.6" x2="368.3" y2="109.8"/>
	</g>
	<g id="ARC_23_">
		<path class="st0" d="M377.6,93.6c1-1.7,0.4-3.9-1.3-4.9c-0.5-0.3-1.2-0.5-1.8-0.5"/>
	</g>
	<g id="LINE_48_">
		<line class="st0" x1="326.8" y1="88.2" x2="374.5" y2="88.2"/>
	</g>
	<g id="ARC_24_">
		<path class="st0" d="M326.8,88.2c-2,0-3.6,1.6-3.6,3.6c0,0.6,0.2,1.3,0.5,1.8"/>
	</g>
	<g id="LINE_49_">
		<line class="st0" x1="333" y1="109.8" x2="323.6" y2="93.6"/>
	</g>
	<g id="ARC_25_">
		<path class="st0" d="M329.9,115.2c2,0,3.6-1.6,3.6-3.6c0-0.6-0.2-1.3-0.5-1.8"/>
	</g>
	<g id="LINE_50_">
		<line class="st0" x1="282.1" y1="115.2" x2="329.9" y2="115.2"/>
	</g>
	<g id="ARC_26_">
		<path class="st0" d="M279,109.8c-1,1.7-0.4,3.9,1.3,4.9c0.5,0.3,1.2,0.5,1.8,0.5"/>
	</g>
	<g id="LINE_51_">
		<line class="st0" x1="288.4" y1="93.6" x2="279" y2="109.8"/>
	</g>
	<g id="ARC_27_">
		<path class="st0" d="M288.4,93.6c1-1.7,0.4-3.9-1.3-4.9c-0.5-0.3-1.2-0.5-1.8-0.5"/>
	</g>
	<g id="LINE_52_">
		<line class="st0" x1="237.5" y1="88.2" x2="285.2" y2="88.2"/>
	</g>
	<g id="ARC_28_">
		<path class="st0" d="M237.5,88.2c-2,0-3.6,1.6-3.6,3.6c0,0.6,0.2,1.3,0.5,1.8"/>
	</g>
	<g id="LINE_53_">
		<line class="st0" x1="243.7" y1="109.8" x2="234.4" y2="93.6"/>
	</g>
	<g id="ARC_29_">
		<path class="st0" d="M240.6,115.2c2,0,3.6-1.6,3.6-3.6c0-0.6-0.2-1.3-0.5-1.8"/>
	</g>
	<g id="LINE_54_">
		<line class="st0" x1="192.8" y1="115.2" x2="240.6" y2="115.2"/>
	</g>
	<g id="ARC_30_">
		<path class="st0" d="M189.7,109.8c-1,1.7-0.4,3.9,1.3,4.9c0.5,0.3,1.2,0.5,1.8,0.5"/>
	</g>
	<g id="LINE_55_">
		<line class="st0" x1="199.1" y1="93.6" x2="189.7" y2="109.8"/>
	</g>
	<g id="ARC_31_">
		<path class="st0" d="M199.1,93.6c1-1.7,0.4-3.9-1.3-4.9c-0.5-0.3-1.2-0.5-1.8-0.5"/>
	</g>
	<g id="LINE_56_">
		<line class="st0" x1="148.2" y1="88.2" x2="195.9" y2="88.2"/>
	</g>
	<g id="ARC_32_">
		<path class="st0" d="M148.2,88.2c-2,0-3.6,1.6-3.6,3.6c0,0.6,0.2,1.3,0.5,1.8"/>
	</g>
	<g id="LINE_57_">
		<line class="st0" x1="154.4" y1="109.8" x2="145.1" y2="93.6"/>
	</g>
	<g id="ARC_33_">
		<path class="st0" d="M151.3,115.2c2,0,3.6-1.6,3.6-3.6c0-0.6-0.2-1.3-0.5-1.8"/>
	</g>
	<g id="LINE_58_">
		<line class="st0" x1="103.5" y1="115.2" x2="151.3" y2="115.2"/>
	</g>
	<g id="ARC_34_">
		<path class="st0" d="M100.4,109.8c-1,1.7-0.4,3.9,1.3,4.9c0.5,0.3,1.2,0.5,1.8,0.5"/>
	</g>
	<g id="LINE_59_">
		<line class="st0" x1="109.8" y1="93.6" x2="100.4" y2="109.8"/>
	</g>
	<g id="ARC_35_">
		<path class="st0" d="M109.8,93.6c1-1.7,0.4-3.9-1.3-4.9c-0.5-0.3-1.2-0.5-1.8-0.5"/>
	</g>
	<g id="LINE_60_">
		<line class="st0" x1="58.9" y1="88.2" x2="106.6" y2="88.2"/>
	</g>
	<g id="ARC_36_">
		<path class="st0" d="M58.9,88.2c-2,0-3.6,1.6-3.6,3.6c0,0.6,0.2,1.3,0.5,1.8"/>
	</g>
	<g id="LINE_61_">
		<line class="st0" x1="65.1" y1="109.8" x2="55.8" y2="93.6"/>
	</g>
	<g id="ARC_37_">
		<path class="st0" d="M62,115.2c2,0,3.6-1.6,3.6-3.6c0-0.6-0.2-1.3-0.5-1.8"/>
	</g>
	<g id="LINE_62_">
		<line class="st0" x1="14.2" y1="115.2" x2="62" y2="115.2"/>
	</g>
	<g id="ARC_38_">
		<path class="st0" d="M11.1,109.8c-1,1.7-0.4,3.9,1.3,4.9c0.5,0.3,1.2,0.5,1.8,0.5"/>
	</g>
	<g id="LINE_63_">
		<line class="st0" x1="20.5" y1="93.6" x2="11.1" y2="109.8"/>
	</g>
	<g id="ARC_39_">
		<path class="st0" d="M20.5,93.6c1-1.7,0.4-3.9-1.3-4.9c-0.5-0.3-1.2-0.5-1.8-0.5"/>
	</g>
	<g id="LINE_64_">
		<line class="st0" x1="-30.4" y1="88.2" x2="17.4" y2="88.2"/>
	</g>
	<g id="ARC_40_">
		<path class="st0" d="M-30.4,88.2c-2,0-3.6,1.6-3.6,3.6c0,0.6,0.2,1.3,0.5,1.8"/>
	</g>
	<g id="LINE_65_">
		<line class="st0" x1="-24.2" y1="109.8" x2="-33.5" y2="93.6"/>
	</g>
	<g id="ARC_41_">
		<path class="st0" d="M-27.3,115.2c2,0,3.6-1.6,3.6-3.6c0-0.6-0.2-1.3-0.5-1.8"/>
	</g>
	<g id="LINE_66_">
		<line class="st0" x1="-75.1" y1="115.2" x2="-27.3" y2="115.2"/>
	</g>
	<g id="ARC_42_">
		<path class="st0" d="M-78.2,109.8c-1,1.7-0.4,3.9,1.3,4.9c0.5,0.3,1.2,0.5,1.8,0.5"/>
	</g>
	<g id="LINE_67_">
		<line class="st0" x1="-68.8" y1="93.6" x2="-78.2" y2="109.8"/>
	</g>
	<g id="ARC_43_">
		<path class="st0" d="M-68.8,93.6c1-1.7,0.4-3.9-1.3-4.9c-0.5-0.3-1.2-0.5-1.8-0.5"/>
	</g>
	<g id="LINE_68_">
		<line class="st0" x1="-119.7" y1="88.2" x2="-71.9" y2="88.2"/>
	</g>
	<g id="ARC_44_">
		<path class="st0" d="M-119.7,88.2c-2,0-3.6,1.6-3.6,3.6c0,0.6,0.2,1.3,0.5,1.8"/>
	</g>
	<g id="LINE_69_">
		<line class="st0" x1="-113.5" y1="109.8" x2="-122.8" y2="93.6"/>
	</g>
	<g id="ARC_45_">
		<path class="st0" d="M-116.6,115.2c2,0,3.6-1.6,3.6-3.6c0-0.6-0.2-1.3-0.5-1.8"/>
	</g>
	<g id="LINE_70_">
		<line class="st0" x1="-164.4" y1="115.2" x2="-116.6" y2="115.2"/>
	</g>
	<g id="ARC_46_">
		<path class="st0" d="M-167.5,109.8c-1,1.7-0.4,3.9,1.3,4.9c0.5,0.3,1.2,0.5,1.8,0.5"/>
	</g>
	<g id="LINE_71_">
		<line class="st0" x1="-158.1" y1="93.6" x2="-167.5" y2="109.8"/>
	</g>
	<g id="ARC_47_">
		<path class="st0" d="M-158.1,93.6c1-1.7,0.4-3.9-1.3-4.9c-0.5-0.3-1.2-0.5-1.8-0.5"/>
	</g>
	<g id="LINE_72_">
		<line class="st0" x1="-209" y1="88.2" x2="-161.2" y2="88.2"/>
	</g>
	<g id="ARC_48_">
		<path class="st0" d="M-209,88.2c-2,0-3.6,1.6-3.6,3.6c0,0.6,0.2,1.3,0.5,1.8"/>
	</g>
	<g id="LINE_73_">
		<line class="st0" x1="-202.8" y1="109.8" x2="-212.1" y2="93.6"/>
	</g>
	<g id="ARC_49_">
		<path class="st0" d="M-205.9,115.2c2,0,3.6-1.6,3.6-3.6c0-0.6-0.2-1.3-0.5-1.8"/>
	</g>
	<g id="LINE_74_">
		<line class="st0" x1="-253.6" y1="115.2" x2="-205.9" y2="115.2"/>
	</g>
	<g id="ARC_50_">
		<path class="st0" d="M-256.8,109.8c-1,1.7-0.4,3.9,1.3,4.9c0.5,0.3,1.2,0.5,1.8,0.5"/>
	</g>
	<g id="LINE_75_">
		<line class="st0" x1="-247.4" y1="93.6" x2="-256.8" y2="109.8"/>
	</g>
	<g id="ARC_51_">
		<path class="st0" d="M-247.4,93.6c1-1.7,0.4-3.9-1.3-4.9c-0.5-0.3-1.2-0.5-1.8-0.5"/>
	</g>
	<g id="LINE_76_">
		<line class="st0" x1="-283" y1="88.2" x2="-250.5" y2="88.2"/>
	</g>
	<g id="LINE_77_">
		<line class="st0" x1="-283" y1="88.2" x2="-283" y2="694.8"/>
	</g>
	<g id="LINE_78_">
		<line class="st0" x1="-283" y1="694.8" x2="-252" y2="694.8"/>
	</g>
	<g id="LINE_79_">
		<line class="st0" x1="-252" y1="703.8" x2="-252" y2="694.8"/>
	</g>
	<g id="LINE_80_">
		<line class="st0" x1="-252" y1="703.8" x2="-216" y2="703.8"/>
	</g>
	<g id="LINE_81_">
		<line class="st0" x1="-216" y1="703.8" x2="-216" y2="694.8"/>
	</g>
	<g id="LINE_82_">
		<line class="st0" x1="-216" y1="694.8" x2="-144" y2="694.8"/>
	</g>
	<g id="LINE_83_">
		<line class="st0" x1="-144" y1="703.8" x2="-144" y2="694.8"/>
	</g>
	<g id="LINE_84_">
		<line class="st0" x1="-144" y1="703.8" x2="-108" y2="703.8"/>
	</g>
	<g id="LINE_85_">
		<line class="st0" x1="-108" y1="703.8" x2="-108" y2="694.8"/>
	</g>
	<g id="LINE_86_">
		<line class="st0" x1="-108" y1="694.8" x2="-36" y2="694.8"/>
	</g>
	<g id="LINE_87_">
		<line class="st0" x1="-36" y1="703.8" x2="-36" y2="694.8"/>
	</g>
	<g id="LINE_88_">
		<line class="st0" x1="-36" y1="703.8" x2="0" y2="703.8"/>
	</g>
	<g id="LINE_89_">
		<line class="st0" x1="0" y1="703.8" x2="0" y2="694.8"/>
	</g>
	<g id="LINE_90_">
		<line class="st0" x1="0" y1="694.8" x2="72" y2="694.8"/>
	</g>
	<g id="LINE_91_">
		<line class="st0" x1="72" y1="703.8" x2="72" y2="694.8"/>
	</g>
	<g id="LINE_92_">
		<line class="st0" x1="72" y1="703.8" x2="108" y2="703.8"/>
	</g>
	<g id="LINE_93_">
		<line class="st0" x1="108" y1="703.8" x2="108" y2="694.8"/>
	</g>
	<g id="LINE_94_">
		<line class="st0" x1="108" y1="694.8" x2="180" y2="694.8"/>
	</g>
	<g id="LINE_95_">
		<line class="st0" x1="180" y1="703.8" x2="180" y2="694.8"/>
	</g>
	<g id="LINE_96_">
		<line class="st0" x1="180" y1="703.8" x2="216" y2="703.8"/>
	</g>
	<g id="LINE_97_">
		<line class="st0" x1="216" y1="703.8" x2="216" y2="694.8"/>
	</g>
	<g id="LINE_98_">
		<line class="st0" x1="216" y1="694.8" x2="288" y2="694.8"/>
	</g>
	<g id="LINE_99_">
		<line class="st0" x1="288" y1="703.8" x2="288" y2="694.8"/>
	</g>
	<g id="LINE_100_">
		<line class="st0" x1="288" y1="703.8" x2="324" y2="703.8"/>
	</g>
	<g id="LINE_101_">
		<line class="st0" x1="324" y1="703.8" x2="324" y2="694.8"/>
	</g>
	<g id="LINE_102_">
		<line class="st0" x1="324" y1="694.8" x2="396" y2="694.8"/>
	</g>
	<g id="LINE_103_">
		<line class="st0" x1="396" y1="703.8" x2="396" y2="694.8"/>
	</g>
	<g id="LINE_104_">
		<line class="st0" x1="396" y1="703.8" x2="432" y2="703.8"/>
	</g>
	<g id="LINE_105_">
		<line class="st0" x1="432" y1="703.8" x2="432" y2="694.8"/>
	</g>
	<g id="LINE_106_">
		<line class="st0" x1="432" y1="694.8" x2="504" y2="694.8"/>
	</g>
	<g id="LINE_107_">
		<line class="st0" x1="504" y1="703.8" x2="504" y2="694.8"/>
	</g>
	<g id="LINE_108_">
		<line class="st0" x1="504" y1="703.8" x2="540" y2="703.8"/>
	</g>
	<g id="LINE_109_">
		<line class="st0" x1="540" y1="703.8" x2="540" y2="694.8"/>
	</g>
	<g id="LINE_110_">
		<line class="st0" x1="540" y1="694.8" x2="612" y2="694.8"/>
	</g>
	<g id="LINE_111_">
		<line class="st0" x1="612" y1="703.8" x2="612" y2="694.8"/>
	</g>
	<g id="LINE_112_">
		<line class="st0" x1="612" y1="703.8" x2="648" y2="703.8"/>
	</g>
	<g id="LINE_113_">
		<line class="st0" x1="648" y1="703.8" x2="648" y2="694.8"/>
	</g>
	<g id="LINE_114_">
		<line class="st0" x1="648" y1="694.8" x2="720" y2="694.8"/>
	</g>
	<g id="LINE_115_">
		<line class="st0" x1="720" y1="703.8" x2="720" y2="694.8"/>
	</g>
	<g id="LINE_116_">
		<line class="st0" x1="720" y1="703.8" x2="756" y2="703.8"/>
	</g>
	<g id="LINE_117_">
		<line class="st0" x1="756" y1="703.8" x2="756" y2="694.8"/>
	</g>
	<g id="LINE_118_">
		<line class="st0" x1="756" y1="694.8" x2="828" y2="694.8"/>
	</g>
	<g id="LINE_119_">
		<line class="st0" x1="828" y1="703.8" x2="828" y2="694.8"/>
	</g>
	<g id="LINE_120_">
		<line class="st0" x1="828" y1="703.8" x2="864" y2="703.8"/>
	</g>
	<g id="LINE_121_">
		<line class="st0" x1="864" y1="703.8" x2="864" y2="694.8"/>
	</g>
	<g id="LINE_122_">
		<line class="st0" x1="864" y1="694.8" x2="895" y2="694.8"/>
	</g>
	<g id="LINE_123_">
		<line class="st0" x1="895" y1="88.2" x2="895" y2="694.8"/>
	</g>
	<g id="LINE_124_">
		<line class="st0" x1="868" y1="602.1" x2="868" y2="638.1"/>
	</g>
	<g id="LINE_125_">
		<line class="st0" x1="868" y1="602.1" x2="877" y2="602.1"/>
	</g>
	<g id="LINE_126_">
		<line class="st0" x1="877" y1="602.1" x2="877" y2="638.1"/>
	</g>
	<g id="LINE_127_">
		<line class="st0" x1="868" y1="638.1" x2="877" y2="638.1"/>
	</g>
	<g id="LINE_128_">
		<line class="st0" x1="868" y1="486.9" x2="868" y2="522.9"/>
	</g>
	<g id="LINE_129_">
		<line class="st0" x1="868" y1="486.9" x2="877" y2="486.9"/>
	</g>
	<g id="LINE_130_">
		<line class="st0" x1="877" y1="486.9" x2="877" y2="522.9"/>
	</g>
	<g id="LINE_131_">
		<line class="st0" x1="868" y1="522.9" x2="877" y2="522.9"/>
	</g>
	<g id="LINE_132_">
		<line class="st0" x1="868" y1="371.7" x2="868" y2="407.7"/>
	</g>
	<g id="LINE_133_">
		<line class="st0" x1="868" y1="371.7" x2="877" y2="371.7"/>
	</g>
	<g id="LINE_134_">
		<line class="st0" x1="877" y1="371.7" x2="877" y2="407.7"/>
	</g>
	<g id="LINE_135_">
		<line class="st0" x1="868" y1="407.7" x2="877" y2="407.7"/>
	</g>
	<g id="LINE_136_">
		<line class="st0" x1="868" y1="256.5" x2="868" y2="292.5"/>
	</g>
	<g id="LINE_137_">
		<line class="st0" x1="868" y1="256.5" x2="877" y2="256.5"/>
	</g>
	<g id="LINE_138_">
		<line class="st0" x1="877" y1="256.5" x2="877" y2="292.5"/>
	</g>
	<g id="LINE_139_">
		<line class="st0" x1="868" y1="292.5" x2="877" y2="292.5"/>
	</g>
	<g id="LINE_140_">
		<line class="st0" x1="-265" y1="602.1" x2="-265" y2="638.1"/>
	</g>
	<g id="LINE_141_">
		<line class="st0" x1="-265" y1="602.1" x2="-256" y2="602.1"/>
	</g>
	<g id="LINE_142_">
		<line class="st0" x1="-256" y1="602.1" x2="-256" y2="638.1"/>
	</g>
	<g id="LINE_143_">
		<line class="st0" x1="-265" y1="638.1" x2="-256" y2="638.1"/>
	</g>
	<g id="LINE_144_">
		<line class="st0" x1="-265" y1="256.5" x2="-265" y2="292.5"/>
	</g>
	<g id="LINE_145_">
		<line class="st0" x1="-265" y1="256.5" x2="-256" y2="256.5"/>
	</g>
	<g id="LINE_146_">
		<line class="st0" x1="-256" y1="256.5" x2="-256" y2="292.5"/>
	</g>
	<g id="LINE_147_">
		<line class="st0" x1="-265" y1="292.5" x2="-256" y2="292.5"/>
	</g>
	<g id="LINE_148_">
		<line class="st0" x1="-265" y1="371.7" x2="-265" y2="407.7"/>
	</g>
	<g id="LINE_149_">
		<line class="st0" x1="-265" y1="371.7" x2="-256" y2="371.7"/>
	</g>
	<g id="LINE_150_">
		<line class="st0" x1="-256" y1="371.7" x2="-256" y2="407.7"/>
	</g>
	<g id="LINE_151_">
		<line class="st0" x1="-265" y1="407.7" x2="-256" y2="407.7"/>
	</g>
	<g id="LINE_152_">
		<line class="st0" x1="-265" y1="486.9" x2="-265" y2="522.9"/>
	</g>
	<g id="LINE_153_">
		<line class="st0" x1="-265" y1="486.9" x2="-256" y2="486.9"/>
	</g>
	<g id="LINE_154_">
		<line class="st0" x1="-256" y1="486.9" x2="-256" y2="522.9"/>
	</g>
	<g id="LINE_155_">
		<line class="st0" x1="-265" y1="522.9" x2="-256" y2="522.9"/>
	</g>
	<g id="LINE_156_">
		<line class="st0" x1="-104" y1="345.6" x2="-104" y2="336.6"/>
	</g>
	<g id="LINE_157_">
		<line class="st0" x1="-104" y1="345.6" x2="-122" y2="345.6"/>
	</g>
	<g id="LINE_158_">
		<line class="st0" x1="-122" y1="336.6" x2="-122" y2="345.6"/>
	</g>
	<g id="LINE_159_">
		<line class="st0" x1="-104" y1="336.6" x2="-122" y2="336.6"/>
	</g>
	<g id="LINE_160_">
		<line class="st0" x1="-131" y1="139.5" x2="-131" y2="179.1"/>
	</g>
	<g id="LINE_161_">
		<line class="st0" x1="-131" y1="139.5" x2="-122" y2="139.5"/>
	</g>
	<g id="LINE_162_">
		<line class="st0" x1="-122" y1="139.5" x2="-122" y2="179.1"/>
	</g>
	<g id="LINE_163_">
		<line class="st0" x1="-131" y1="179.1" x2="-122" y2="179.1"/>
	</g>
	<g id="LINE_164_">
		<line class="st0" x1="-131" y1="256.5" x2="-131" y2="292.5"/>
	</g>
	<g id="LINE_165_">
		<line class="st0" x1="-131" y1="256.5" x2="-122" y2="256.5"/>
	</g>
	<g id="LINE_166_">
		<line class="st0" x1="-122" y1="256.5" x2="-122" y2="292.5"/>
	</g>
	<g id="LINE_167_">
		<line class="st0" x1="-131" y1="292.5" x2="-122" y2="292.5"/>
	</g>
	<g id="LINE_168_">
		<line class="st0" x1="-131" y1="371.7" x2="-131" y2="407.7"/>
	</g>
	<g id="LINE_169_">
		<line class="st0" x1="-131" y1="371.7" x2="-122" y2="371.7"/>
	</g>
	<g id="LINE_170_">
		<line class="st0" x1="-122" y1="371.7" x2="-122" y2="407.7"/>
	</g>
	<g id="LINE_171_">
		<line class="st0" x1="-131" y1="407.7" x2="-122" y2="407.7"/>
	</g>
	<g id="LINE_172_">
		<line class="st0" x1="-131" y1="486.9" x2="-131" y2="522.9"/>
	</g>
	<g id="LINE_173_">
		<line class="st0" x1="-131" y1="486.9" x2="-122" y2="486.9"/>
	</g>
	<g id="LINE_174_">
		<line class="st0" x1="-122" y1="486.9" x2="-122" y2="522.9"/>
	</g>
	<g id="LINE_175_">
		<line class="st0" x1="-131" y1="522.9" x2="-122" y2="522.9"/>
	</g>
	<g id="LINE_176_">
		<line class="st0" x1="-131" y1="602.1" x2="-131" y2="638.1"/>
	</g>
	<g id="LINE_177_">
		<line class="st0" x1="-131" y1="602.1" x2="-122" y2="602.1"/>
	</g>
	<g id="LINE_178_">
		<line class="st0" x1="-122" y1="602.1" x2="-122" y2="638.1"/>
	</g>
	<g id="LINE_179_">
		<line class="st0" x1="-131" y1="638.1" x2="-122" y2="638.1"/>
	</g>
	<g id="CIRCLE_4_">
		<path class="st0" d="M-14.5,522.2c0-3.3,2.7-6,6-6s6,2.7,6,6c0,3.3-2.7,6-6,6S-14.5,525.5-14.5,522.2L-14.5,522.2z"/>
	</g>
	<g id="CIRCLE_5_">
		<path class="st0" d="M70.5,522.2c0-3.3,2.7-6,6-6c3.3,0,6,2.7,6,6c0,3.3-2.7,6-6,6C73.2,528.2,70.5,525.5,70.5,522.2L70.5,522.2z"
			/>
	</g>
	<g id="CIRCLE_6_">
		<path class="st0" d="M70.5,437.2c0-3.3,2.7-6,6-6c3.3,0,6,2.7,6,6c0,3.3-2.7,6-6,6C73.2,443.1,70.5,440.5,70.5,437.2L70.5,437.2z"
			/>
	</g>
	<g id="CIRCLE_7_">
		<path class="st0" d="M-14.5,437.2c0-3.3,2.7-6,6-6s6,2.7,6,6c0,3.3-2.7,6-6,6S-14.5,440.5-14.5,437.2L-14.5,437.2z"/>
	</g>
	<g id="LINE_180_">
		<line class="st0" x1="-15.5" y1="292.5" x2="-15.5" y2="256.5"/>
	</g>
	<g id="LINE_181_">
		<line class="st0" x1="-15.5" y1="256.5" x2="-6.5" y2="256.5"/>
	</g>
	<g id="LINE_182_">
		<line class="st0" x1="-6.5" y1="292.5" x2="-6.5" y2="256.5"/>
	</g>
	<g id="LINE_183_">
		<line class="st0" x1="-15.5" y1="292.5" x2="-6.5" y2="292.5"/>
	</g>
	<g id="LINE_184_">
		<line class="st0" x1="-15.5" y1="179.1" x2="-6.5" y2="179.1"/>
	</g>
	<g id="LINE_185_">
		<line class="st0" x1="-15.5" y1="179.1" x2="-15.5" y2="139.5"/>
	</g>
	<g id="LINE_186_">
		<line class="st0" x1="-15.5" y1="139.5" x2="-6.5" y2="139.5"/>
	</g>
	<g id="LINE_187_">
		<line class="st0" x1="-6.5" y1="179.1" x2="-6.5" y2="139.5"/>
	</g>
	<g id="LINE_188_">
		<line class="st0" x1="-53" y1="282.6" x2="-84.5" y2="282.6"/>
	</g>
	<g id="LINE_189_">
		<line class="st0" x1="-53" y1="282.6" x2="-53" y2="676.8"/>
	</g>
	<g id="LINE_190_">
		<line class="st0" x1="-53" y1="676.8" x2="-84.5" y2="676.8"/>
	</g>
	<g id="LINE_191_">
		<line class="st0" x1="-84.5" y1="282.6" x2="-84.5" y2="676.8"/>
	</g>
	<g id="LINE_192_">
		<line class="st0" x1="-15.5" y1="336.6" x2="-33.5" y2="336.6"/>
	</g>
	<g id="LINE_193_">
		<line class="st0" x1="-15.5" y1="336.6" x2="-15.5" y2="345.6"/>
	</g>
	<g id="LINE_194_">
		<line class="st0" x1="-15.5" y1="345.6" x2="-33.5" y2="345.6"/>
	</g>
	<g id="LINE_195_">
		<line class="st0" x1="-33.5" y1="336.6" x2="-33.5" y2="345.6"/>
	</g>
	<g id="LINE_196_">
		<line class="st0" x1="145.8" y1="345.6" x2="145.8" y2="336.6"/>
	</g>
	<g id="LINE_197_">
		<line class="st0" x1="145.8" y1="345.6" x2="127.8" y2="345.6"/>
	</g>
	<g id="LINE_198_">
		<line class="st0" x1="127.8" y1="336.6" x2="127.8" y2="345.6"/>
	</g>
	<g id="LINE_199_">
		<line class="st0" x1="145.8" y1="336.6" x2="127.8" y2="336.6"/>
	</g>
	<g id="LINE_200_">
		<line class="st0" x1="118.8" y1="139.5" x2="118.8" y2="179.1"/>
	</g>
	<g id="LINE_201_">
		<line class="st0" x1="118.8" y1="139.5" x2="127.8" y2="139.5"/>
	</g>
	<g id="LINE_202_">
		<line class="st0" x1="127.8" y1="139.5" x2="127.8" y2="179.1"/>
	</g>
	<g id="LINE_203_">
		<line class="st0" x1="118.8" y1="179.1" x2="127.8" y2="179.1"/>
	</g>
	<g id="LINE_204_">
		<line class="st0" x1="118.8" y1="256.5" x2="118.8" y2="292.5"/>
	</g>
	<g id="LINE_205_">
		<line class="st0" x1="118.8" y1="256.5" x2="127.8" y2="256.5"/>
	</g>
	<g id="LINE_206_">
		<line class="st0" x1="127.8" y1="256.5" x2="127.8" y2="292.5"/>
	</g>
	<g id="LINE_207_">
		<line class="st0" x1="118.8" y1="292.5" x2="127.8" y2="292.5"/>
	</g>
	<g id="LINE_208_">
		<line class="st0" x1="118.8" y1="371.7" x2="118.8" y2="407.7"/>
	</g>
	<g id="LINE_209_">
		<line class="st0" x1="118.8" y1="371.7" x2="127.8" y2="371.7"/>
	</g>
	<g id="LINE_210_">
		<line class="st0" x1="127.8" y1="371.7" x2="127.8" y2="407.7"/>
	</g>
	<g id="LINE_211_">
		<line class="st0" x1="118.8" y1="407.7" x2="127.8" y2="407.7"/>
	</g>
	<g id="LINE_212_">
		<line class="st0" x1="118.8" y1="486.9" x2="118.8" y2="522.9"/>
	</g>
	<g id="LINE_213_">
		<line class="st0" x1="118.8" y1="486.9" x2="127.8" y2="486.9"/>
	</g>
	<g id="LINE_214_">
		<line class="st0" x1="127.8" y1="486.9" x2="127.8" y2="522.9"/>
	</g>
	<g id="LINE_215_">
		<line class="st0" x1="118.8" y1="522.9" x2="127.8" y2="522.9"/>
	</g>
	<g id="LINE_216_">
		<line class="st0" x1="118.8" y1="602.1" x2="118.8" y2="638.1"/>
	</g>
	<g id="LINE_217_">
		<line class="st0" x1="118.8" y1="602.1" x2="127.8" y2="602.1"/>
	</g>
	<g id="LINE_218_">
		<line class="st0" x1="127.8" y1="602.1" x2="127.8" y2="638.1"/>
	</g>
	<g id="LINE_219_">
		<line class="st0" x1="118.8" y1="638.1" x2="127.8" y2="638.1"/>
	</g>
	<g id="CIRCLE_8_">
		<path class="st0" d="M235.3,522.2c0-3.3,2.7-6,6-6s6,2.7,6,6c0,3.3-2.7,6-6,6S235.3,525.5,235.3,522.2L235.3,522.2z"/>
	</g>
	<g id="CIRCLE_9_">
		<path class="st0" d="M320.4,522.2c0-3.3,2.7-6,6-6c3.3,0,6,2.7,6,6c0,3.3-2.7,6-6,6C323,528.2,320.4,525.5,320.4,522.2
			L320.4,522.2z"/>
	</g>
	<g id="CIRCLE_10_">
		<path class="st0" d="M320.4,437.2c0-3.3,2.7-6,6-6c3.3,0,6,2.7,6,6c0,3.3-2.7,6-6,6C323,443.1,320.4,440.5,320.4,437.2
			L320.4,437.2z"/>
	</g>
	<g id="CIRCLE_11_">
		<path class="st0" d="M235.3,437.2c0-3.3,2.7-6,6-6s6,2.7,6,6c0,3.3-2.7,6-6,6S235.3,440.5,235.3,437.2L235.3,437.2z"/>
	</g>
	<g id="LINE_220_">
		<line class="st0" x1="234.4" y1="292.5" x2="234.4" y2="256.5"/>
	</g>
	<g id="LINE_221_">
		<line class="st0" x1="234.4" y1="256.5" x2="243.4" y2="256.5"/>
	</g>
	<g id="LINE_222_">
		<line class="st0" x1="243.4" y1="292.5" x2="243.4" y2="256.5"/>
	</g>
	<g id="LINE_223_">
		<line class="st0" x1="234.4" y1="292.5" x2="243.4" y2="292.5"/>
	</g>
	<g id="LINE_224_">
		<line class="st0" x1="234.4" y1="179.1" x2="243.4" y2="179.1"/>
	</g>
	<g id="LINE_225_">
		<line class="st0" x1="234.4" y1="179.1" x2="234.4" y2="139.5"/>
	</g>
	<g id="LINE_226_">
		<line class="st0" x1="234.4" y1="139.5" x2="243.4" y2="139.5"/>
	</g>
	<g id="LINE_227_">
		<line class="st0" x1="243.4" y1="179.1" x2="243.4" y2="139.5"/>
	</g>
	<g id="LINE_228_">
		<line class="st0" x1="196.8" y1="282.6" x2="165.3" y2="282.6"/>
	</g>
	<g id="LINE_229_">
		<line class="st0" x1="196.8" y1="282.6" x2="196.8" y2="676.8"/>
	</g>
	<g id="LINE_230_">
		<line class="st0" x1="196.8" y1="676.8" x2="165.3" y2="676.8"/>
	</g>
	<g id="LINE_231_">
		<line class="st0" x1="165.3" y1="282.6" x2="165.3" y2="676.8"/>
	</g>
	<g id="LINE_232_">
		<line class="st0" x1="234.4" y1="336.6" x2="216.4" y2="336.6"/>
	</g>
	<g id="LINE_233_">
		<line class="st0" x1="234.4" y1="336.6" x2="234.4" y2="345.6"/>
	</g>
	<g id="LINE_234_">
		<line class="st0" x1="234.4" y1="345.6" x2="216.4" y2="345.6"/>
	</g>
	<g id="LINE_235_">
		<line class="st0" x1="216.4" y1="336.6" x2="216.4" y2="345.6"/>
	</g>
	<g id="LINE_236_">
		<line class="st0" x1="395.6" y1="345.6" x2="395.6" y2="336.6"/>
	</g>
	<g id="LINE_237_">
		<line class="st0" x1="395.6" y1="345.6" x2="377.6" y2="345.6"/>
	</g>
	<g id="LINE_238_">
		<line class="st0" x1="377.6" y1="336.6" x2="377.6" y2="345.6"/>
	</g>
	<g id="LINE_239_">
		<line class="st0" x1="395.6" y1="336.6" x2="377.6" y2="336.6"/>
	</g>
	<g id="LINE_240_">
		<line class="st0" x1="368.6" y1="139.5" x2="368.6" y2="179.1"/>
	</g>
	<g id="LINE_241_">
		<line class="st0" x1="368.6" y1="139.5" x2="377.6" y2="139.5"/>
	</g>
	<g id="LINE_242_">
		<line class="st0" x1="377.6" y1="139.5" x2="377.6" y2="179.1"/>
	</g>
	<g id="LINE_243_">
		<line class="st0" x1="368.6" y1="179.1" x2="377.6" y2="179.1"/>
	</g>
	<g id="LINE_244_">
		<line class="st0" x1="368.6" y1="256.5" x2="368.6" y2="292.5"/>
	</g>
	<g id="LINE_245_">
		<line class="st0" x1="368.6" y1="256.5" x2="377.6" y2="256.5"/>
	</g>
	<g id="LINE_246_">
		<line class="st0" x1="377.6" y1="256.5" x2="377.6" y2="292.5"/>
	</g>
	<g id="LINE_247_">
		<line class="st0" x1="368.6" y1="292.5" x2="377.6" y2="292.5"/>
	</g>
	<g id="LINE_248_">
		<line class="st0" x1="368.6" y1="371.7" x2="368.6" y2="407.7"/>
	</g>
	<g id="LINE_249_">
		<line class="st0" x1="368.6" y1="371.7" x2="377.6" y2="371.7"/>
	</g>
	<g id="LINE_250_">
		<line class="st0" x1="377.6" y1="371.7" x2="377.6" y2="407.7"/>
	</g>
	<g id="LINE_251_">
		<line class="st0" x1="368.6" y1="407.7" x2="377.6" y2="407.7"/>
	</g>
	<g id="LINE_252_">
		<line class="st0" x1="368.6" y1="486.9" x2="368.6" y2="522.9"/>
	</g>
	<g id="LINE_253_">
		<line class="st0" x1="368.6" y1="486.9" x2="377.6" y2="486.9"/>
	</g>
	<g id="LINE_254_">
		<line class="st0" x1="377.6" y1="486.9" x2="377.6" y2="522.9"/>
	</g>
	<g id="LINE_255_">
		<line class="st0" x1="368.6" y1="522.9" x2="377.6" y2="522.9"/>
	</g>
	<g id="LINE_256_">
		<line class="st0" x1="368.6" y1="602.1" x2="368.6" y2="638.1"/>
	</g>
	<g id="LINE_257_">
		<line class="st0" x1="368.6" y1="602.1" x2="377.6" y2="602.1"/>
	</g>
	<g id="LINE_258_">
		<line class="st0" x1="377.6" y1="602.1" x2="377.6" y2="638.1"/>
	</g>
	<g id="LINE_259_">
		<line class="st0" x1="368.6" y1="638.1" x2="377.6" y2="638.1"/>
	</g>
	<g id="CIRCLE_12_">
		<path class="st0" d="M485.2,522.2c0-3.3,2.7-6,6-6c3.3,0,6,2.7,6,6c0,3.3-2.7,6-6,6C487.8,528.2,485.2,525.5,485.2,522.2
			L485.2,522.2z"/>
	</g>
	<g id="CIRCLE_13_">
		<path class="st0" d="M570.2,522.2c0-3.3,2.7-6,6-6s6,2.7,6,6c0,3.3-2.7,6-6,6S570.2,525.5,570.2,522.2L570.2,522.2z"/>
	</g>
	<g id="CIRCLE_14_">
		<path class="st0" d="M570.2,437.2c0-3.3,2.7-6,6-6s6,2.7,6,6c0,3.3-2.7,6-6,6S570.2,440.5,570.2,437.2L570.2,437.2z"/>
	</g>
	<g id="CIRCLE_15_">
		<path class="st0" d="M485.2,437.2c0-3.3,2.7-6,6-6c3.3,0,6,2.7,6,6c0,3.3-2.7,6-6,6C487.8,443.1,485.2,440.5,485.2,437.2
			L485.2,437.2z"/>
	</g>
	<g id="LINE_260_">
		<line class="st0" x1="484.2" y1="292.5" x2="484.2" y2="256.5"/>
	</g>
	<g id="LINE_261_">
		<line class="st0" x1="484.2" y1="256.5" x2="493.2" y2="256.5"/>
	</g>
	<g id="LINE_262_">
		<line class="st0" x1="493.2" y1="292.5" x2="493.2" y2="256.5"/>
	</g>
	<g id="LINE_263_">
		<line class="st0" x1="484.2" y1="292.5" x2="493.2" y2="292.5"/>
	</g>
	<g id="LINE_264_">
		<line class="st0" x1="484.2" y1="179.1" x2="493.2" y2="179.1"/>
	</g>
	<g id="LINE_265_">
		<line class="st0" x1="484.2" y1="179.1" x2="484.2" y2="139.5"/>
	</g>
	<g id="LINE_266_">
		<line class="st0" x1="484.2" y1="139.5" x2="493.2" y2="139.5"/>
	</g>
	<g id="LINE_267_">
		<line class="st0" x1="493.2" y1="179.1" x2="493.2" y2="139.5"/>
	</g>
	<g id="LINE_268_">
		<line class="st0" x1="446.7" y1="282.6" x2="415.2" y2="282.6"/>
	</g>
	<g id="LINE_269_">
		<line class="st0" x1="446.7" y1="282.6" x2="446.7" y2="676.8"/>
	</g>
	<g id="LINE_270_">
		<line class="st0" x1="446.7" y1="676.8" x2="415.2" y2="676.8"/>
	</g>
	<g id="LINE_271_">
		<line class="st0" x1="415.2" y1="282.6" x2="415.2" y2="676.8"/>
	</g>
	<g id="LINE_272_">
		<line class="st0" x1="484.2" y1="336.6" x2="466.2" y2="336.6"/>
	</g>
	<g id="LINE_273_">
		<line class="st0" x1="484.2" y1="336.6" x2="484.2" y2="345.6"/>
	</g>
	<g id="LINE_274_">
		<line class="st0" x1="484.2" y1="345.6" x2="466.2" y2="345.6"/>
	</g>
	<g id="LINE_275_">
		<line class="st0" x1="466.2" y1="336.6" x2="466.2" y2="345.6"/>
	</g>
	<g id="LINE_276_">
		<line class="st0" x1="645.5" y1="345.6" x2="645.5" y2="336.6"/>
	</g>
	<g id="LINE_277_">
		<line class="st0" x1="645.5" y1="345.6" x2="627.5" y2="345.6"/>
	</g>
	<g id="LINE_278_">
		<line class="st0" x1="627.5" y1="336.6" x2="627.5" y2="345.6"/>
	</g>
	<g id="LINE_279_">
		<line class="st0" x1="645.5" y1="336.6" x2="627.5" y2="336.6"/>
	</g>
	<g id="LINE_280_">
		<line class="st0" x1="618.5" y1="139.5" x2="618.5" y2="179.1"/>
	</g>
	<g id="LINE_281_">
		<line class="st0" x1="618.5" y1="139.5" x2="627.5" y2="139.5"/>
	</g>
	<g id="LINE_282_">
		<line class="st0" x1="627.5" y1="139.5" x2="627.5" y2="179.1"/>
	</g>
	<g id="LINE_283_">
		<line class="st0" x1="618.5" y1="179.1" x2="627.5" y2="179.1"/>
	</g>
	<g id="LINE_284_">
		<line class="st0" x1="618.5" y1="256.5" x2="618.5" y2="292.5"/>
	</g>
	<g id="LINE_285_">
		<line class="st0" x1="618.5" y1="256.5" x2="627.5" y2="256.5"/>
	</g>
	<g id="LINE_286_">
		<line class="st0" x1="627.5" y1="256.5" x2="627.5" y2="292.5"/>
	</g>
	<g id="LINE_287_">
		<line class="st0" x1="618.5" y1="292.5" x2="627.5" y2="292.5"/>
	</g>
	<g id="LINE_288_">
		<line class="st0" x1="618.5" y1="371.7" x2="618.5" y2="407.7"/>
	</g>
	<g id="LINE_289_">
		<line class="st0" x1="618.5" y1="371.7" x2="627.5" y2="371.7"/>
	</g>
	<g id="LINE_290_">
		<line class="st0" x1="627.5" y1="371.7" x2="627.5" y2="407.7"/>
	</g>
	<g id="LINE_291_">
		<line class="st0" x1="618.5" y1="407.7" x2="627.5" y2="407.7"/>
	</g>
	<g id="LINE_292_">
		<line class="st0" x1="618.5" y1="486.9" x2="618.5" y2="522.9"/>
	</g>
	<g id="LINE_293_">
		<line class="st0" x1="618.5" y1="486.9" x2="627.5" y2="486.9"/>
	</g>
	<g id="LINE_294_">
		<line class="st0" x1="627.5" y1="486.9" x2="627.5" y2="522.9"/>
	</g>
	<g id="LINE_295_">
		<line class="st0" x1="618.5" y1="522.9" x2="627.5" y2="522.9"/>
	</g>
	<g id="LINE_296_">
		<line class="st0" x1="618.5" y1="602.1" x2="618.5" y2="638.1"/>
	</g>
	<g id="LINE_297_">
		<line class="st0" x1="618.5" y1="602.1" x2="627.5" y2="602.1"/>
	</g>
	<g id="LINE_298_">
		<line class="st0" x1="627.5" y1="602.1" x2="627.5" y2="638.1"/>
	</g>
	<g id="LINE_299_">
		<line class="st0" x1="618.5" y1="638.1" x2="627.5" y2="638.1"/>
	</g>
	<g id="CIRCLE_16_">
		<path class="st0" d="M735,522.2c0-3.3,2.7-6,6-6c3.3,0,6,2.7,6,6c0,3.3-2.7,6-6,6C737.7,528.2,735,525.5,735,522.2L735,522.2z"/>
	</g>
	<g id="CIRCLE_17_">
		<path class="st0" d="M820.1,522.2c0-3.3,2.7-6,6-6c3.3,0,6,2.7,6,6c0,3.3-2.7,6-6,6C822.7,528.2,820.1,525.5,820.1,522.2
			L820.1,522.2z"/>
	</g>
	<g id="CIRCLE_18_">
		<path class="st0" d="M820.1,437.2c0-3.3,2.7-6,6-6c3.3,0,6,2.7,6,6c0,3.3-2.7,6-6,6C822.7,443.1,820.1,440.5,820.1,437.2
			L820.1,437.2z"/>
	</g>
	<g id="CIRCLE_19_">
		<path class="st0" d="M735,437.2c0-3.3,2.7-6,6-6c3.3,0,6,2.7,6,6c0,3.3-2.7,6-6,6C737.7,443.1,735,440.5,735,437.2L735,437.2z"/>
	</g>
	<g id="LINE_300_">
		<line class="st0" x1="734" y1="292.5" x2="734" y2="256.5"/>
	</g>
	<g id="LINE_301_">
		<line class="st0" x1="734" y1="256.5" x2="743" y2="256.5"/>
	</g>
	<g id="LINE_302_">
		<line class="st0" x1="743" y1="292.5" x2="743" y2="256.5"/>
	</g>
	<g id="LINE_303_">
		<line class="st0" x1="734" y1="292.5" x2="743" y2="292.5"/>
	</g>
	<g id="LINE_304_">
		<line class="st0" x1="734" y1="179.1" x2="743" y2="179.1"/>
	</g>
	<g id="LINE_305_">
		<line class="st0" x1="734" y1="179.1" x2="734" y2="139.5"/>
	</g>
	<g id="LINE_306_">
		<line class="st0" x1="734" y1="139.5" x2="743" y2="139.5"/>
	</g>
	<g id="LINE_307_">
		<line class="st0" x1="743" y1="179.1" x2="743" y2="139.5"/>
	</g>
	<g id="LINE_308_">
		<line class="st0" x1="696.5" y1="282.6" x2="665" y2="282.6"/>
	</g>
	<g id="LINE_309_">
		<line class="st0" x1="696.5" y1="282.6" x2="696.5" y2="676.8"/>
	</g>
	<g id="LINE_310_">
		<line class="st0" x1="696.5" y1="676.8" x2="665" y2="676.8"/>
	</g>
	<g id="LINE_311_">
		<line class="st0" x1="665" y1="282.6" x2="665" y2="676.8"/>
	</g>
	<g id="LINE_312_">
		<line class="st0" x1="734" y1="336.6" x2="716" y2="336.6"/>
	</g>
	<g id="LINE_313_">
		<line class="st0" x1="734" y1="336.6" x2="734" y2="345.6"/>
	</g>
	<g id="LINE_314_">
		<line class="st0" x1="734" y1="345.6" x2="716" y2="345.6"/>
	</g>
	<g id="LINE_315_">
		<line class="st0" x1="716" y1="336.6" x2="716" y2="345.6"/>
	</g>
	<g id="LINE_316_">
		<line class="st0" x1="279" y1="568.8" x2="279" y2="595.8"/>
	</g>
	<g id="LINE_317_">
		<line class="st0" x1="333" y1="568.8" x2="279" y2="568.8"/>
	</g>
	<g id="LINE_318_">
		<line class="st0" x1="333" y1="568.8" x2="333" y2="595.8"/>
	</g>
	<g id="LINE_319_">
		<line class="st0" x1="333" y1="595.8" x2="279" y2="595.8"/>
	</g>
	<g id="LINE_320_">
		<line class="st0" x1="533.1" y1="424.8" x2="542.1" y2="424.8"/>
	</g>
	<g id="LINE_321_">
		<line class="st0" x1="542.1" y1="460.8" x2="542.1" y2="424.8"/>
	</g>
	<g id="LINE_322_">
		<line class="st0" x1="542.1" y1="460.8" x2="533.1" y2="460.8"/>
	</g>
	<g id="LINE_323_">
		<line class="st0" x1="533.1" y1="460.8" x2="533.1" y2="424.8"/>
	</g>
	<g id="LINE_324_">
		<line class="st0" x1="25.5" y1="568.8" x2="34.5" y2="568.8"/>
	</g>
	<g id="LINE_325_">
		<line class="st0" x1="34.5" y1="604.8" x2="34.5" y2="568.8"/>
	</g>
	<g id="LINE_326_">
		<line class="st0" x1="34.5" y1="604.8" x2="25.5" y2="604.8"/>
	</g>
	<g id="LINE_327_">
		<line class="st0" x1="25.5" y1="604.8" x2="25.5" y2="568.8"/>
	</g>
	<g id="LINE_328_">
		<line class="st0" x1="25.5" y1="496.8" x2="34.5" y2="496.8"/>
	</g>
	<g id="LINE_329_">
		<line class="st0" x1="34.5" y1="532.8" x2="34.5" y2="496.8"/>
	</g>
	<g id="LINE_330_">
		<line class="st0" x1="34.5" y1="532.8" x2="25.5" y2="532.8"/>
	</g>
	<g id="LINE_331_">
		<line class="st0" x1="25.5" y1="532.8" x2="25.5" y2="496.8"/>
	</g>
	<g id="LINE_332_">
		<line class="st0" x1="25.5" y1="424.8" x2="34.5" y2="424.8"/>
	</g>
	<g id="LINE_333_">
		<line class="st0" x1="34.5" y1="460.8" x2="34.5" y2="424.8"/>
	</g>
	<g id="LINE_334_">
		<line class="st0" x1="34.5" y1="460.8" x2="25.5" y2="460.8"/>
	</g>
	<g id="LINE_335_">
		<line class="st0" x1="25.5" y1="460.8" x2="25.5" y2="424.8"/>
	</g>
</g>
</svg>
