<?xml version="1.0" encoding="utf-8"?>
<!-- Generator: Adobe Illustrator 22.1.0, SVG Export Plug-In . SVG Version: 6.00 Build 0)  -->
<svg version="1.1" id="Layer_1" xmlns="http://www.w3.org/2000/svg" xmlns:xlink="http://www.w3.org/1999/xlink" x="0px" y="0px"
	 width="612px" height="792px" viewBox="0 0 612 792" style="enable-background:new 0 0 612 792;" xml:space="preserve">
<style type="text/css">
	.st0{fill:none;stroke:#000000;stroke-width:1.1339;stroke-linecap:round;stroke-linejoin:round;stroke-miterlimit:10;}
</style>
<g>
	<g id="LINE">
		<line class="st0" x1="577.5" y1="702.6" x2="577.5" y2="717.6"/>
	</g>
	<g id="LINE_1_">
		<line class="st0" x1="577.5" y1="702.6" x2="586.5" y2="702.6"/>
	</g>
	<g id="LINE_2_">
		<line class="st0" x1="586.5" y1="702.6" x2="586.5" y2="717.6"/>
	</g>
	<g id="LINE_3_">
		<line class="st0" x1="577.5" y1="717.6" x2="586.5" y2="717.6"/>
	</g>
	<g id="LINE_4_">
		<line class="st0" x1="69.9" y1="702.6" x2="69.9" y2="717.6"/>
	</g>
	<g id="LINE_5_">
		<line class="st0" x1="69.9" y1="702.6" x2="78.9" y2="702.6"/>
	</g>
	<g id="LINE_6_">
		<line class="st0" x1="78.9" y1="702.6" x2="78.9" y2="717.6"/>
	</g>
	<g id="LINE_7_">
		<line class="st0" x1="69.9" y1="717.6" x2="78.9" y2="717.6"/>
	</g>
	<g id="LINE_8_">
		<line class="st0" x1="234.4" y1="576" x2="243.4" y2="576"/>
	</g>
	<g id="LINE_9_">
		<line class="st0" x1="234.4" y1="576" x2="234.4" y2="540"/>
	</g>
	<g id="LINE_10_">
		<line class="st0" x1="234.4" y1="540" x2="243.4" y2="540"/>
	</g>
	<g id="LINE_11_">
		<line class="st0" x1="243.4" y1="576" x2="243.4" y2="540"/>
	</g>
	<g id="LINE_12_">
		<line class="st0" x1="484.2" y1="576" x2="493.2" y2="576"/>
	</g>
	<g id="LINE_13_">
		<line class="st0" x1="484.2" y1="576" x2="484.2" y2="540"/>
	</g>
	<g id="LINE_14_">
		<line class="st0" x1="484.2" y1="540" x2="493.2" y2="540"/>
	</g>
	<g id="LINE_15_">
		<line class="st0" x1="493.2" y1="576" x2="493.2" y2="540"/>
	</g>
	<g id="LINE_16_">
		<line class="st0" x1="484.2" y1="486" x2="493.2" y2="486"/>
	</g>
	<g id="LINE_17_">
		<line class="st0" x1="484.2" y1="486" x2="484.2" y2="450"/>
	</g>
	<g id="LINE_18_">
		<line class="st0" x1="484.2" y1="450" x2="493.2" y2="450"/>
	</g>
	<g id="LINE_19_">
		<line class="st0" x1="493.2" y1="486" x2="493.2" y2="450"/>
	</g>
	<g id="LINE_20_">
		<line class="st0" x1="484.2" y1="396" x2="493.2" y2="396"/>
	</g>
	<g id="LINE_21_">
		<line class="st0" x1="484.2" y1="396" x2="484.2" y2="360"/>
	</g>
	<g id="LINE_22_">
		<line class="st0" x1="484.2" y1="360" x2="493.2" y2="360"/>
	</g>
	<g id="LINE_23_">
		<line class="st0" x1="493.2" y1="396" x2="493.2" y2="360"/>
	</g>
	<g id="LINE_24_">
		<line class="st0" x1="484.2" y1="306" x2="493.2" y2="306"/>
	</g>
	<g id="LINE_25_">
		<line class="st0" x1="484.2" y1="306" x2="484.2" y2="270"/>
	</g>
	<g id="LINE_26_">
		<line class="st0" x1="484.2" y1="270" x2="493.2" y2="270"/>
	</g>
	<g id="LINE_27_">
		<line class="st0" x1="493.2" y1="306" x2="493.2" y2="270"/>
	</g>
	<g id="LINE_28_">
		<line class="st0" x1="734" y1="306" x2="743" y2="306"/>
	</g>
	<g id="LINE_29_">
		<line class="st0" x1="734" y1="306" x2="734" y2="270"/>
	</g>
	<g id="LINE_30_">
		<line class="st0" x1="734" y1="270" x2="743" y2="270"/>
	</g>
	<g id="LINE_31_">
		<line class="st0" x1="743" y1="306" x2="743" y2="270"/>
	</g>
	<g id="LINE_32_">
		<line class="st0" x1="734" y1="576" x2="743" y2="576"/>
	</g>
	<g id="LINE_33_">
		<line class="st0" x1="734" y1="576" x2="734" y2="540"/>
	</g>
	<g id="LINE_34_">
		<line class="st0" x1="734" y1="540" x2="743" y2="540"/>
	</g>
	<g id="LINE_35_">
		<line class="st0" x1="743" y1="576" x2="743" y2="540"/>
	</g>
	<g id="LINE_36_">
		<line class="st0" x1="734" y1="396" x2="743" y2="396"/>
	</g>
	<g id="LINE_37_">
		<line class="st0" x1="734" y1="396" x2="734" y2="360"/>
	</g>
	<g id="LINE_38_">
		<line class="st0" x1="734" y1="360" x2="743" y2="360"/>
	</g>
	<g id="LINE_39_">
		<line class="st0" x1="743" y1="396" x2="743" y2="360"/>
	</g>
	<g id="LINE_40_">
		<line class="st0" x1="-15.5" y1="306" x2="-6.5" y2="306"/>
	</g>
	<g id="LINE_41_">
		<line class="st0" x1="-15.5" y1="306" x2="-15.5" y2="270"/>
	</g>
	<g id="LINE_42_">
		<line class="st0" x1="-15.5" y1="270" x2="-6.5" y2="270"/>
	</g>
	<g id="LINE_43_">
		<line class="st0" x1="-6.5" y1="306" x2="-6.5" y2="270"/>
	</g>
	<g id="LINE_44_">
		<line class="st0" x1="-15.5" y1="396" x2="-6.5" y2="396"/>
	</g>
	<g id="LINE_45_">
		<line class="st0" x1="-15.5" y1="396" x2="-15.5" y2="360"/>
	</g>
	<g id="LINE_46_">
		<line class="st0" x1="-15.5" y1="360" x2="-6.5" y2="360"/>
	</g>
	<g id="LINE_47_">
		<line class="st0" x1="-6.5" y1="396" x2="-6.5" y2="360"/>
	</g>
	<g id="LINE_48_">
		<line class="st0" x1="-15.5" y1="486" x2="-6.5" y2="486"/>
	</g>
	<g id="LINE_49_">
		<line class="st0" x1="-15.5" y1="486" x2="-15.5" y2="450"/>
	</g>
	<g id="LINE_50_">
		<line class="st0" x1="-15.5" y1="450" x2="-6.5" y2="450"/>
	</g>
	<g id="LINE_51_">
		<line class="st0" x1="-6.5" y1="486" x2="-6.5" y2="450"/>
	</g>
	<g id="LINE_52_">
		<line class="st0" x1="234.4" y1="486" x2="243.4" y2="486"/>
	</g>
	<g id="LINE_53_">
		<line class="st0" x1="234.4" y1="486" x2="234.4" y2="450"/>
	</g>
	<g id="LINE_54_">
		<line class="st0" x1="234.4" y1="450" x2="243.4" y2="450"/>
	</g>
	<g id="LINE_55_">
		<line class="st0" x1="243.4" y1="486" x2="243.4" y2="450"/>
	</g>
	<g id="LINE_56_">
		<line class="st0" x1="234.4" y1="396" x2="243.4" y2="396"/>
	</g>
	<g id="LINE_57_">
		<line class="st0" x1="234.4" y1="396" x2="234.4" y2="360"/>
	</g>
	<g id="LINE_58_">
		<line class="st0" x1="234.4" y1="360" x2="243.4" y2="360"/>
	</g>
	<g id="LINE_59_">
		<line class="st0" x1="243.4" y1="396" x2="243.4" y2="360"/>
	</g>
	<g id="LINE_60_">
		<line class="st0" x1="234.4" y1="306" x2="243.4" y2="306"/>
	</g>
	<g id="LINE_61_">
		<line class="st0" x1="234.4" y1="306" x2="234.4" y2="270"/>
	</g>
	<g id="LINE_62_">
		<line class="st0" x1="234.4" y1="270" x2="243.4" y2="270"/>
	</g>
	<g id="LINE_63_">
		<line class="st0" x1="243.4" y1="306" x2="243.4" y2="270"/>
	</g>
	<g id="LINE_64_">
		<line class="st0" x1="-15.5" y1="576" x2="-6.5" y2="576"/>
	</g>
	<g id="LINE_65_">
		<line class="st0" x1="-15.5" y1="576" x2="-15.5" y2="540"/>
	</g>
	<g id="LINE_66_">
		<line class="st0" x1="-15.5" y1="540" x2="-6.5" y2="540"/>
	</g>
	<g id="LINE_67_">
		<line class="st0" x1="-6.5" y1="576" x2="-6.5" y2="540"/>
	</g>
	<g id="LINE_68_">
		<line class="st0" x1="734" y1="486" x2="743" y2="486"/>
	</g>
	<g id="LINE_69_">
		<line class="st0" x1="734" y1="486" x2="734" y2="450"/>
	</g>
	<g id="LINE_70_">
		<line class="st0" x1="734" y1="450" x2="743" y2="450"/>
	</g>
	<g id="LINE_71_">
		<line class="st0" x1="743" y1="486" x2="743" y2="450"/>
	</g>
	<g id="LINE_72_">
		<line class="st0" x1="261.1" y1="107.9" x2="297.1" y2="107.9"/>
	</g>
	<g id="LINE_73_">
		<line class="st0" x1="261.1" y1="107.9" x2="261.1" y2="98.9"/>
	</g>
	<g id="LINE_74_">
		<line class="st0" x1="261.1" y1="98.9" x2="297.1" y2="98.9"/>
	</g>
	<g id="LINE_75_">
		<line class="st0" x1="297.1" y1="107.9" x2="297.1" y2="98.9"/>
	</g>
	<g id="LINE_76_">
		<line class="st0" x1="832.3" y1="107.9" x2="868.3" y2="107.9"/>
	</g>
	<g id="LINE_77_">
		<line class="st0" x1="832.3" y1="107.9" x2="832.3" y2="98.9"/>
	</g>
	<g id="LINE_78_">
		<line class="st0" x1="832.3" y1="98.9" x2="868.3" y2="98.9"/>
	</g>
	<g id="LINE_79_">
		<line class="st0" x1="868.3" y1="107.9" x2="868.3" y2="98.9"/>
	</g>
	<g id="LINE_80_">
		<line class="st0" x1="511" y1="107.9" x2="547" y2="107.9"/>
	</g>
	<g id="LINE_81_">
		<line class="st0" x1="511" y1="107.9" x2="511" y2="98.9"/>
	</g>
	<g id="LINE_82_">
		<line class="st0" x1="511" y1="98.9" x2="547" y2="98.9"/>
	</g>
	<g id="LINE_83_">
		<line class="st0" x1="547" y1="107.9" x2="547" y2="98.9"/>
	</g>
	<g id="LINE_84_">
		<line class="st0" x1="564.7" y1="107.9" x2="600.7" y2="107.9"/>
	</g>
	<g id="LINE_85_">
		<line class="st0" x1="564.7" y1="107.9" x2="564.7" y2="98.9"/>
	</g>
	<g id="LINE_86_">
		<line class="st0" x1="564.7" y1="98.9" x2="600.7" y2="98.9"/>
	</g>
	<g id="LINE_87_">
		<line class="st0" x1="600.7" y1="107.9" x2="600.7" y2="98.9"/>
	</g>
	<g id="LINE_88_">
		<line class="st0" x1="11.3" y1="107.9" x2="47.3" y2="107.9"/>
	</g>
	<g id="LINE_89_">
		<line class="st0" x1="11.3" y1="107.9" x2="11.3" y2="98.9"/>
	</g>
	<g id="LINE_90_">
		<line class="st0" x1="11.3" y1="98.9" x2="47.3" y2="98.9"/>
	</g>
	<g id="LINE_91_">
		<line class="st0" x1="47.3" y1="107.9" x2="47.3" y2="98.9"/>
	</g>
	<g id="LINE_92_">
		<line class="st0" x1="-256.3" y1="107.9" x2="-220.3" y2="107.9"/>
	</g>
	<g id="LINE_93_">
		<line class="st0" x1="-256.3" y1="107.9" x2="-256.3" y2="98.9"/>
	</g>
	<g id="LINE_94_">
		<line class="st0" x1="-256.3" y1="98.9" x2="-220.3" y2="98.9"/>
	</g>
	<g id="LINE_95_">
		<line class="st0" x1="-220.3" y1="107.9" x2="-220.3" y2="98.9"/>
	</g>
	<g id="LINE_96_">
		<line class="st0" x1="-193.7" y1="107.9" x2="-157.7" y2="107.9"/>
	</g>
	<g id="LINE_97_">
		<line class="st0" x1="-193.7" y1="107.9" x2="-193.7" y2="98.9"/>
	</g>
	<g id="LINE_98_">
		<line class="st0" x1="-193.7" y1="98.9" x2="-157.7" y2="98.9"/>
	</g>
	<g id="LINE_99_">
		<line class="st0" x1="-157.7" y1="107.9" x2="-157.7" y2="98.9"/>
	</g>
	<g id="LINE_100_">
		<line class="st0" x1="65" y1="107.9" x2="101" y2="107.9"/>
	</g>
	<g id="LINE_101_">
		<line class="st0" x1="65" y1="107.9" x2="65" y2="98.9"/>
	</g>
	<g id="LINE_102_">
		<line class="st0" x1="65" y1="98.9" x2="101" y2="98.9"/>
	</g>
	<g id="LINE_103_">
		<line class="st0" x1="101" y1="107.9" x2="101" y2="98.9"/>
	</g>
	<g id="LINE_104_">
		<line class="st0" x1="314.9" y1="107.9" x2="350.9" y2="107.9"/>
	</g>
	<g id="LINE_105_">
		<line class="st0" x1="314.9" y1="107.9" x2="314.9" y2="98.9"/>
	</g>
	<g id="LINE_106_">
		<line class="st0" x1="314.9" y1="98.9" x2="350.9" y2="98.9"/>
	</g>
	<g id="LINE_107_">
		<line class="st0" x1="350.9" y1="107.9" x2="350.9" y2="98.9"/>
	</g>
	<g id="LINE_108_">
		<line class="st0" x1="769.7" y1="107.9" x2="805.7" y2="107.9"/>
	</g>
	<g id="LINE_109_">
		<line class="st0" x1="769.7" y1="107.9" x2="769.7" y2="98.9"/>
	</g>
	<g id="LINE_110_">
		<line class="st0" x1="769.7" y1="98.9" x2="805.7" y2="98.9"/>
	</g>
	<g id="LINE_111_">
		<line class="st0" x1="805.7" y1="107.9" x2="805.7" y2="98.9"/>
	</g>
	<g id="LINE_112_">
		<line class="st0" x1="734" y1="666" x2="734" y2="630"/>
	</g>
	<g id="LINE_113_">
		<line class="st0" x1="734" y1="630" x2="743" y2="630"/>
	</g>
	<g id="LINE_114_">
		<line class="st0" x1="743" y1="666" x2="743" y2="630"/>
	</g>
	<g id="LINE_115_">
		<line class="st0" x1="734" y1="666" x2="743" y2="666"/>
	</g>
	<g id="LINE_116_">
		<line class="st0" x1="484.2" y1="666" x2="484.2" y2="630"/>
	</g>
	<g id="LINE_117_">
		<line class="st0" x1="484.2" y1="630" x2="493.2" y2="630"/>
	</g>
	<g id="LINE_118_">
		<line class="st0" x1="493.2" y1="666" x2="493.2" y2="630"/>
	</g>
	<g id="LINE_119_">
		<line class="st0" x1="484.2" y1="666" x2="493.2" y2="666"/>
	</g>
	<g id="LINE_120_">
		<line class="st0" x1="234.4" y1="666" x2="234.4" y2="630"/>
	</g>
	<g id="LINE_121_">
		<line class="st0" x1="234.4" y1="630" x2="243.4" y2="630"/>
	</g>
	<g id="LINE_122_">
		<line class="st0" x1="243.4" y1="666" x2="243.4" y2="630"/>
	</g>
	<g id="LINE_123_">
		<line class="st0" x1="234.4" y1="666" x2="243.4" y2="666"/>
	</g>
	<g id="LINE_124_">
		<line class="st0" x1="-15.5" y1="666" x2="-15.5" y2="630"/>
	</g>
	<g id="LINE_125_">
		<line class="st0" x1="-15.5" y1="630" x2="-6.5" y2="630"/>
	</g>
	<g id="LINE_126_">
		<line class="st0" x1="-6.5" y1="666" x2="-6.5" y2="630"/>
	</g>
	<g id="LINE_127_">
		<line class="st0" x1="-15.5" y1="666" x2="-6.5" y2="666"/>
	</g>
	<g id="LINE_128_">
		<line class="st0" x1="695.5" y1="161.2" x2="731.5" y2="161.2"/>
	</g>
	<g id="LINE_129_">
		<line class="st0" x1="695.5" y1="143.9" x2="695.5" y2="161.2"/>
	</g>
	<g id="LINE_130_">
		<line class="st0" x1="695.5" y1="143.9" x2="731.5" y2="143.9"/>
	</g>
	<g id="LINE_131_">
		<line class="st0" x1="731.5" y1="143.9" x2="731.5" y2="161.2"/>
	</g>
	<g id="LINE_132_">
		<line class="st0" x1="630" y1="161.2" x2="666" y2="161.2"/>
	</g>
	<g id="LINE_133_">
		<line class="st0" x1="630" y1="143.9" x2="630" y2="161.2"/>
	</g>
	<g id="LINE_134_">
		<line class="st0" x1="630" y1="143.9" x2="666" y2="143.9"/>
	</g>
	<g id="LINE_135_">
		<line class="st0" x1="666" y1="143.9" x2="666" y2="161.2"/>
	</g>
	<g id="LINE_136_">
		<line class="st0" x1="445.7" y1="161.2" x2="481.7" y2="161.2"/>
	</g>
	<g id="LINE_137_">
		<line class="st0" x1="445.7" y1="143.9" x2="445.7" y2="161.2"/>
	</g>
	<g id="LINE_138_">
		<line class="st0" x1="445.7" y1="143.9" x2="481.7" y2="143.9"/>
	</g>
	<g id="LINE_139_">
		<line class="st0" x1="481.7" y1="143.9" x2="481.7" y2="161.2"/>
	</g>
	<g id="LINE_140_">
		<line class="st0" x1="380.2" y1="161.2" x2="416.2" y2="161.2"/>
	</g>
	<g id="LINE_141_">
		<line class="st0" x1="380.2" y1="143.9" x2="380.2" y2="161.2"/>
	</g>
	<g id="LINE_142_">
		<line class="st0" x1="380.2" y1="143.9" x2="416.2" y2="143.9"/>
	</g>
	<g id="LINE_143_">
		<line class="st0" x1="416.2" y1="143.9" x2="416.2" y2="161.2"/>
	</g>
	<g id="LINE_144_">
		<line class="st0" x1="195.8" y1="161.2" x2="231.8" y2="161.2"/>
	</g>
	<g id="LINE_145_">
		<line class="st0" x1="195.8" y1="143.9" x2="195.8" y2="161.2"/>
	</g>
	<g id="LINE_146_">
		<line class="st0" x1="195.8" y1="143.9" x2="231.8" y2="143.9"/>
	</g>
	<g id="LINE_147_">
		<line class="st0" x1="231.8" y1="143.9" x2="231.8" y2="161.2"/>
	</g>
	<g id="LINE_148_">
		<line class="st0" x1="130.3" y1="161.2" x2="166.3" y2="161.2"/>
	</g>
	<g id="LINE_149_">
		<line class="st0" x1="130.3" y1="143.9" x2="130.3" y2="161.2"/>
	</g>
	<g id="LINE_150_">
		<line class="st0" x1="130.3" y1="143.9" x2="166.3" y2="143.9"/>
	</g>
	<g id="LINE_151_">
		<line class="st0" x1="166.3" y1="143.9" x2="166.3" y2="161.2"/>
	</g>
	<g id="LINE_152_">
		<line class="st0" x1="-54" y1="161.2" x2="-18" y2="161.2"/>
	</g>
	<g id="LINE_153_">
		<line class="st0" x1="-54" y1="143.9" x2="-54" y2="161.2"/>
	</g>
	<g id="LINE_154_">
		<line class="st0" x1="-54" y1="143.9" x2="-18" y2="143.9"/>
	</g>
	<g id="LINE_155_">
		<line class="st0" x1="-18" y1="143.9" x2="-18" y2="161.2"/>
	</g>
	<g id="LINE_156_">
		<line class="st0" x1="-119.5" y1="161.2" x2="-83.5" y2="161.2"/>
	</g>
	<g id="LINE_157_">
		<line class="st0" x1="-119.5" y1="143.9" x2="-119.5" y2="161.2"/>
	</g>
	<g id="LINE_158_">
		<line class="st0" x1="-119.5" y1="143.9" x2="-83.5" y2="143.9"/>
	</g>
	<g id="LINE_159_">
		<line class="st0" x1="-83.5" y1="143.9" x2="-83.5" y2="161.2"/>
	</g>
	<g id="LINE_160_">
		<line class="st0" x1="877" y1="186.3" x2="877" y2="150.3"/>
	</g>
	<g id="LINE_161_">
		<line class="st0" x1="877" y1="186.3" x2="868" y2="186.3"/>
	</g>
	<g id="LINE_162_">
		<line class="st0" x1="868" y1="186.3" x2="868" y2="150.3"/>
	</g>
	<g id="LINE_163_">
		<line class="st0" x1="877" y1="150.3" x2="868" y2="150.3"/>
	</g>
	<g id="LINE_164_">
		<line class="st0" x1="877" y1="276.3" x2="877" y2="240.3"/>
	</g>
	<g id="LINE_165_">
		<line class="st0" x1="877" y1="276.3" x2="868" y2="276.3"/>
	</g>
	<g id="LINE_166_">
		<line class="st0" x1="868" y1="276.3" x2="868" y2="240.3"/>
	</g>
	<g id="LINE_167_">
		<line class="st0" x1="877" y1="240.3" x2="868" y2="240.3"/>
	</g>
	<g id="LINE_168_">
		<line class="st0" x1="877" y1="366.3" x2="877" y2="330.3"/>
	</g>
	<g id="LINE_169_">
		<line class="st0" x1="877" y1="366.3" x2="868" y2="366.3"/>
	</g>
	<g id="LINE_170_">
		<line class="st0" x1="868" y1="366.3" x2="868" y2="330.3"/>
	</g>
	<g id="LINE_171_">
		<line class="st0" x1="877" y1="330.3" x2="868" y2="330.3"/>
	</g>
	<g id="LINE_172_">
		<line class="st0" x1="877" y1="456.3" x2="877" y2="420.3"/>
	</g>
	<g id="LINE_173_">
		<line class="st0" x1="877" y1="456.3" x2="868" y2="456.3"/>
	</g>
	<g id="LINE_174_">
		<line class="st0" x1="868" y1="456.3" x2="868" y2="420.3"/>
	</g>
	<g id="LINE_175_">
		<line class="st0" x1="877" y1="420.3" x2="868" y2="420.3"/>
	</g>
	<g id="LINE_176_">
		<line class="st0" x1="877" y1="546.3" x2="877" y2="510.3"/>
	</g>
	<g id="LINE_177_">
		<line class="st0" x1="877" y1="546.3" x2="868" y2="546.3"/>
	</g>
	<g id="LINE_178_">
		<line class="st0" x1="868" y1="546.3" x2="868" y2="510.3"/>
	</g>
	<g id="LINE_179_">
		<line class="st0" x1="877" y1="510.3" x2="868" y2="510.3"/>
	</g>
	<g id="LINE_180_">
		<line class="st0" x1="877" y1="636.3" x2="877" y2="600.3"/>
	</g>
	<g id="LINE_181_">
		<line class="st0" x1="877" y1="636.3" x2="868" y2="636.3"/>
	</g>
	<g id="LINE_182_">
		<line class="st0" x1="868" y1="636.3" x2="868" y2="600.3"/>
	</g>
	<g id="LINE_183_">
		<line class="st0" x1="877" y1="600.3" x2="868" y2="600.3"/>
	</g>
	<g id="LINE_184_">
		<line class="st0" x1="-265" y1="546.3" x2="-265" y2="510.3"/>
	</g>
	<g id="LINE_185_">
		<line class="st0" x1="-265" y1="510.3" x2="-256" y2="510.3"/>
	</g>
	<g id="LINE_186_">
		<line class="st0" x1="-256" y1="546.3" x2="-256" y2="510.3"/>
	</g>
	<g id="LINE_187_">
		<line class="st0" x1="-265" y1="546.3" x2="-256" y2="546.3"/>
	</g>
	<g id="LINE_188_">
		<line class="st0" x1="-265" y1="456.3" x2="-265" y2="420.3"/>
	</g>
	<g id="LINE_189_">
		<line class="st0" x1="-265" y1="420.3" x2="-256" y2="420.3"/>
	</g>
	<g id="LINE_190_">
		<line class="st0" x1="-256" y1="456.3" x2="-256" y2="420.3"/>
	</g>
	<g id="LINE_191_">
		<line class="st0" x1="-265" y1="456.3" x2="-256" y2="456.3"/>
	</g>
	<g id="LINE_192_">
		<line class="st0" x1="-265" y1="276.3" x2="-265" y2="240.3"/>
	</g>
	<g id="LINE_193_">
		<line class="st0" x1="-265" y1="240.3" x2="-256" y2="240.3"/>
	</g>
	<g id="LINE_194_">
		<line class="st0" x1="-256" y1="276.3" x2="-256" y2="240.3"/>
	</g>
	<g id="LINE_195_">
		<line class="st0" x1="-265" y1="276.3" x2="-256" y2="276.3"/>
	</g>
	<g id="LINE_196_">
		<line class="st0" x1="-265" y1="186.3" x2="-265" y2="150.3"/>
	</g>
	<g id="LINE_197_">
		<line class="st0" x1="-265" y1="150.3" x2="-256" y2="150.3"/>
	</g>
	<g id="LINE_198_">
		<line class="st0" x1="-256" y1="186.3" x2="-256" y2="150.3"/>
	</g>
	<g id="LINE_199_">
		<line class="st0" x1="-265" y1="186.3" x2="-256" y2="186.3"/>
	</g>
	<g id="LINE_200_">
		<line class="st0" x1="-265" y1="366.3" x2="-265" y2="330.3"/>
	</g>
	<g id="LINE_201_">
		<line class="st0" x1="-265" y1="330.3" x2="-256" y2="330.3"/>
	</g>
	<g id="LINE_202_">
		<line class="st0" x1="-256" y1="366.3" x2="-256" y2="330.3"/>
	</g>
	<g id="LINE_203_">
		<line class="st0" x1="-265" y1="366.3" x2="-256" y2="366.3"/>
	</g>
	<g id="LINE_204_">
		<line class="st0" x1="-265" y1="636.3" x2="-265" y2="600.3"/>
	</g>
	<g id="LINE_205_">
		<line class="st0" x1="-265" y1="600.3" x2="-256" y2="600.3"/>
	</g>
	<g id="LINE_206_">
		<line class="st0" x1="-256" y1="636.3" x2="-256" y2="600.3"/>
	</g>
	<g id="LINE_207_">
		<line class="st0" x1="-265" y1="636.3" x2="-256" y2="636.3"/>
	</g>
	<g id="LINE_208_">
		<line class="st0" x1="595.5" y1="705.6" x2="880.6" y2="705.6"/>
	</g>
	<g id="ARC">
		<path class="st0" d="M880.6,705.6c8,0,14.4-6.4,14.4-14.4"/>
	</g>
	<g id="LINE_209_">
		<line class="st0" x1="895" y1="691.2" x2="895" y2="73.8"/>
	</g>
	<g id="ARC_1_">
		<path class="st0" d="M895,73.8c0-8-6.4-14.4-14.4-14.4"/>
	</g>
	<g id="LINE_210_">
		<line class="st0" x1="880.6" y1="59.4" x2="-268.6" y2="59.4"/>
	</g>
	<g id="ARC_2_">
		<path class="st0" d="M-268.6,59.4c-8,0-14.4,6.4-14.4,14.4"/>
	</g>
	<g id="LINE_211_">
		<line class="st0" x1="-283" y1="691.2" x2="-283" y2="73.8"/>
	</g>
	<g id="ARC_3_">
		<path class="st0" d="M-283,691.2c0,8,6.4,14.4,14.4,14.4"/>
	</g>
	<g id="LINE_212_">
		<line class="st0" x1="-268.6" y1="705.6" x2="60.9" y2="705.6"/>
	</g>
	<g id="LINE_213_">
		<line class="st0" x1="60.9" y1="705.6" x2="60.9" y2="732.6"/>
	</g>
	<g id="LINE_214_">
		<line class="st0" x1="60.9" y1="732.6" x2="172.1" y2="732.6"/>
	</g>
	<g id="ARC_4_">
		<path class="st0" d="M172.1,732.6c4,0,7.2-3.2,7.2-7.2c0-1.3-0.3-2.5-1-3.6"/>
	</g>
	<g id="LINE_215_">
		<line class="st0" x1="172.1" y1="711" x2="178.3" y2="721.8"/>
	</g>
	<g id="ARC_5_">
		<path class="st0" d="M175.2,705.6c-2,0-3.6,1.6-3.6,3.6c0,0.6,0.2,1.3,0.5,1.8"/>
	</g>
	<g id="LINE_216_">
		<line class="st0" x1="229.2" y1="705.6" x2="175.2" y2="705.6"/>
	</g>
	<g id="ARC_6_">
		<path class="st0" d="M232.3,711c1-1.7,0.4-3.9-1.3-4.9c-0.5-0.3-1.2-0.5-1.8-0.5"/>
	</g>
	<g id="LINE_217_">
		<line class="st0" x1="226.1" y1="721.8" x2="232.3" y2="711"/>
	</g>
	<g id="ARC_7_">
		<path class="st0" d="M226.1,721.8c-2,3.4-0.8,7.8,2.6,9.8c1.1,0.6,2.3,1,3.6,1"/>
	</g>
	<g id="LINE_218_">
		<line class="st0" x1="232.3" y1="732.6" x2="298.1" y2="732.6"/>
	</g>
	<g id="ARC_8_">
		<path class="st0" d="M298.1,732.6c4,0,7.2-3.2,7.2-7.2c0-1.3-0.3-2.5-1-3.6"/>
	</g>
	<g id="LINE_219_">
		<line class="st0" x1="298.1" y1="711" x2="304.3" y2="721.8"/>
	</g>
	<g id="ARC_9_">
		<path class="st0" d="M301.2,705.6c-2,0-3.6,1.6-3.6,3.6c0,0.6,0.2,1.3,0.5,1.8"/>
	</g>
	<g id="LINE_220_">
		<line class="st0" x1="355.2" y1="705.6" x2="301.2" y2="705.6"/>
	</g>
	<g id="ARC_10_">
		<path class="st0" d="M358.3,711c1-1.7,0.4-3.9-1.3-4.9c-0.5-0.3-1.2-0.5-1.8-0.5"/>
	</g>
	<g id="LINE_221_">
		<line class="st0" x1="352.1" y1="721.8" x2="358.3" y2="711"/>
	</g>
	<g id="ARC_11_">
		<path class="st0" d="M352.1,721.8c-2,3.4-0.8,7.8,2.6,9.8c1.1,0.6,2.3,1,3.6,1"/>
	</g>
	<g id="LINE_222_">
		<line class="st0" x1="358.3" y1="732.6" x2="424.1" y2="732.6"/>
	</g>
	<g id="ARC_12_">
		<path class="st0" d="M424.1,732.6c4,0,7.2-3.2,7.2-7.2c0-1.3-0.3-2.5-1-3.6"/>
	</g>
	<g id="LINE_223_">
		<line class="st0" x1="424.1" y1="711" x2="430.3" y2="721.8"/>
	</g>
	<g id="ARC_13_">
		<path class="st0" d="M427.2,705.6c-2,0-3.6,1.6-3.6,3.6c0,0.6,0.2,1.3,0.5,1.8"/>
	</g>
	<g id="LINE_224_">
		<line class="st0" x1="481.2" y1="705.6" x2="427.2" y2="705.6"/>
	</g>
	<g id="ARC_14_">
		<path class="st0" d="M484.3,711c1-1.7,0.4-3.9-1.3-4.9c-0.5-0.3-1.2-0.5-1.8-0.5"/>
	</g>
	<g id="LINE_225_">
		<line class="st0" x1="478.1" y1="721.8" x2="484.3" y2="711"/>
	</g>
	<g id="ARC_15_">
		<path class="st0" d="M478.1,721.8c-2,3.4-0.8,7.8,2.6,9.8c1.1,0.6,2.3,1,3.6,1"/>
	</g>
	<g id="LINE_226_">
		<line class="st0" x1="484.3" y1="732.6" x2="595.5" y2="732.6"/>
	</g>
	<g id="LINE_227_">
		<line class="st0" x1="595.5" y1="705.6" x2="595.5" y2="732.6"/>
	</g>
	<g id="LINE_228_">
		<line class="st0" x1="-216" y1="678.6" x2="-252" y2="678.6"/>
	</g>
	<g id="LINE_229_">
		<line class="st0" x1="-216" y1="678.6" x2="-216" y2="687.6"/>
	</g>
	<g id="LINE_230_">
		<line class="st0" x1="-216" y1="687.6" x2="-252" y2="687.6"/>
	</g>
	<g id="LINE_231_">
		<line class="st0" x1="-252" y1="678.6" x2="-252" y2="687.6"/>
	</g>
	<g id="LINE_232_">
		<line class="st0" x1="-108" y1="678.6" x2="-144" y2="678.6"/>
	</g>
	<g id="LINE_233_">
		<line class="st0" x1="-108" y1="678.6" x2="-108" y2="687.6"/>
	</g>
	<g id="LINE_234_">
		<line class="st0" x1="-108" y1="687.6" x2="-144" y2="687.6"/>
	</g>
	<g id="LINE_235_">
		<line class="st0" x1="-144" y1="678.6" x2="-144" y2="687.6"/>
	</g>
	<g id="LINE_236_">
		<line class="st0" x1="0" y1="678.6" x2="-36" y2="678.6"/>
	</g>
	<g id="LINE_237_">
		<line class="st0" x1="0" y1="678.6" x2="0" y2="687.6"/>
	</g>
	<g id="LINE_238_">
		<line class="st0" x1="0" y1="687.6" x2="-36" y2="687.6"/>
	</g>
	<g id="LINE_239_">
		<line class="st0" x1="-36" y1="678.6" x2="-36" y2="687.6"/>
	</g>
	<g id="LINE_240_">
		<line class="st0" x1="108" y1="678.6" x2="72" y2="678.6"/>
	</g>
	<g id="LINE_241_">
		<line class="st0" x1="108" y1="678.6" x2="108" y2="687.6"/>
	</g>
	<g id="LINE_242_">
		<line class="st0" x1="108" y1="687.6" x2="72" y2="687.6"/>
	</g>
	<g id="LINE_243_">
		<line class="st0" x1="72" y1="678.6" x2="72" y2="687.6"/>
	</g>
	<g id="LINE_244_">
		<line class="st0" x1="216" y1="678.6" x2="180" y2="678.6"/>
	</g>
	<g id="LINE_245_">
		<line class="st0" x1="216" y1="678.6" x2="216" y2="687.6"/>
	</g>
	<g id="LINE_246_">
		<line class="st0" x1="216" y1="687.6" x2="180" y2="687.6"/>
	</g>
	<g id="LINE_247_">
		<line class="st0" x1="180" y1="678.6" x2="180" y2="687.6"/>
	</g>
	<g id="LINE_248_">
		<line class="st0" x1="324" y1="678.6" x2="288" y2="678.6"/>
	</g>
	<g id="LINE_249_">
		<line class="st0" x1="324" y1="678.6" x2="324" y2="687.6"/>
	</g>
	<g id="LINE_250_">
		<line class="st0" x1="324" y1="687.6" x2="288" y2="687.6"/>
	</g>
	<g id="LINE_251_">
		<line class="st0" x1="288" y1="678.6" x2="288" y2="687.6"/>
	</g>
	<g id="LINE_252_">
		<line class="st0" x1="432" y1="678.6" x2="396" y2="678.6"/>
	</g>
	<g id="LINE_253_">
		<line class="st0" x1="432" y1="678.6" x2="432" y2="687.6"/>
	</g>
	<g id="LINE_254_">
		<line class="st0" x1="432" y1="687.6" x2="396" y2="687.6"/>
	</g>
	<g id="LINE_255_">
		<line class="st0" x1="396" y1="678.6" x2="396" y2="687.6"/>
	</g>
	<g id="LINE_256_">
		<line class="st0" x1="540" y1="678.6" x2="504" y2="678.6"/>
	</g>
	<g id="LINE_257_">
		<line class="st0" x1="540" y1="678.6" x2="540" y2="687.6"/>
	</g>
	<g id="LINE_258_">
		<line class="st0" x1="540" y1="687.6" x2="504" y2="687.6"/>
	</g>
	<g id="LINE_259_">
		<line class="st0" x1="504" y1="678.6" x2="504" y2="687.6"/>
	</g>
	<g id="LINE_260_">
		<line class="st0" x1="648" y1="678.6" x2="612" y2="678.6"/>
	</g>
	<g id="LINE_261_">
		<line class="st0" x1="648" y1="678.6" x2="648" y2="687.6"/>
	</g>
	<g id="LINE_262_">
		<line class="st0" x1="648" y1="687.6" x2="612" y2="687.6"/>
	</g>
	<g id="LINE_263_">
		<line class="st0" x1="612" y1="678.6" x2="612" y2="687.6"/>
	</g>
	<g id="LINE_264_">
		<line class="st0" x1="756" y1="678.6" x2="720" y2="678.6"/>
	</g>
	<g id="LINE_265_">
		<line class="st0" x1="756" y1="678.6" x2="756" y2="687.6"/>
	</g>
	<g id="LINE_266_">
		<line class="st0" x1="756" y1="687.6" x2="720" y2="687.6"/>
	</g>
	<g id="LINE_267_">
		<line class="st0" x1="720" y1="678.6" x2="720" y2="687.6"/>
	</g>
	<g id="LINE_268_">
		<line class="st0" x1="864" y1="678.6" x2="828" y2="678.6"/>
	</g>
	<g id="LINE_269_">
		<line class="st0" x1="864" y1="678.6" x2="864" y2="687.6"/>
	</g>
	<g id="LINE_270_">
		<line class="st0" x1="864" y1="687.6" x2="828" y2="687.6"/>
	</g>
	<g id="LINE_271_">
		<line class="st0" x1="828" y1="678.6" x2="828" y2="687.6"/>
	</g>
</g>
</svg>
