<?xml version="1.0" encoding="utf-8"?>
<!-- Generator: Adobe Illustrator 22.1.0, SVG Export Plug-In . SVG Version: 6.00 Build 0)  -->
<svg version="1.1" id="Layer_1" xmlns="http://www.w3.org/2000/svg" xmlns:xlink="http://www.w3.org/1999/xlink" x="0px" y="0px"
	 width="612px" height="792px" viewBox="0 0 612 792" style="enable-background:new 0 0 612 792;" xml:space="preserve">
<style type="text/css">
	.st0{fill:none;stroke:#000000;stroke-width:1.1339;stroke-linecap:round;stroke-linejoin:round;stroke-miterlimit:10;}
</style>
<g>
	<g id="CIRCLE">
		<path class="st0" d="M143.6,513.2c0-3.7,3-6.8,6.8-6.8s6.8,3,6.8,6.8s-3,6.8-6.8,6.8S143.6,516.9,143.6,513.2L143.6,513.2z"/>
	</g>
	<g id="CIRCLE_1_">
		<path class="st0" d="M454.9,513.2c0-3.7,3-6.8,6.8-6.8c3.7,0,6.8,3,6.8,6.8s-3,6.8-6.8,6.8C457.9,519.9,454.9,516.9,454.9,513.2
			L454.9,513.2z"/>
	</g>
	<g id="CIRCLE_2_">
		<path class="st0" d="M299.2,382.5c0-3.7,3-6.8,6.8-6.8s6.8,3,6.8,6.8s-3,6.8-6.8,6.8S299.2,386.2,299.2,382.5L299.2,382.5z"/>
	</g>
	<g id="CIRCLE_3_">
		<path class="st0" d="M454.9,251.8c0-3.7,3-6.8,6.8-6.8c3.7,0,6.8,3,6.8,6.8s-3,6.8-6.8,6.8C457.9,258.6,454.9,255.6,454.9,251.8
			L454.9,251.8z"/>
	</g>
	<g id="CIRCLE_4_">
		<path class="st0" d="M143.6,251.8c0-3.7,3-6.8,6.8-6.8s6.8,3,6.8,6.8s-3,6.8-6.8,6.8S143.6,255.6,143.6,251.8L143.6,251.8z"/>
	</g>
	<g id="LINE">
		<line class="st0" x1="717.3" y1="207.9" x2="717.3" y2="323.1"/>
	</g>
	<g id="ARC">
		<path class="st0" d="M717.3,207.9c0-8-6.4-14.4-14.4-14.4"/>
	</g>
	<g id="LINE_1_">
		<line class="st0" x1="-90.9" y1="193.5" x2="702.9" y2="193.5"/>
	</g>
	<g id="ARC_1_">
		<path class="st0" d="M-90.9,193.5c-8,0-14.4,6.4-14.4,14.4"/>
	</g>
	<g id="LINE_2_">
		<line class="st0" x1="-105.3" y1="207.9" x2="-105.3" y2="323.1"/>
	</g>
	<g id="ARC_2_">
		<path class="st0" d="M-105.3,323.1c0,8,6.4,14.4,14.4,14.4"/>
	</g>
	<g id="LINE_3_">
		<line class="st0" x1="2.7" y1="337.5" x2="-90.9" y2="337.5"/>
	</g>
	<g id="ARC_3_">
		<path class="st0" d="M38.7,373.5c0-19.9-16.1-36-36-36"/>
	</g>
	<g id="LINE_4_">
		<line class="st0" x1="38.7" y1="571.5" x2="38.7" y2="373.5"/>
	</g>
	<g id="LINE_5_">
		<line class="st0" x1="38.7" y1="571.5" x2="149.9" y2="571.5"/>
	</g>
	<g id="ARC_4_">
		<path class="st0" d="M156.1,582.3c2-3.4,0.8-7.8-2.6-9.8c-1.1-0.6-2.3-1-3.6-1"/>
	</g>
	<g id="LINE_6_">
		<line class="st0" x1="156.1" y1="582.3" x2="149.9" y2="593.1"/>
	</g>
	<g id="ARC_5_">
		<path class="st0" d="M149.9,593.1c-1,1.7-0.4,3.9,1.3,4.9c0.5,0.3,1.2,0.5,1.8,0.5"/>
	</g>
	<g id="LINE_7_">
		<line class="st0" x1="153" y1="598.5" x2="207" y2="598.5"/>
	</g>
	<g id="ARC_6_">
		<path class="st0" d="M207,598.5c2,0,3.6-1.6,3.6-3.6c0-0.6-0.2-1.3-0.5-1.8"/>
	</g>
	<g id="LINE_8_">
		<line class="st0" x1="210.1" y1="593.1" x2="203.9" y2="582.3"/>
	</g>
	<g id="ARC_7_">
		<path class="st0" d="M210.1,571.5c-4,0-7.2,3.2-7.2,7.2c0,1.3,0.3,2.5,1,3.6"/>
	</g>
	<g id="LINE_9_">
		<line class="st0" x1="210.1" y1="571.5" x2="275.9" y2="571.5"/>
	</g>
	<g id="ARC_8_">
		<path class="st0" d="M282.1,582.3c2-3.4,0.8-7.8-2.6-9.8c-1.1-0.6-2.3-1-3.6-1"/>
	</g>
	<g id="LINE_10_">
		<line class="st0" x1="282.1" y1="582.3" x2="275.9" y2="593.1"/>
	</g>
	<g id="ARC_9_">
		<path class="st0" d="M275.9,593.1c-1,1.7-0.4,3.9,1.3,4.9c0.5,0.3,1.2,0.5,1.8,0.5"/>
	</g>
	<g id="LINE_11_">
		<line class="st0" x1="279" y1="598.5" x2="333" y2="598.5"/>
	</g>
	<g id="ARC_10_">
		<path class="st0" d="M333,598.5c2,0,3.6-1.6,3.6-3.6c0-0.6-0.2-1.3-0.5-1.8"/>
	</g>
	<g id="LINE_12_">
		<line class="st0" x1="336.1" y1="593.1" x2="329.9" y2="582.3"/>
	</g>
	<g id="ARC_11_">
		<path class="st0" d="M336.1,571.5c-4,0-7.2,3.2-7.2,7.2c0,1.3,0.3,2.5,1,3.6"/>
	</g>
	<g id="LINE_13_">
		<line class="st0" x1="336.1" y1="571.5" x2="401.9" y2="571.5"/>
	</g>
	<g id="ARC_12_">
		<path class="st0" d="M408.1,582.3c2-3.4,0.8-7.8-2.6-9.8c-1.1-0.6-2.3-1-3.6-1"/>
	</g>
	<g id="LINE_14_">
		<line class="st0" x1="408.1" y1="582.3" x2="401.9" y2="593.1"/>
	</g>
	<g id="ARC_13_">
		<path class="st0" d="M401.9,593.1c-1,1.7-0.4,3.9,1.3,4.9c0.5,0.3,1.2,0.5,1.8,0.5"/>
	</g>
	<g id="LINE_15_">
		<line class="st0" x1="405" y1="598.5" x2="459" y2="598.5"/>
	</g>
	<g id="ARC_14_">
		<path class="st0" d="M459,598.5c2,0,3.6-1.6,3.6-3.6c0-0.6-0.2-1.3-0.5-1.8"/>
	</g>
	<g id="LINE_16_">
		<line class="st0" x1="462.1" y1="593.1" x2="455.9" y2="582.3"/>
	</g>
	<g id="ARC_15_">
		<path class="st0" d="M462.1,571.5c-4,0-7.2,3.2-7.2,7.2c0,1.3,0.3,2.5,1,3.6"/>
	</g>
	<g id="LINE_17_">
		<line class="st0" x1="462.1" y1="571.5" x2="573.3" y2="571.5"/>
	</g>
	<g id="LINE_18_">
		<line class="st0" x1="573.3" y1="373.5" x2="573.3" y2="571.5"/>
	</g>
	<g id="ARC_16_">
		<path class="st0" d="M609.3,337.5c-19.9,0-36,16.1-36,36"/>
	</g>
	<g id="LINE_19_">
		<line class="st0" x1="609.3" y1="337.5" x2="702.9" y2="337.5"/>
	</g>
	<g id="ARC_17_">
		<path class="st0" d="M702.9,337.5c8,0,14.4-6.4,14.4-14.4"/>
	</g>
	<g id="LINE_20_">
		<line class="st0" x1="564.3" y1="457.2" x2="564.3" y2="421.2"/>
	</g>
	<g id="LINE_21_">
		<line class="st0" x1="564.3" y1="457.2" x2="555.3" y2="457.2"/>
	</g>
	<g id="LINE_22_">
		<line class="st0" x1="555.3" y1="457.2" x2="555.3" y2="421.2"/>
	</g>
	<g id="LINE_23_">
		<line class="st0" x1="564.3" y1="421.2" x2="555.3" y2="421.2"/>
	</g>
	<g id="LINE_24_">
		<line class="st0" x1="564.3" y1="277.2" x2="564.3" y2="241.2"/>
	</g>
	<g id="LINE_25_">
		<line class="st0" x1="564.3" y1="277.2" x2="555.3" y2="277.2"/>
	</g>
	<g id="LINE_26_">
		<line class="st0" x1="555.3" y1="277.2" x2="555.3" y2="241.2"/>
	</g>
	<g id="LINE_27_">
		<line class="st0" x1="564.3" y1="241.2" x2="555.3" y2="241.2"/>
	</g>
	<g id="LINE_28_">
		<line class="st0" x1="564.3" y1="367.2" x2="564.3" y2="331.2"/>
	</g>
	<g id="LINE_29_">
		<line class="st0" x1="564.3" y1="367.2" x2="555.3" y2="367.2"/>
	</g>
	<g id="LINE_30_">
		<line class="st0" x1="555.3" y1="367.2" x2="555.3" y2="331.2"/>
	</g>
	<g id="LINE_31_">
		<line class="st0" x1="564.3" y1="331.2" x2="555.3" y2="331.2"/>
	</g>
	<g id="LINE_32_">
		<line class="st0" x1="564.3" y1="547.2" x2="564.3" y2="511.2"/>
	</g>
	<g id="LINE_33_">
		<line class="st0" x1="564.3" y1="547.2" x2="555.3" y2="547.2"/>
	</g>
	<g id="LINE_34_">
		<line class="st0" x1="555.3" y1="547.2" x2="555.3" y2="511.2"/>
	</g>
	<g id="LINE_35_">
		<line class="st0" x1="564.3" y1="511.2" x2="555.3" y2="511.2"/>
	</g>
	<g id="LINE_36_">
		<line class="st0" x1="423" y1="207.9" x2="423" y2="216.9"/>
	</g>
	<g id="LINE_37_">
		<line class="st0" x1="423" y1="207.9" x2="459" y2="207.9"/>
	</g>
	<g id="LINE_38_">
		<line class="st0" x1="459" y1="207.9" x2="459" y2="216.9"/>
	</g>
	<g id="LINE_39_">
		<line class="st0" x1="423" y1="216.9" x2="459" y2="216.9"/>
	</g>
	<g id="LINE_40_">
		<line class="st0" x1="333" y1="207.9" x2="333" y2="216.9"/>
	</g>
	<g id="LINE_41_">
		<line class="st0" x1="333" y1="207.9" x2="369" y2="207.9"/>
	</g>
	<g id="LINE_42_">
		<line class="st0" x1="369" y1="207.9" x2="369" y2="216.9"/>
	</g>
	<g id="LINE_43_">
		<line class="st0" x1="333" y1="216.9" x2="369" y2="216.9"/>
	</g>
	<g id="LINE_44_">
		<line class="st0" x1="243" y1="207.9" x2="243" y2="216.9"/>
	</g>
	<g id="LINE_45_">
		<line class="st0" x1="243" y1="207.9" x2="279" y2="207.9"/>
	</g>
	<g id="LINE_46_">
		<line class="st0" x1="279" y1="207.9" x2="279" y2="216.9"/>
	</g>
	<g id="LINE_47_">
		<line class="st0" x1="243" y1="216.9" x2="279" y2="216.9"/>
	</g>
	<g id="LINE_48_">
		<line class="st0" x1="153" y1="207.9" x2="153" y2="216.9"/>
	</g>
	<g id="LINE_49_">
		<line class="st0" x1="153" y1="207.9" x2="189" y2="207.9"/>
	</g>
	<g id="LINE_50_">
		<line class="st0" x1="189" y1="207.9" x2="189" y2="216.9"/>
	</g>
	<g id="LINE_51_">
		<line class="st0" x1="153" y1="216.9" x2="189" y2="216.9"/>
	</g>
	<g id="LINE_52_">
		<line class="st0" x1="63" y1="207.9" x2="63" y2="216.9"/>
	</g>
	<g id="LINE_53_">
		<line class="st0" x1="63" y1="207.9" x2="99" y2="207.9"/>
	</g>
	<g id="LINE_54_">
		<line class="st0" x1="99" y1="207.9" x2="99" y2="216.9"/>
	</g>
	<g id="LINE_55_">
		<line class="st0" x1="63" y1="216.9" x2="99" y2="216.9"/>
	</g>
	<g id="LINE_56_">
		<line class="st0" x1="513" y1="207.9" x2="513" y2="216.9"/>
	</g>
	<g id="LINE_57_">
		<line class="st0" x1="513" y1="207.9" x2="549" y2="207.9"/>
	</g>
	<g id="LINE_58_">
		<line class="st0" x1="549" y1="207.9" x2="549" y2="216.9"/>
	</g>
	<g id="LINE_59_">
		<line class="st0" x1="513" y1="216.9" x2="549" y2="216.9"/>
	</g>
	<g id="LINE_60_">
		<line class="st0" x1="56.7" y1="457.2" x2="56.7" y2="421.2"/>
	</g>
	<g id="LINE_61_">
		<line class="st0" x1="56.7" y1="457.2" x2="47.7" y2="457.2"/>
	</g>
	<g id="LINE_62_">
		<line class="st0" x1="47.7" y1="457.2" x2="47.7" y2="421.2"/>
	</g>
	<g id="LINE_63_">
		<line class="st0" x1="56.7" y1="421.2" x2="47.7" y2="421.2"/>
	</g>
	<g id="LINE_64_">
		<line class="st0" x1="56.7" y1="277.2" x2="56.7" y2="241.2"/>
	</g>
	<g id="LINE_65_">
		<line class="st0" x1="56.7" y1="277.2" x2="47.7" y2="277.2"/>
	</g>
	<g id="LINE_66_">
		<line class="st0" x1="47.7" y1="277.2" x2="47.7" y2="241.2"/>
	</g>
	<g id="LINE_67_">
		<line class="st0" x1="56.7" y1="241.2" x2="47.7" y2="241.2"/>
	</g>
	<g id="LINE_68_">
		<line class="st0" x1="56.7" y1="367.2" x2="56.7" y2="331.2"/>
	</g>
	<g id="LINE_69_">
		<line class="st0" x1="56.7" y1="367.2" x2="47.7" y2="367.2"/>
	</g>
	<g id="LINE_70_">
		<line class="st0" x1="47.7" y1="367.2" x2="47.7" y2="331.2"/>
	</g>
	<g id="LINE_71_">
		<line class="st0" x1="56.7" y1="331.2" x2="47.7" y2="331.2"/>
	</g>
	<g id="LINE_72_">
		<line class="st0" x1="56.7" y1="547.2" x2="56.7" y2="511.2"/>
	</g>
	<g id="LINE_73_">
		<line class="st0" x1="56.7" y1="547.2" x2="47.7" y2="547.2"/>
	</g>
	<g id="LINE_74_">
		<line class="st0" x1="47.7" y1="547.2" x2="47.7" y2="511.2"/>
	</g>
	<g id="LINE_75_">
		<line class="st0" x1="56.7" y1="511.2" x2="47.7" y2="511.2"/>
	</g>
</g>
</svg>
