<?xml version="1.0" encoding="utf-8"?>
<!-- Generator: Adobe Illustrator 22.1.0, SVG Export Plug-In . SVG Version: 6.00 Build 0)  -->
<svg version="1.1" id="Layer_1" xmlns="http://www.w3.org/2000/svg" xmlns:xlink="http://www.w3.org/1999/xlink" x="0px" y="0px"
	 width="612px" height="792px" viewBox="0 0 612 792" style="enable-background:new 0 0 612 792;" xml:space="preserve">
<style type="text/css">
	.st0{fill:none;stroke:#000000;stroke-width:1.1339;stroke-linecap:round;stroke-linejoin:round;stroke-miterlimit:10;}
</style>
<g>
	<g id="LINE">
		<line class="st0" x1="47.7" y1="414" x2="56.7" y2="414"/>
	</g>
	<g id="LINE_1_">
		<line class="st0" x1="56.7" y1="450" x2="56.7" y2="414"/>
	</g>
	<g id="LINE_2_">
		<line class="st0" x1="47.7" y1="450" x2="56.7" y2="450"/>
	</g>
	<g id="LINE_3_">
		<line class="st0" x1="47.7" y1="450" x2="47.7" y2="414"/>
	</g>
	<g id="LINE_4_">
		<line class="st0" x1="56.7" y1="522" x2="56.7" y2="486"/>
	</g>
	<g id="LINE_5_">
		<line class="st0" x1="47.7" y1="522" x2="56.7" y2="522"/>
	</g>
	<g id="LINE_6_">
		<line class="st0" x1="47.7" y1="522" x2="47.7" y2="486"/>
	</g>
	<g id="LINE_7_">
		<line class="st0" x1="47.7" y1="486" x2="56.7" y2="486"/>
	</g>
	<g id="LINE_8_">
		<line class="st0" x1="555.3" y1="306" x2="555.3" y2="270"/>
	</g>
	<g id="LINE_9_">
		<line class="st0" x1="564.3" y1="270" x2="555.3" y2="270"/>
	</g>
	<g id="LINE_10_">
		<line class="st0" x1="564.3" y1="306" x2="564.3" y2="270"/>
	</g>
	<g id="LINE_11_">
		<line class="st0" x1="564.3" y1="306" x2="555.3" y2="306"/>
	</g>
	<g id="LINE_12_">
		<line class="st0" x1="564.3" y1="522" x2="555.3" y2="522"/>
	</g>
	<g id="LINE_13_">
		<line class="st0" x1="555.3" y1="522" x2="555.3" y2="486"/>
	</g>
	<g id="LINE_14_">
		<line class="st0" x1="564.3" y1="486" x2="555.3" y2="486"/>
	</g>
	<g id="LINE_15_">
		<line class="st0" x1="564.3" y1="522" x2="564.3" y2="486"/>
	</g>
	<g id="LINE_16_">
		<line class="st0" x1="47.7" y1="342" x2="56.7" y2="342"/>
	</g>
	<g id="LINE_17_">
		<line class="st0" x1="56.7" y1="378" x2="56.7" y2="342"/>
	</g>
	<g id="LINE_18_">
		<line class="st0" x1="47.7" y1="378" x2="56.7" y2="378"/>
	</g>
	<g id="LINE_19_">
		<line class="st0" x1="47.7" y1="378" x2="47.7" y2="342"/>
	</g>
	<g id="LINE_20_">
		<line class="st0" x1="47.7" y1="270" x2="56.7" y2="270"/>
	</g>
	<g id="LINE_21_">
		<line class="st0" x1="56.7" y1="306" x2="56.7" y2="270"/>
	</g>
	<g id="LINE_22_">
		<line class="st0" x1="47.7" y1="306" x2="56.7" y2="306"/>
	</g>
	<g id="LINE_23_">
		<line class="st0" x1="47.7" y1="306" x2="47.7" y2="270"/>
	</g>
	<g id="LINE_24_">
		<line class="st0" x1="564.3" y1="450" x2="555.3" y2="450"/>
	</g>
	<g id="LINE_25_">
		<line class="st0" x1="555.3" y1="450" x2="555.3" y2="414"/>
	</g>
	<g id="LINE_26_">
		<line class="st0" x1="564.3" y1="414" x2="555.3" y2="414"/>
	</g>
	<g id="LINE_27_">
		<line class="st0" x1="564.3" y1="450" x2="564.3" y2="414"/>
	</g>
	<g id="LINE_28_">
		<line class="st0" x1="564.3" y1="378" x2="555.3" y2="378"/>
	</g>
	<g id="LINE_29_">
		<line class="st0" x1="555.3" y1="378" x2="555.3" y2="342"/>
	</g>
	<g id="LINE_30_">
		<line class="st0" x1="564.3" y1="342" x2="555.3" y2="342"/>
	</g>
	<g id="LINE_31_">
		<line class="st0" x1="564.3" y1="378" x2="564.3" y2="342"/>
	</g>
	<g id="LINE_32_">
		<line class="st0" x1="210.6" y1="252" x2="210.6" y2="498.6"/>
	</g>
	<g id="LINE_33_">
		<line class="st0" x1="189" y1="252" x2="210.6" y2="252"/>
	</g>
	<g id="LINE_34_">
		<line class="st0" x1="189" y1="243" x2="189" y2="252"/>
	</g>
	<g id="LINE_35_">
		<line class="st0" x1="153" y1="243" x2="189" y2="243"/>
	</g>
	<g id="LINE_36_">
		<line class="st0" x1="153" y1="243" x2="153" y2="252"/>
	</g>
	<g id="LINE_37_">
		<line class="st0" x1="131.4" y1="252" x2="153" y2="252"/>
	</g>
	<g id="LINE_38_">
		<line class="st0" x1="131.4" y1="498.6" x2="131.4" y2="252"/>
	</g>
	<g id="ARC">
		<path class="st0" d="M120.6,498.6c0,3,2.4,5.4,5.4,5.4c3,0,5.4-2.4,5.4-5.4"/>
	</g>
	<g id="LINE_39_">
		<line class="st0" x1="120.6" y1="252" x2="120.6" y2="498.6"/>
	</g>
	<g id="LINE_40_">
		<line class="st0" x1="99" y1="252" x2="120.6" y2="252"/>
	</g>
	<g id="LINE_41_">
		<line class="st0" x1="99" y1="243" x2="99" y2="252"/>
	</g>
	<g id="LINE_42_">
		<line class="st0" x1="63" y1="243" x2="99" y2="243"/>
	</g>
	<g id="LINE_43_">
		<line class="st0" x1="63" y1="243" x2="63" y2="252"/>
	</g>
	<g id="LINE_44_">
		<line class="st0" x1="38.7" y1="252" x2="63" y2="252"/>
	</g>
	<g id="LINE_45_">
		<line class="st0" x1="38.7" y1="252" x2="38.7" y2="540"/>
	</g>
	<g id="LINE_46_">
		<line class="st0" x1="38.7" y1="540" x2="63" y2="540"/>
	</g>
	<g id="LINE_47_">
		<line class="st0" x1="63" y1="549" x2="63" y2="540"/>
	</g>
	<g id="LINE_48_">
		<line class="st0" x1="63" y1="549" x2="99" y2="549"/>
	</g>
	<g id="LINE_49_">
		<line class="st0" x1="99" y1="549" x2="99" y2="540"/>
	</g>
	<g id="LINE_50_">
		<line class="st0" x1="99" y1="540" x2="153" y2="540"/>
	</g>
	<g id="LINE_51_">
		<line class="st0" x1="153" y1="549" x2="153" y2="540"/>
	</g>
	<g id="LINE_52_">
		<line class="st0" x1="153" y1="549" x2="189" y2="549"/>
	</g>
	<g id="LINE_53_">
		<line class="st0" x1="189" y1="549" x2="189" y2="540"/>
	</g>
	<g id="LINE_54_">
		<line class="st0" x1="189" y1="540" x2="243" y2="540"/>
	</g>
	<g id="LINE_55_">
		<line class="st0" x1="243" y1="549" x2="243" y2="540"/>
	</g>
	<g id="LINE_56_">
		<line class="st0" x1="243" y1="549" x2="279" y2="549"/>
	</g>
	<g id="LINE_57_">
		<line class="st0" x1="279" y1="549" x2="279" y2="540"/>
	</g>
	<g id="LINE_58_">
		<line class="st0" x1="279" y1="540" x2="333" y2="540"/>
	</g>
	<g id="LINE_59_">
		<line class="st0" x1="333" y1="549" x2="333" y2="540"/>
	</g>
	<g id="LINE_60_">
		<line class="st0" x1="333" y1="549" x2="369" y2="549"/>
	</g>
	<g id="LINE_61_">
		<line class="st0" x1="369" y1="549" x2="369" y2="540"/>
	</g>
	<g id="LINE_62_">
		<line class="st0" x1="369" y1="540" x2="423" y2="540"/>
	</g>
	<g id="LINE_63_">
		<line class="st0" x1="423" y1="549" x2="423" y2="540"/>
	</g>
	<g id="LINE_64_">
		<line class="st0" x1="423" y1="549" x2="459" y2="549"/>
	</g>
	<g id="LINE_65_">
		<line class="st0" x1="459" y1="549" x2="459" y2="540"/>
	</g>
	<g id="LINE_66_">
		<line class="st0" x1="459" y1="540" x2="513" y2="540"/>
	</g>
	<g id="LINE_67_">
		<line class="st0" x1="513" y1="549" x2="513" y2="540"/>
	</g>
	<g id="LINE_68_">
		<line class="st0" x1="513" y1="549" x2="549" y2="549"/>
	</g>
	<g id="LINE_69_">
		<line class="st0" x1="549" y1="549" x2="549" y2="540"/>
	</g>
	<g id="LINE_70_">
		<line class="st0" x1="549" y1="540" x2="573.3" y2="540"/>
	</g>
	<g id="LINE_71_">
		<line class="st0" x1="573.3" y1="252" x2="573.3" y2="540"/>
	</g>
	<g id="LINE_72_">
		<line class="st0" x1="549" y1="252" x2="573.3" y2="252"/>
	</g>
	<g id="LINE_73_">
		<line class="st0" x1="549" y1="243" x2="549" y2="252"/>
	</g>
	<g id="LINE_74_">
		<line class="st0" x1="513" y1="243" x2="549" y2="243"/>
	</g>
	<g id="LINE_75_">
		<line class="st0" x1="513" y1="243" x2="513" y2="252"/>
	</g>
	<g id="LINE_76_">
		<line class="st0" x1="491.4" y1="252" x2="513" y2="252"/>
	</g>
	<g id="LINE_77_">
		<line class="st0" x1="491.4" y1="498.6" x2="491.4" y2="252"/>
	</g>
	<g id="ARC_1_">
		<path class="st0" d="M480.6,498.6c0,3,2.4,5.4,5.4,5.4s5.4-2.4,5.4-5.4"/>
	</g>
	<g id="LINE_78_">
		<line class="st0" x1="480.6" y1="252" x2="480.6" y2="498.6"/>
	</g>
	<g id="LINE_79_">
		<line class="st0" x1="459" y1="252" x2="480.6" y2="252"/>
	</g>
	<g id="LINE_80_">
		<line class="st0" x1="459" y1="243" x2="459" y2="252"/>
	</g>
	<g id="LINE_81_">
		<line class="st0" x1="423" y1="243" x2="459" y2="243"/>
	</g>
	<g id="LINE_82_">
		<line class="st0" x1="423" y1="243" x2="423" y2="252"/>
	</g>
	<g id="LINE_83_">
		<line class="st0" x1="401.4" y1="252" x2="423" y2="252"/>
	</g>
	<g id="LINE_84_">
		<line class="st0" x1="401.4" y1="498.6" x2="401.4" y2="252"/>
	</g>
	<g id="ARC_2_">
		<path class="st0" d="M390.6,498.6c0,3,2.4,5.4,5.4,5.4s5.4-2.4,5.4-5.4"/>
	</g>
	<g id="LINE_85_">
		<line class="st0" x1="390.6" y1="252" x2="390.6" y2="498.6"/>
	</g>
	<g id="LINE_86_">
		<line class="st0" x1="369" y1="252" x2="390.6" y2="252"/>
	</g>
	<g id="LINE_87_">
		<line class="st0" x1="369" y1="243" x2="369" y2="252"/>
	</g>
	<g id="LINE_88_">
		<line class="st0" x1="333" y1="243" x2="369" y2="243"/>
	</g>
	<g id="LINE_89_">
		<line class="st0" x1="333" y1="243" x2="333" y2="252"/>
	</g>
	<g id="LINE_90_">
		<line class="st0" x1="311.4" y1="252" x2="333" y2="252"/>
	</g>
	<g id="LINE_91_">
		<line class="st0" x1="311.4" y1="498.6" x2="311.4" y2="252"/>
	</g>
	<g id="ARC_3_">
		<path class="st0" d="M300.6,498.6c0,3,2.4,5.4,5.4,5.4s5.4-2.4,5.4-5.4"/>
	</g>
	<g id="LINE_92_">
		<line class="st0" x1="300.6" y1="252" x2="300.6" y2="498.6"/>
	</g>
	<g id="LINE_93_">
		<line class="st0" x1="279" y1="252" x2="300.6" y2="252"/>
	</g>
	<g id="LINE_94_">
		<line class="st0" x1="279" y1="243" x2="279" y2="252"/>
	</g>
	<g id="LINE_95_">
		<line class="st0" x1="243" y1="243" x2="279" y2="243"/>
	</g>
	<g id="LINE_96_">
		<line class="st0" x1="243" y1="243" x2="243" y2="252"/>
	</g>
	<g id="LINE_97_">
		<line class="st0" x1="221.4" y1="252" x2="243" y2="252"/>
	</g>
	<g id="LINE_98_">
		<line class="st0" x1="221.4" y1="498.6" x2="221.4" y2="252"/>
	</g>
	<g id="ARC_4_">
		<path class="st0" d="M210.6,498.6c0,3,2.4,5.4,5.4,5.4s5.4-2.4,5.4-5.4"/>
	</g>
</g>
</svg>
