<?xml version="1.0" encoding="utf-8"?>
<!-- Generator: Adobe Illustrator 22.1.0, SVG Export Plug-In . SVG Version: 6.00 Build 0)  -->
<svg version="1.1" id="Layer_1" xmlns="http://www.w3.org/2000/svg" xmlns:xlink="http://www.w3.org/1999/xlink" x="0px" y="0px"
	 width="612px" height="792px" viewBox="0 0 612 792" style="enable-background:new 0 0 612 792;" xml:space="preserve">
<style type="text/css">
	.st0{fill:none;stroke:#000000;stroke-width:1.1339;stroke-linecap:round;stroke-linejoin:round;stroke-miterlimit:10;}
</style>
<g>
	<g id="CIRCLE">
		<path class="st0" d="M486,432c0-3,2.4-5.4,5.4-5.4s5.4,2.4,5.4,5.4s-2.4,5.4-5.4,5.4S486,435,486,432L486,432z"/>
	</g>
	<g id="LINE">
		<line class="st0" x1="505.8" y1="540" x2="490.8" y2="540"/>
	</g>
	<g id="LINE_1_">
		<line class="st0" x1="505.8" y1="522" x2="505.8" y2="540"/>
	</g>
	<g id="LINE_2_">
		<line class="st0" x1="514.8" y1="522" x2="505.8" y2="522"/>
	</g>
	<g id="LINE_3_">
		<line class="st0" x1="514.8" y1="522" x2="514.8" y2="486"/>
	</g>
	<g id="LINE_4_">
		<line class="st0" x1="514.8" y1="486" x2="505.8" y2="486"/>
	</g>
	<g id="LINE_5_">
		<line class="st0" x1="505.8" y1="450" x2="505.8" y2="486"/>
	</g>
	<g id="LINE_6_">
		<line class="st0" x1="514.8" y1="450" x2="505.8" y2="450"/>
	</g>
	<g id="LINE_7_">
		<line class="st0" x1="514.8" y1="450" x2="514.8" y2="414"/>
	</g>
	<g id="LINE_8_">
		<line class="st0" x1="514.8" y1="414" x2="505.8" y2="414"/>
	</g>
	<g id="LINE_9_">
		<line class="st0" x1="505.8" y1="378" x2="505.8" y2="414"/>
	</g>
	<g id="LINE_10_">
		<line class="st0" x1="514.8" y1="378" x2="505.8" y2="378"/>
	</g>
	<g id="LINE_11_">
		<line class="st0" x1="514.8" y1="378" x2="514.8" y2="342"/>
	</g>
	<g id="LINE_12_">
		<line class="st0" x1="514.8" y1="342" x2="505.8" y2="342"/>
	</g>
	<g id="LINE_13_">
		<line class="st0" x1="505.8" y1="306" x2="505.8" y2="342"/>
	</g>
	<g id="LINE_14_">
		<line class="st0" x1="514.8" y1="306" x2="505.8" y2="306"/>
	</g>
	<g id="LINE_15_">
		<line class="st0" x1="514.8" y1="306" x2="514.8" y2="270"/>
	</g>
	<g id="LINE_16_">
		<line class="st0" x1="514.8" y1="270" x2="505.8" y2="270"/>
	</g>
	<g id="LINE_17_">
		<line class="st0" x1="505.8" y1="252" x2="505.8" y2="270"/>
	</g>
	<g id="LINE_18_">
		<line class="st0" x1="505.8" y1="252" x2="436.5" y2="252"/>
	</g>
	<g id="LINE_19_">
		<line class="st0" x1="436.5" y1="243" x2="436.5" y2="252"/>
	</g>
	<g id="LINE_20_">
		<line class="st0" x1="436.5" y1="243" x2="400.5" y2="243"/>
	</g>
	<g id="LINE_21_">
		<line class="st0" x1="400.5" y1="243" x2="400.5" y2="252"/>
	</g>
	<g id="LINE_22_">
		<line class="st0" x1="400.5" y1="252" x2="346.5" y2="252"/>
	</g>
	<g id="LINE_23_">
		<line class="st0" x1="346.5" y1="243" x2="346.5" y2="252"/>
	</g>
	<g id="LINE_24_">
		<line class="st0" x1="346.5" y1="243" x2="310.5" y2="243"/>
	</g>
	<g id="LINE_25_">
		<line class="st0" x1="310.5" y1="243" x2="310.5" y2="252"/>
	</g>
	<g id="LINE_26_">
		<line class="st0" x1="310.5" y1="252" x2="256.5" y2="252"/>
	</g>
	<g id="LINE_27_">
		<line class="st0" x1="256.5" y1="243" x2="256.5" y2="252"/>
	</g>
	<g id="LINE_28_">
		<line class="st0" x1="256.5" y1="243" x2="220.5" y2="243"/>
	</g>
	<g id="LINE_29_">
		<line class="st0" x1="220.5" y1="243" x2="220.5" y2="252"/>
	</g>
	<g id="LINE_30_">
		<line class="st0" x1="220.5" y1="252" x2="166.5" y2="252"/>
	</g>
	<g id="LINE_31_">
		<line class="st0" x1="166.5" y1="243" x2="166.5" y2="252"/>
	</g>
	<g id="LINE_32_">
		<line class="st0" x1="166.5" y1="243" x2="130.5" y2="243"/>
	</g>
	<g id="LINE_33_">
		<line class="st0" x1="130.5" y1="243" x2="130.5" y2="252"/>
	</g>
	<g id="LINE_34_">
		<line class="st0" x1="130.5" y1="252" x2="106.2" y2="252"/>
	</g>
	<g id="LINE_35_">
		<line class="st0" x1="106.2" y1="252" x2="106.2" y2="270"/>
	</g>
	<g id="LINE_36_">
		<line class="st0" x1="97.2" y1="270" x2="106.2" y2="270"/>
	</g>
	<g id="LINE_37_">
		<line class="st0" x1="97.2" y1="306" x2="97.2" y2="270"/>
	</g>
	<g id="LINE_38_">
		<line class="st0" x1="97.2" y1="306" x2="106.2" y2="306"/>
	</g>
	<g id="LINE_39_">
		<line class="st0" x1="106.2" y1="306" x2="106.2" y2="342"/>
	</g>
	<g id="LINE_40_">
		<line class="st0" x1="97.2" y1="342" x2="106.2" y2="342"/>
	</g>
	<g id="LINE_41_">
		<line class="st0" x1="97.2" y1="378" x2="97.2" y2="342"/>
	</g>
	<g id="LINE_42_">
		<line class="st0" x1="97.2" y1="378" x2="106.2" y2="378"/>
	</g>
	<g id="LINE_43_">
		<line class="st0" x1="106.2" y1="378" x2="106.2" y2="414"/>
	</g>
	<g id="LINE_44_">
		<line class="st0" x1="97.2" y1="414" x2="106.2" y2="414"/>
	</g>
	<g id="LINE_45_">
		<line class="st0" x1="97.2" y1="450" x2="97.2" y2="414"/>
	</g>
	<g id="LINE_46_">
		<line class="st0" x1="97.2" y1="450" x2="106.2" y2="450"/>
	</g>
	<g id="LINE_47_">
		<line class="st0" x1="106.2" y1="450" x2="106.2" y2="486"/>
	</g>
	<g id="LINE_48_">
		<line class="st0" x1="97.2" y1="486" x2="106.2" y2="486"/>
	</g>
	<g id="LINE_49_">
		<line class="st0" x1="97.2" y1="522" x2="97.2" y2="486"/>
	</g>
	<g id="LINE_50_">
		<line class="st0" x1="97.2" y1="522" x2="106.2" y2="522"/>
	</g>
	<g id="LINE_51_">
		<line class="st0" x1="106.2" y1="522" x2="106.2" y2="540"/>
	</g>
	<g id="LINE_52_">
		<line class="st0" x1="130.5" y1="540" x2="106.2" y2="540"/>
	</g>
	<g id="LINE_53_">
		<line class="st0" x1="130.5" y1="549" x2="130.5" y2="540"/>
	</g>
	<g id="LINE_54_">
		<line class="st0" x1="166.5" y1="549" x2="130.5" y2="549"/>
	</g>
	<g id="LINE_55_">
		<line class="st0" x1="166.5" y1="549" x2="166.5" y2="540"/>
	</g>
	<g id="LINE_56_">
		<line class="st0" x1="220.5" y1="540" x2="166.5" y2="540"/>
	</g>
	<g id="LINE_57_">
		<line class="st0" x1="220.5" y1="549" x2="220.5" y2="540"/>
	</g>
	<g id="LINE_58_">
		<line class="st0" x1="256.5" y1="549" x2="220.5" y2="549"/>
	</g>
	<g id="LINE_59_">
		<line class="st0" x1="256.5" y1="549" x2="256.5" y2="540"/>
	</g>
	<g id="LINE_60_">
		<line class="st0" x1="310.5" y1="540" x2="256.5" y2="540"/>
	</g>
	<g id="LINE_61_">
		<line class="st0" x1="310.5" y1="549" x2="310.5" y2="540"/>
	</g>
	<g id="LINE_62_">
		<line class="st0" x1="346.5" y1="549" x2="310.5" y2="549"/>
	</g>
	<g id="LINE_63_">
		<line class="st0" x1="346.5" y1="549" x2="346.5" y2="540"/>
	</g>
	<g id="LINE_64_">
		<line class="st0" x1="400.5" y1="540" x2="346.5" y2="540"/>
	</g>
	<g id="LINE_65_">
		<line class="st0" x1="400.5" y1="549" x2="400.5" y2="540"/>
	</g>
	<g id="LINE_66_">
		<line class="st0" x1="436.5" y1="549" x2="400.5" y2="549"/>
	</g>
	<g id="LINE_67_">
		<line class="st0" x1="436.5" y1="549" x2="436.5" y2="540"/>
	</g>
	<g id="LINE_68_">
		<line class="st0" x1="475.8" y1="540" x2="436.5" y2="540"/>
	</g>
	<g id="LINE_69_">
		<line class="st0" x1="475.8" y1="549" x2="475.8" y2="540"/>
	</g>
	<g id="LINE_70_">
		<line class="st0" x1="490.8" y1="549" x2="475.8" y2="549"/>
	</g>
	<g id="LINE_71_">
		<line class="st0" x1="490.8" y1="549" x2="490.8" y2="540"/>
	</g>
</g>
</svg>
