<?xml version="1.0" encoding="utf-8"?>
<!-- Generator: Adobe Illustrator 22.1.0, SVG Export Plug-In . SVG Version: 6.00 Build 0)  -->
<svg version="1.1" id="Layer_1" xmlns="http://www.w3.org/2000/svg" xmlns:xlink="http://www.w3.org/1999/xlink" x="0px" y="0px"
	 width="612px" height="792px" viewBox="0 0 612 792" style="enable-background:new 0 0 612 792;" xml:space="preserve">
<style type="text/css">
	.st0{fill:none;stroke:#000000;stroke-width:1.1339;stroke-linecap:round;stroke-linejoin:round;stroke-miterlimit:10;}
</style>
<g>
	<g id="LINE">
		<line class="st0" x1="57.1" y1="253.4" x2="57.1" y2="290.2"/>
	</g>
	<g id="LINE_1_">
		<line class="st0" x1="57.1" y1="290.2" x2="47.4" y2="290.2"/>
	</g>
	<g id="LINE_2_">
		<line class="st0" x1="47.4" y1="253.4" x2="47.4" y2="290.2"/>
	</g>
	<g id="LINE_3_">
		<line class="st0" x1="47.4" y1="253.4" x2="57.1" y2="253.4"/>
	</g>
	<g id="LINE_4_">
		<line class="st0" x1="47.4" y1="433.4" x2="47.4" y2="470.2"/>
	</g>
	<g id="LINE_5_">
		<line class="st0" x1="47.4" y1="433.4" x2="57.1" y2="433.4"/>
	</g>
	<g id="LINE_6_">
		<line class="st0" x1="57.1" y1="433.4" x2="57.1" y2="470.2"/>
	</g>
	<g id="LINE_7_">
		<line class="st0" x1="57.1" y1="470.2" x2="47.4" y2="470.2"/>
	</g>
	<g id="LINE_8_">
		<line class="st0" x1="242.6" y1="593.5" x2="279.4" y2="593.5"/>
	</g>
	<g id="LINE_9_">
		<line class="st0" x1="242.6" y1="593.5" x2="242.6" y2="583.7"/>
	</g>
	<g id="LINE_10_">
		<line class="st0" x1="242.6" y1="583.7" x2="279.4" y2="583.7"/>
	</g>
	<g id="LINE_11_">
		<line class="st0" x1="279.4" y1="583.7" x2="279.4" y2="593.5"/>
	</g>
	<g id="LINE_12_">
		<line class="st0" x1="512.6" y1="593.5" x2="549.4" y2="593.5"/>
	</g>
	<g id="LINE_13_">
		<line class="st0" x1="512.6" y1="593.5" x2="512.6" y2="583.7"/>
	</g>
	<g id="LINE_14_">
		<line class="st0" x1="512.6" y1="583.7" x2="549.4" y2="583.7"/>
	</g>
	<g id="LINE_15_">
		<line class="st0" x1="549.4" y1="583.7" x2="549.4" y2="593.5"/>
	</g>
	<g id="LINE_16_">
		<line class="st0" x1="564.6" y1="523.4" x2="564.6" y2="560.2"/>
	</g>
	<g id="LINE_17_">
		<line class="st0" x1="564.6" y1="560.2" x2="554.9" y2="560.2"/>
	</g>
	<g id="LINE_18_">
		<line class="st0" x1="554.9" y1="523.4" x2="554.9" y2="560.2"/>
	</g>
	<g id="LINE_19_">
		<line class="st0" x1="554.9" y1="523.4" x2="564.6" y2="523.4"/>
	</g>
	<g id="LINE_20_">
		<line class="st0" x1="554.9" y1="343.4" x2="554.9" y2="380.2"/>
	</g>
	<g id="LINE_21_">
		<line class="st0" x1="554.9" y1="343.4" x2="564.6" y2="343.4"/>
	</g>
	<g id="LINE_22_">
		<line class="st0" x1="564.6" y1="343.4" x2="564.6" y2="380.2"/>
	</g>
	<g id="LINE_23_">
		<line class="st0" x1="564.6" y1="380.2" x2="554.9" y2="380.2"/>
	</g>
	<g id="LINE_24_">
		<line class="st0" x1="47.4" y1="523.4" x2="47.4" y2="560.2"/>
	</g>
	<g id="LINE_25_">
		<line class="st0" x1="47.4" y1="523.4" x2="57.1" y2="523.4"/>
	</g>
	<g id="LINE_26_">
		<line class="st0" x1="57.1" y1="523.4" x2="57.1" y2="560.2"/>
	</g>
	<g id="LINE_27_">
		<line class="st0" x1="57.1" y1="560.2" x2="47.4" y2="560.2"/>
	</g>
	<g id="LINE_28_">
		<line class="st0" x1="38.7" y1="593.1" x2="38.7" y2="184.5"/>
	</g>
	<g id="ARC">
		<path class="st0" d="M38.7,593.1c0,8,6.4,14.4,14.4,14.4"/>
	</g>
	<g id="LINE_29_">
		<line class="st0" x1="53.1" y1="607.5" x2="558.9" y2="607.5"/>
	</g>
	<g id="ARC_1_">
		<path class="st0" d="M558.9,607.5c8,0,14.4-6.4,14.4-14.4"/>
	</g>
	<g id="LINE_30_">
		<line class="st0" x1="573.3" y1="593.1" x2="573.3" y2="184.5"/>
	</g>
	<g id="LINE_31_">
		<line class="st0" x1="468.9" y1="184.5" x2="573.3" y2="184.5"/>
	</g>
	<g id="LINE_32_">
		<line class="st0" x1="468.9" y1="283.9" x2="468.9" y2="184.5"/>
	</g>
	<g id="LINE_33_">
		<line class="st0" x1="468.9" y1="283.9" x2="437.4" y2="283.9"/>
	</g>
	<g id="LINE_34_">
		<line class="st0" x1="437.4" y1="184.5" x2="437.4" y2="283.9"/>
	</g>
	<g id="LINE_35_">
		<line class="st0" x1="219" y1="184.5" x2="437.4" y2="184.5"/>
	</g>
	<g id="LINE_36_">
		<line class="st0" x1="219" y1="184.5" x2="219" y2="283.9"/>
	</g>
	<g id="LINE_37_">
		<line class="st0" x1="219" y1="283.9" x2="187.5" y2="283.9"/>
	</g>
	<g id="LINE_38_">
		<line class="st0" x1="187.5" y1="283.9" x2="187.5" y2="184.5"/>
	</g>
	<g id="LINE_39_">
		<line class="st0" x1="38.7" y1="184.5" x2="187.5" y2="184.5"/>
	</g>
	<g id="LINE_40_">
		<line class="st0" x1="564.6" y1="253.4" x2="564.6" y2="290.2"/>
	</g>
	<g id="LINE_41_">
		<line class="st0" x1="564.6" y1="290.2" x2="554.9" y2="290.2"/>
	</g>
	<g id="LINE_42_">
		<line class="st0" x1="554.9" y1="253.4" x2="554.9" y2="290.2"/>
	</g>
	<g id="LINE_43_">
		<line class="st0" x1="554.9" y1="253.4" x2="564.6" y2="253.4"/>
	</g>
	<g id="LINE_44_">
		<line class="st0" x1="554.9" y1="433.4" x2="554.9" y2="470.2"/>
	</g>
	<g id="LINE_45_">
		<line class="st0" x1="554.9" y1="433.4" x2="564.6" y2="433.4"/>
	</g>
	<g id="LINE_46_">
		<line class="st0" x1="564.6" y1="433.4" x2="564.6" y2="470.2"/>
	</g>
	<g id="LINE_47_">
		<line class="st0" x1="564.6" y1="470.2" x2="554.9" y2="470.2"/>
	</g>
	<g id="LINE_48_">
		<line class="st0" x1="422.6" y1="583.7" x2="459.4" y2="583.7"/>
	</g>
	<g id="LINE_49_">
		<line class="st0" x1="459.4" y1="583.7" x2="459.4" y2="593.5"/>
	</g>
	<g id="LINE_50_">
		<line class="st0" x1="422.6" y1="593.5" x2="459.4" y2="593.5"/>
	</g>
	<g id="LINE_51_">
		<line class="st0" x1="422.6" y1="593.5" x2="422.6" y2="583.7"/>
	</g>
	<g id="LINE_52_">
		<line class="st0" x1="332.6" y1="583.7" x2="369.4" y2="583.7"/>
	</g>
	<g id="LINE_53_">
		<line class="st0" x1="369.4" y1="583.7" x2="369.4" y2="593.5"/>
	</g>
	<g id="LINE_54_">
		<line class="st0" x1="332.6" y1="593.5" x2="369.4" y2="593.5"/>
	</g>
	<g id="LINE_55_">
		<line class="st0" x1="332.6" y1="593.5" x2="332.6" y2="583.7"/>
	</g>
	<g id="LINE_56_">
		<line class="st0" x1="152.6" y1="593.5" x2="189.4" y2="593.5"/>
	</g>
	<g id="LINE_57_">
		<line class="st0" x1="152.6" y1="593.5" x2="152.6" y2="583.7"/>
	</g>
	<g id="LINE_58_">
		<line class="st0" x1="152.6" y1="583.7" x2="189.4" y2="583.7"/>
	</g>
	<g id="LINE_59_">
		<line class="st0" x1="189.4" y1="583.7" x2="189.4" y2="593.5"/>
	</g>
	<g id="LINE_60_">
		<line class="st0" x1="47.4" y1="343.4" x2="47.4" y2="380.2"/>
	</g>
	<g id="LINE_61_">
		<line class="st0" x1="47.4" y1="343.4" x2="57.1" y2="343.4"/>
	</g>
	<g id="LINE_62_">
		<line class="st0" x1="57.1" y1="343.4" x2="57.1" y2="380.2"/>
	</g>
	<g id="LINE_63_">
		<line class="st0" x1="57.1" y1="380.2" x2="47.4" y2="380.2"/>
	</g>
	<g id="LINE_64_">
		<line class="st0" x1="62.6" y1="583.7" x2="99.4" y2="583.7"/>
	</g>
	<g id="LINE_65_">
		<line class="st0" x1="99.4" y1="583.7" x2="99.4" y2="593.5"/>
	</g>
	<g id="LINE_66_">
		<line class="st0" x1="62.6" y1="593.5" x2="99.4" y2="593.5"/>
	</g>
	<g id="LINE_67_">
		<line class="st0" x1="62.6" y1="593.5" x2="62.6" y2="583.7"/>
	</g>
</g>
</svg>
