<?xml version="1.0" encoding="utf-8"?>
<!-- Generator: Adobe Illustrator 22.1.0, SVG Export Plug-In . SVG Version: 6.00 Build 0)  -->
<svg version="1.1" id="Layer_1" xmlns="http://www.w3.org/2000/svg" xmlns:xlink="http://www.w3.org/1999/xlink" x="0px" y="0px"
	 width="612px" height="792px" viewBox="0 0 612 792" style="enable-background:new 0 0 612 792;" xml:space="preserve">
<style type="text/css">
	.st0{fill:none;stroke:#000000;stroke-width:1.1339;stroke-linecap:round;stroke-linejoin:round;stroke-miterlimit:10;}
</style>
<g>
	<g id="ARC">
		<path class="st0" d="M-68.3,382.5c-0.1,6-0.1,12,0,18"/>
	</g>
	<g id="ARC_1_">
		<path class="st0" d="M-68.3,382.5c19.9-0.3,35.8-16.6,35.5-36.5c-0.2-16.2-11.3-30.3-27-34.4"/>
	</g>
	<g id="ARC_2_">
		<path class="st0" d="M-54.2,289.4c-2.1,7.3-3.9,14.7-5.6,22.2"/>
	</g>
	<g id="ARC_3_">
		<path class="st0" d="M-54.2,289.4c18.2-8,26.4-29.3,18.4-47.5c-0.2-0.5-0.5-1-0.7-1.6"/>
	</g>
	<g id="ARC_4_">
		<path class="st0" d="M-34.1,234.9c-0.8,1.8-1.7,3.7-2.5,5.5"/>
	</g>
	<g id="LINE">
		<line class="st0" x1="-34.1" y1="234.9" x2="1.1" y2="253.2"/>
	</g>
	<g id="ARC_5_">
		<path class="st0" d="M1.1,253.2C-39.4,342.5-38.7,445.1,3,533.9"/>
	</g>
	<g id="LINE_1_">
		<line class="st0" x1="3" y1="533.9" x2="-31.9" y2="552.6"/>
	</g>
	<g id="ARC_6_">
		<path class="st0" d="M-36.6,542.6c1.5,3.4,3,6.7,4.6,10.1"/>
	</g>
	<g id="ARC_7_">
		<path class="st0" d="M-36.6,542.6c8.9-17.8,1.7-39.4-16.1-48.3c-0.5-0.3-1-0.5-1.6-0.7"/>
	</g>
	<g id="ARC_8_">
		<path class="st0" d="M-59.8,471.4c1.6,7.5,3.5,14.9,5.6,22.2"/>
	</g>
	<g id="ARC_9_">
		<path class="st0" d="M-59.8,471.4c19.3-5,30.8-24.6,25.9-43.8c-4.1-15.7-18.1-26.8-34.4-27"/>
	</g>
	<g id="ARC_10_">
		<path class="st0" d="M648.6,240.4c-0.8-1.8-1.6-3.7-2.5-5.5"/>
	</g>
	<g id="ARC_11_">
		<path class="st0" d="M648.6,240.4c-8.9,17.8-1.7,39.4,16.1,48.3c0.5,0.3,1,0.5,1.6,0.7"/>
	</g>
	<g id="ARC_12_">
		<path class="st0" d="M671.8,311.6c-1.6-7.5-3.5-14.9-5.6-22.2"/>
	</g>
	<g id="ARC_13_">
		<path class="st0" d="M671.8,311.6c-19.3,5-30.8,24.6-25.9,43.8c4.1,15.7,18.1,26.8,34.4,27"/>
	</g>
	<g id="ARC_14_">
		<path class="st0" d="M680.3,400.5c0.1-6,0.1-12,0-18"/>
	</g>
	<g id="ARC_15_">
		<path class="st0" d="M680.3,400.5c-19.9,0.3-35.8,16.6-35.5,36.5c0.2,16.2,11.3,30.3,27,34.4"/>
	</g>
	<g id="ARC_16_">
		<path class="st0" d="M666.2,493.6c2.1-7.3,3.9-14.7,5.6-22.2"/>
	</g>
	<g id="ARC_17_">
		<path class="st0" d="M666.2,493.6c-18.2,8-26.4,29.3-18.4,47.5c0.2,0.5,0.5,1,0.7,1.6"/>
	</g>
	<g id="ARC_18_">
		<path class="st0" d="M643.9,552.6c1.6-3.3,3.1-6.7,4.6-10.1"/>
	</g>
	<g id="LINE_2_">
		<line class="st0" x1="609" y1="533.9" x2="643.9" y2="552.6"/>
	</g>
	<g id="ARC_19_">
		<path class="st0" d="M609,533.9c41.7-88.8,42.4-191.4,1.9-280.7"/>
	</g>
	<g id="LINE_3_">
		<line class="st0" x1="610.9" y1="253.2" x2="646.1" y2="234.9"/>
	</g>
	<g id="ARC_20_">
		<path class="st0" d="M-14.9,584.4c25.2,42,58.4,78.6,97.7,107.7"/>
	</g>
	<g id="LINE_4_">
		<line class="st0" x1="-14.9" y1="584.4" x2="20" y2="565.6"/>
	</g>
	<g id="ARC_21_">
		<path class="st0" d="M20,565.6c33.2,54.5,81.3,98.4,138.6,126.5"/>
	</g>
	<g id="LINE_5_">
		<line class="st0" x1="82.8" y1="692.1" x2="158.6" y2="692.1"/>
	</g>
	<g id="ARC_22_">
		<path class="st0" d="M-65.1,652.3c9.7,13.8,20.2,27.1,31.4,39.8"/>
	</g>
	<g id="ARC_23_">
		<path class="st0" d="M-65.1,652.3c14.4-1.5,26.5-11.4,30.7-25.1"/>
	</g>
	<g id="ARC_24_">
		<path class="st0" d="M-34.4,627.2c16.3,23.5,35,45.3,55.7,64.9"/>
	</g>
	<g id="LINE_6_">
		<line class="st0" x1="-33.7" y1="692.1" x2="21.3" y2="692.1"/>
	</g>
	<g id="LINE_7_">
		<line class="st0" x1="344.5" y1="391.8" x2="362.7" y2="401.5"/>
	</g>
	<g id="LINE_8_">
		<line class="st0" x1="344.5" y1="391.8" x2="362.8" y2="382.2"/>
	</g>
	<g id="ARC_25_">
		<path class="st0" d="M362.7,401.5c1.1-6.4,1.2-12.9,0.1-19.3"/>
	</g>
	<g id="ARC_26_">
		<path class="st0" d="M-154.6,659.4c6.5,11.2,13.4,22.1,20.7,32.7"/>
	</g>
	<g id="LINE_9_">
		<line class="st0" x1="-154.6" y1="659.4" x2="-119.6" y2="640.6"/>
	</g>
	<g id="ARC_27_">
		<path class="st0" d="M-119.6,640.6c10.5,17.9,22,35.1,34.6,51.5"/>
	</g>
	<g id="LINE_10_">
		<line class="st0" x1="-133.9" y1="692.1" x2="-85" y2="692.1"/>
	</g>
	<g id="ARC_28_">
		<path class="st0" d="M-139.9,99.9c-6.4,9.8-12.4,19.7-18.2,29.9"/>
	</g>
	<g id="LINE_11_">
		<line class="st0" x1="-139.9" y1="99.9" x2="-91.8" y2="99.9"/>
	</g>
	<g id="ARC_29_">
		<path class="st0" d="M-91.8,99.9c-11.3,15.4-21.7,31.5-31.2,48.2"/>
	</g>
	<g id="LINE_12_">
		<line class="st0" x1="-158.1" y1="129.8" x2="-122.9" y2="148.1"/>
	</g>
	<g id="LINE_13_">
		<line class="st0" x1="895" y1="87.3" x2="895" y2="719.1"/>
	</g>
	<g id="ARC_30_">
		<path class="st0" d="M895,87.3c0-8-6.4-14.4-14.4-14.4"/>
	</g>
	<g id="LINE_14_">
		<line class="st0" x1="880.6" y1="72.9" x2="864" y2="72.9"/>
	</g>
	<g id="LINE_15_">
		<line class="st0" x1="864" y1="72.9" x2="864" y2="81.9"/>
	</g>
	<g id="LINE_16_">
		<line class="st0" x1="828" y1="81.9" x2="864" y2="81.9"/>
	</g>
	<g id="LINE_17_">
		<line class="st0" x1="828" y1="72.9" x2="828" y2="81.9"/>
	</g>
	<g id="LINE_18_">
		<line class="st0" x1="828" y1="72.9" x2="774" y2="72.9"/>
	</g>
	<g id="LINE_19_">
		<line class="st0" x1="774" y1="72.9" x2="774" y2="81.9"/>
	</g>
	<g id="LINE_20_">
		<line class="st0" x1="738" y1="81.9" x2="774" y2="81.9"/>
	</g>
	<g id="LINE_21_">
		<line class="st0" x1="738" y1="72.9" x2="738" y2="81.9"/>
	</g>
	<g id="LINE_22_">
		<line class="st0" x1="738" y1="72.9" x2="684" y2="72.9"/>
	</g>
	<g id="LINE_23_">
		<line class="st0" x1="684" y1="72.9" x2="684" y2="81.9"/>
	</g>
	<g id="LINE_24_">
		<line class="st0" x1="648" y1="81.9" x2="684" y2="81.9"/>
	</g>
	<g id="LINE_25_">
		<line class="st0" x1="648" y1="72.9" x2="648" y2="81.9"/>
	</g>
	<g id="LINE_26_">
		<line class="st0" x1="648" y1="72.9" x2="594" y2="72.9"/>
	</g>
	<g id="LINE_27_">
		<line class="st0" x1="594" y1="72.9" x2="594" y2="81.9"/>
	</g>
	<g id="LINE_28_">
		<line class="st0" x1="558" y1="81.9" x2="594" y2="81.9"/>
	</g>
	<g id="LINE_29_">
		<line class="st0" x1="558" y1="72.9" x2="558" y2="81.9"/>
	</g>
	<g id="LINE_30_">
		<line class="st0" x1="558" y1="72.9" x2="504" y2="72.9"/>
	</g>
	<g id="LINE_31_">
		<line class="st0" x1="504" y1="72.9" x2="504" y2="81.9"/>
	</g>
	<g id="LINE_32_">
		<line class="st0" x1="468" y1="81.9" x2="504" y2="81.9"/>
	</g>
	<g id="LINE_33_">
		<line class="st0" x1="468" y1="72.9" x2="468" y2="81.9"/>
	</g>
	<g id="LINE_34_">
		<line class="st0" x1="468" y1="72.9" x2="414" y2="72.9"/>
	</g>
	<g id="LINE_35_">
		<line class="st0" x1="414" y1="72.9" x2="414" y2="81.9"/>
	</g>
	<g id="LINE_36_">
		<line class="st0" x1="378" y1="81.9" x2="414" y2="81.9"/>
	</g>
	<g id="LINE_37_">
		<line class="st0" x1="378" y1="72.9" x2="378" y2="81.9"/>
	</g>
	<g id="LINE_38_">
		<line class="st0" x1="378" y1="72.9" x2="324" y2="72.9"/>
	</g>
	<g id="LINE_39_">
		<line class="st0" x1="324" y1="72.9" x2="324" y2="81.9"/>
	</g>
	<g id="LINE_40_">
		<line class="st0" x1="288" y1="81.9" x2="324" y2="81.9"/>
	</g>
	<g id="LINE_41_">
		<line class="st0" x1="288" y1="72.9" x2="288" y2="81.9"/>
	</g>
	<g id="LINE_42_">
		<line class="st0" x1="288" y1="72.9" x2="234" y2="72.9"/>
	</g>
	<g id="LINE_43_">
		<line class="st0" x1="234" y1="72.9" x2="234" y2="81.9"/>
	</g>
	<g id="LINE_44_">
		<line class="st0" x1="198" y1="81.9" x2="234" y2="81.9"/>
	</g>
	<g id="LINE_45_">
		<line class="st0" x1="198" y1="72.9" x2="198" y2="81.9"/>
	</g>
	<g id="LINE_46_">
		<line class="st0" x1="198" y1="72.9" x2="144" y2="72.9"/>
	</g>
	<g id="LINE_47_">
		<line class="st0" x1="144" y1="72.9" x2="144" y2="81.9"/>
	</g>
	<g id="LINE_48_">
		<line class="st0" x1="108" y1="81.9" x2="144" y2="81.9"/>
	</g>
	<g id="LINE_49_">
		<line class="st0" x1="108" y1="72.9" x2="108" y2="81.9"/>
	</g>
	<g id="LINE_50_">
		<line class="st0" x1="108" y1="72.9" x2="54" y2="72.9"/>
	</g>
	<g id="LINE_51_">
		<line class="st0" x1="54" y1="72.9" x2="54" y2="81.9"/>
	</g>
	<g id="LINE_52_">
		<line class="st0" x1="18" y1="81.9" x2="54" y2="81.9"/>
	</g>
	<g id="LINE_53_">
		<line class="st0" x1="18" y1="72.9" x2="18" y2="81.9"/>
	</g>
	<g id="LINE_54_">
		<line class="st0" x1="18" y1="72.9" x2="-36" y2="72.9"/>
	</g>
	<g id="LINE_55_">
		<line class="st0" x1="-36" y1="72.9" x2="-36" y2="81.9"/>
	</g>
	<g id="LINE_56_">
		<line class="st0" x1="-72" y1="81.9" x2="-36" y2="81.9"/>
	</g>
	<g id="LINE_57_">
		<line class="st0" x1="-72" y1="72.9" x2="-72" y2="81.9"/>
	</g>
	<g id="LINE_58_">
		<line class="st0" x1="-72" y1="72.9" x2="-126" y2="72.9"/>
	</g>
	<g id="LINE_59_">
		<line class="st0" x1="-126" y1="72.9" x2="-126" y2="81.9"/>
	</g>
	<g id="LINE_60_">
		<line class="st0" x1="-162" y1="81.9" x2="-126" y2="81.9"/>
	</g>
	<g id="LINE_61_">
		<line class="st0" x1="-162" y1="72.9" x2="-162" y2="81.9"/>
	</g>
	<g id="LINE_62_">
		<line class="st0" x1="-162" y1="72.9" x2="-216" y2="72.9"/>
	</g>
	<g id="LINE_63_">
		<line class="st0" x1="-216" y1="72.9" x2="-216" y2="81.9"/>
	</g>
	<g id="LINE_64_">
		<line class="st0" x1="-252" y1="81.9" x2="-216" y2="81.9"/>
	</g>
	<g id="LINE_65_">
		<line class="st0" x1="-252" y1="72.9" x2="-252" y2="81.9"/>
	</g>
	<g id="LINE_66_">
		<line class="st0" x1="-252" y1="72.9" x2="-268.6" y2="72.9"/>
	</g>
	<g id="ARC_31_">
		<path class="st0" d="M-268.6,72.9c-8,0-14.4,6.4-14.4,14.4"/>
	</g>
	<g id="LINE_67_">
		<line class="st0" x1="-283" y1="87.3" x2="-283" y2="719.1"/>
	</g>
	<g id="LINE_68_">
		<line class="st0" x1="-252" y1="719.1" x2="-283" y2="719.1"/>
	</g>
	<g id="LINE_69_">
		<line class="st0" x1="-252" y1="710.1" x2="-252" y2="719.1"/>
	</g>
	<g id="LINE_70_">
		<line class="st0" x1="-216" y1="710.1" x2="-252" y2="710.1"/>
	</g>
	<g id="LINE_71_">
		<line class="st0" x1="-216" y1="710.1" x2="-216" y2="719.1"/>
	</g>
	<g id="LINE_72_">
		<line class="st0" x1="-180" y1="719.1" x2="-216" y2="719.1"/>
	</g>
	<g id="LINE_73_">
		<line class="st0" x1="-180" y1="710.1" x2="-180" y2="719.1"/>
	</g>
	<g id="LINE_74_">
		<line class="st0" x1="-144" y1="710.1" x2="-180" y2="710.1"/>
	</g>
	<g id="LINE_75_">
		<line class="st0" x1="-144" y1="710.1" x2="-144" y2="719.1"/>
	</g>
	<g id="LINE_76_">
		<line class="st0" x1="-108" y1="719.1" x2="-144" y2="719.1"/>
	</g>
	<g id="LINE_77_">
		<line class="st0" x1="-108" y1="710.1" x2="-108" y2="719.1"/>
	</g>
	<g id="LINE_78_">
		<line class="st0" x1="-72" y1="710.1" x2="-108" y2="710.1"/>
	</g>
	<g id="LINE_79_">
		<line class="st0" x1="-72" y1="710.1" x2="-72" y2="719.1"/>
	</g>
	<g id="LINE_80_">
		<line class="st0" x1="-36" y1="719.1" x2="-72" y2="719.1"/>
	</g>
	<g id="LINE_81_">
		<line class="st0" x1="-36" y1="710.1" x2="-36" y2="719.1"/>
	</g>
	<g id="LINE_82_">
		<line class="st0" x1="0" y1="710.1" x2="-36" y2="710.1"/>
	</g>
	<g id="LINE_83_">
		<line class="st0" x1="0" y1="710.1" x2="0" y2="719.1"/>
	</g>
	<g id="LINE_84_">
		<line class="st0" x1="36" y1="719.1" x2="0" y2="719.1"/>
	</g>
	<g id="LINE_85_">
		<line class="st0" x1="36" y1="710.1" x2="36" y2="719.1"/>
	</g>
	<g id="LINE_86_">
		<line class="st0" x1="72" y1="710.1" x2="36" y2="710.1"/>
	</g>
	<g id="LINE_87_">
		<line class="st0" x1="72" y1="710.1" x2="72" y2="719.1"/>
	</g>
	<g id="LINE_88_">
		<line class="st0" x1="108" y1="719.1" x2="72" y2="719.1"/>
	</g>
	<g id="LINE_89_">
		<line class="st0" x1="108" y1="710.1" x2="108" y2="719.1"/>
	</g>
	<g id="LINE_90_">
		<line class="st0" x1="144" y1="710.1" x2="108" y2="710.1"/>
	</g>
	<g id="LINE_91_">
		<line class="st0" x1="144" y1="710.1" x2="144" y2="719.1"/>
	</g>
	<g id="LINE_92_">
		<line class="st0" x1="180" y1="719.1" x2="144" y2="719.1"/>
	</g>
	<g id="LINE_93_">
		<line class="st0" x1="180" y1="710.1" x2="180" y2="719.1"/>
	</g>
	<g id="LINE_94_">
		<line class="st0" x1="216" y1="710.1" x2="180" y2="710.1"/>
	</g>
	<g id="LINE_95_">
		<line class="st0" x1="216" y1="710.1" x2="216" y2="719.1"/>
	</g>
	<g id="LINE_96_">
		<line class="st0" x1="252" y1="719.1" x2="216" y2="719.1"/>
	</g>
	<g id="LINE_97_">
		<line class="st0" x1="252" y1="710.1" x2="252" y2="719.1"/>
	</g>
	<g id="LINE_98_">
		<line class="st0" x1="288" y1="710.1" x2="252" y2="710.1"/>
	</g>
	<g id="LINE_99_">
		<line class="st0" x1="288" y1="710.1" x2="288" y2="719.1"/>
	</g>
	<g id="LINE_100_">
		<line class="st0" x1="324" y1="719.1" x2="288" y2="719.1"/>
	</g>
	<g id="LINE_101_">
		<line class="st0" x1="324" y1="710.1" x2="324" y2="719.1"/>
	</g>
	<g id="LINE_102_">
		<line class="st0" x1="360" y1="710.1" x2="324" y2="710.1"/>
	</g>
	<g id="LINE_103_">
		<line class="st0" x1="360" y1="710.1" x2="360" y2="719.1"/>
	</g>
	<g id="LINE_104_">
		<line class="st0" x1="396" y1="719.1" x2="360" y2="719.1"/>
	</g>
	<g id="LINE_105_">
		<line class="st0" x1="396" y1="710.1" x2="396" y2="719.1"/>
	</g>
	<g id="LINE_106_">
		<line class="st0" x1="432" y1="710.1" x2="396" y2="710.1"/>
	</g>
	<g id="LINE_107_">
		<line class="st0" x1="432" y1="710.1" x2="432" y2="719.1"/>
	</g>
	<g id="LINE_108_">
		<line class="st0" x1="468" y1="719.1" x2="432" y2="719.1"/>
	</g>
	<g id="LINE_109_">
		<line class="st0" x1="468" y1="710.1" x2="468" y2="719.1"/>
	</g>
	<g id="LINE_110_">
		<line class="st0" x1="504" y1="710.1" x2="468" y2="710.1"/>
	</g>
	<g id="LINE_111_">
		<line class="st0" x1="504" y1="710.1" x2="504" y2="719.1"/>
	</g>
	<g id="LINE_112_">
		<line class="st0" x1="540" y1="719.1" x2="504" y2="719.1"/>
	</g>
	<g id="LINE_113_">
		<line class="st0" x1="540" y1="710.1" x2="540" y2="719.1"/>
	</g>
	<g id="LINE_114_">
		<line class="st0" x1="576" y1="710.1" x2="540" y2="710.1"/>
	</g>
	<g id="LINE_115_">
		<line class="st0" x1="576" y1="710.1" x2="576" y2="719.1"/>
	</g>
	<g id="LINE_116_">
		<line class="st0" x1="612" y1="719.1" x2="576" y2="719.1"/>
	</g>
	<g id="LINE_117_">
		<line class="st0" x1="612" y1="710.1" x2="612" y2="719.1"/>
	</g>
	<g id="LINE_118_">
		<line class="st0" x1="648" y1="710.1" x2="612" y2="710.1"/>
	</g>
	<g id="LINE_119_">
		<line class="st0" x1="648" y1="710.1" x2="648" y2="719.1"/>
	</g>
	<g id="LINE_120_">
		<line class="st0" x1="684" y1="719.1" x2="648" y2="719.1"/>
	</g>
	<g id="LINE_121_">
		<line class="st0" x1="684" y1="710.1" x2="684" y2="719.1"/>
	</g>
	<g id="LINE_122_">
		<line class="st0" x1="720" y1="710.1" x2="684" y2="710.1"/>
	</g>
	<g id="LINE_123_">
		<line class="st0" x1="720" y1="710.1" x2="720" y2="719.1"/>
	</g>
	<g id="LINE_124_">
		<line class="st0" x1="756" y1="719.1" x2="720" y2="719.1"/>
	</g>
	<g id="LINE_125_">
		<line class="st0" x1="756" y1="710.1" x2="756" y2="719.1"/>
	</g>
	<g id="LINE_126_">
		<line class="st0" x1="792" y1="710.1" x2="756" y2="710.1"/>
	</g>
	<g id="LINE_127_">
		<line class="st0" x1="792" y1="710.1" x2="792" y2="719.1"/>
	</g>
	<g id="LINE_128_">
		<line class="st0" x1="828" y1="719.1" x2="792" y2="719.1"/>
	</g>
	<g id="LINE_129_">
		<line class="st0" x1="828" y1="710.1" x2="828" y2="719.1"/>
	</g>
	<g id="LINE_130_">
		<line class="st0" x1="864" y1="710.1" x2="828" y2="710.1"/>
	</g>
	<g id="LINE_131_">
		<line class="st0" x1="864" y1="710.1" x2="864" y2="719.1"/>
	</g>
	<g id="LINE_132_">
		<line class="st0" x1="895" y1="719.1" x2="864" y2="719.1"/>
	</g>
	<g id="CIRCLE">
		<path class="st0" d="M-85.8,166.5c0-9.4,7.6-17,17-17s17,7.6,17,17s-7.6,17-17,17S-85.8,175.9-85.8,166.5L-85.8,166.5z"/>
	</g>
	<g id="CIRCLE_1_">
		<path class="st0" d="M-85.8,256.5c0-9.4,7.6-17,17-17s17,7.6,17,17s-7.6,17-17,17S-85.8,265.9-85.8,256.5L-85.8,256.5z"/>
	</g>
	<g id="CIRCLE_2_">
		<path class="st0" d="M-85.8,346.5c0-9.4,7.6-17,17-17s17,7.6,17,17s-7.6,17-17,17S-85.8,355.9-85.8,346.5L-85.8,346.5z"/>
	</g>
	<g id="CIRCLE_3_">
		<path class="st0" d="M-85.8,436.5c0-9.4,7.6-17,17-17s17,7.6,17,17s-7.6,17-17,17S-85.8,445.9-85.8,436.5L-85.8,436.5z"/>
	</g>
	<g id="CIRCLE_4_">
		<path class="st0" d="M-85.8,526.5c0-9.4,7.6-17,17-17s17,7.6,17,17s-7.6,17-17,17S-85.8,535.9-85.8,526.5L-85.8,526.5z"/>
	</g>
	<g id="CIRCLE_5_">
		<path class="st0" d="M-85.8,616.5c0-9.4,7.6-17,17-17s17,7.6,17,17s-7.6,17-17,17S-85.8,625.9-85.8,616.5L-85.8,616.5z"/>
	</g>
	<g id="CIRCLE_6_">
		<path class="st0" d="M164.1,166.5c0-9.4,7.6-17,17-17s17,7.6,17,17s-7.6,17-17,17S164.1,175.9,164.1,166.5L164.1,166.5z"/>
	</g>
	<g id="CIRCLE_7_">
		<path class="st0" d="M164.1,256.5c0-9.4,7.6-17,17-17s17,7.6,17,17s-7.6,17-17,17S164.1,265.9,164.1,256.5L164.1,256.5z"/>
	</g>
	<g id="CIRCLE_8_">
		<path class="st0" d="M164.1,346.5c0-9.4,7.6-17,17-17s17,7.6,17,17s-7.6,17-17,17S164.1,355.9,164.1,346.5L164.1,346.5z"/>
	</g>
	<g id="CIRCLE_9_">
		<path class="st0" d="M164.1,436.5c0-9.4,7.6-17,17-17s17,7.6,17,17s-7.6,17-17,17S164.1,445.9,164.1,436.5L164.1,436.5z"/>
	</g>
	<g id="CIRCLE_10_">
		<path class="st0" d="M164.1,526.5c0-9.4,7.6-17,17-17s17,7.6,17,17s-7.6,17-17,17S164.1,535.9,164.1,526.5L164.1,526.5z"/>
	</g>
	<g id="CIRCLE_11_">
		<path class="st0" d="M164.1,616.5c0-9.4,7.6-17,17-17s17,7.6,17,17s-7.6,17-17,17S164.1,625.9,164.1,616.5L164.1,616.5z"/>
	</g>
	<g id="CIRCLE_12_">
		<path class="st0" d="M413.9,166.5c0-9.4,7.6-17,17-17s17,7.6,17,17s-7.6,17-17,17S413.9,175.9,413.9,166.5L413.9,166.5z"/>
	</g>
	<g id="CIRCLE_13_">
		<path class="st0" d="M413.9,256.5c0-9.4,7.6-17,17-17s17,7.6,17,17s-7.6,17-17,17S413.9,265.9,413.9,256.5L413.9,256.5z"/>
	</g>
	<g id="CIRCLE_14_">
		<path class="st0" d="M413.9,346.5c0-9.4,7.6-17,17-17s17,7.6,17,17s-7.6,17-17,17S413.9,355.9,413.9,346.5L413.9,346.5z"/>
	</g>
	<g id="CIRCLE_15_">
		<path class="st0" d="M413.9,436.5c0-9.4,7.6-17,17-17s17,7.6,17,17s-7.6,17-17,17S413.9,445.9,413.9,436.5L413.9,436.5z"/>
	</g>
	<g id="CIRCLE_16_">
		<path class="st0" d="M413.9,526.5c0-9.4,7.6-17,17-17s17,7.6,17,17s-7.6,17-17,17S413.9,535.9,413.9,526.5L413.9,526.5z"/>
	</g>
	<g id="CIRCLE_17_">
		<path class="st0" d="M413.9,616.5c0-9.4,7.6-17,17-17s17,7.6,17,17s-7.6,17-17,17S413.9,625.9,413.9,616.5L413.9,616.5z"/>
	</g>
	<g id="CIRCLE_18_">
		<path class="st0" d="M663.8,166.5c0-9.4,7.6-17,17-17s17,7.6,17,17s-7.6,17-17,17S663.8,175.9,663.8,166.5L663.8,166.5z"/>
	</g>
	<g id="CIRCLE_19_">
		<path class="st0" d="M663.8,256.5c0-9.4,7.6-17,17-17s17,7.6,17,17s-7.6,17-17,17S663.8,265.9,663.8,256.5L663.8,256.5z"/>
	</g>
	<g id="CIRCLE_20_">
		<path class="st0" d="M663.8,346.5c0-9.4,7.6-17,17-17s17,7.6,17,17s-7.6,17-17,17S663.8,355.9,663.8,346.5L663.8,346.5z"/>
	</g>
	<g id="CIRCLE_21_">
		<path class="st0" d="M663.8,436.5c0-9.4,7.6-17,17-17s17,7.6,17,17s-7.6,17-17,17S663.8,445.9,663.8,436.5L663.8,436.5z"/>
	</g>
	<g id="CIRCLE_22_">
		<path class="st0" d="M663.8,526.5c0-9.4,7.6-17,17-17s17,7.6,17,17s-7.6,17-17,17S663.8,535.9,663.8,526.5L663.8,526.5z"/>
	</g>
	<g id="CIRCLE_23_">
		<path class="st0" d="M663.8,616.5c0-9.4,7.6-17,17-17s17,7.6,17,17s-7.6,17-17,17S663.8,625.9,663.8,616.5L663.8,616.5z"/>
	</g>
	<g id="LINE_133_">
		<line class="st0" x1="-265" y1="643.5" x2="-265" y2="679.5"/>
	</g>
	<g id="LINE_134_">
		<line class="st0" x1="-265" y1="643.5" x2="-256" y2="643.5"/>
	</g>
	<g id="LINE_135_">
		<line class="st0" x1="-256" y1="643.5" x2="-256" y2="679.5"/>
	</g>
	<g id="LINE_136_">
		<line class="st0" x1="-265" y1="679.5" x2="-256" y2="679.5"/>
	</g>
	<g id="LINE_137_">
		<line class="st0" x1="-265" y1="553.5" x2="-265" y2="589.5"/>
	</g>
	<g id="LINE_138_">
		<line class="st0" x1="-265" y1="553.5" x2="-256" y2="553.5"/>
	</g>
	<g id="LINE_139_">
		<line class="st0" x1="-256" y1="553.5" x2="-256" y2="589.5"/>
	</g>
	<g id="LINE_140_">
		<line class="st0" x1="-265" y1="589.5" x2="-256" y2="589.5"/>
	</g>
	<g id="LINE_141_">
		<line class="st0" x1="-265" y1="463.5" x2="-265" y2="499.5"/>
	</g>
	<g id="LINE_142_">
		<line class="st0" x1="-265" y1="463.5" x2="-256" y2="463.5"/>
	</g>
	<g id="LINE_143_">
		<line class="st0" x1="-256" y1="463.5" x2="-256" y2="499.5"/>
	</g>
	<g id="LINE_144_">
		<line class="st0" x1="-265" y1="499.5" x2="-256" y2="499.5"/>
	</g>
	<g id="LINE_145_">
		<line class="st0" x1="-265" y1="373.5" x2="-265" y2="409.5"/>
	</g>
	<g id="LINE_146_">
		<line class="st0" x1="-265" y1="373.5" x2="-256" y2="373.5"/>
	</g>
	<g id="LINE_147_">
		<line class="st0" x1="-256" y1="373.5" x2="-256" y2="409.5"/>
	</g>
	<g id="LINE_148_">
		<line class="st0" x1="-265" y1="409.5" x2="-256" y2="409.5"/>
	</g>
	<g id="LINE_149_">
		<line class="st0" x1="-265" y1="283.5" x2="-265" y2="319.5"/>
	</g>
	<g id="LINE_150_">
		<line class="st0" x1="-265" y1="283.5" x2="-256" y2="283.5"/>
	</g>
	<g id="LINE_151_">
		<line class="st0" x1="-256" y1="283.5" x2="-256" y2="319.5"/>
	</g>
	<g id="LINE_152_">
		<line class="st0" x1="-265" y1="319.5" x2="-256" y2="319.5"/>
	</g>
	<g id="LINE_153_">
		<line class="st0" x1="-265" y1="193.5" x2="-265" y2="229.5"/>
	</g>
	<g id="LINE_154_">
		<line class="st0" x1="-265" y1="193.5" x2="-256" y2="193.5"/>
	</g>
	<g id="LINE_155_">
		<line class="st0" x1="-256" y1="193.5" x2="-256" y2="229.5"/>
	</g>
	<g id="LINE_156_">
		<line class="st0" x1="-265" y1="229.5" x2="-256" y2="229.5"/>
	</g>
	<g id="LINE_157_">
		<line class="st0" x1="-265" y1="103.5" x2="-265" y2="139.5"/>
	</g>
	<g id="LINE_158_">
		<line class="st0" x1="-265" y1="103.5" x2="-256" y2="103.5"/>
	</g>
	<g id="LINE_159_">
		<line class="st0" x1="-256" y1="103.5" x2="-256" y2="139.5"/>
	</g>
	<g id="LINE_160_">
		<line class="st0" x1="-265" y1="139.5" x2="-256" y2="139.5"/>
	</g>
	<g id="LINE_161_">
		<line class="st0" x1="868" y1="589.5" x2="868" y2="553.5"/>
	</g>
	<g id="LINE_162_">
		<line class="st0" x1="868" y1="553.5" x2="877" y2="553.5"/>
	</g>
	<g id="LINE_163_">
		<line class="st0" x1="877" y1="553.5" x2="877" y2="589.5"/>
	</g>
	<g id="LINE_164_">
		<line class="st0" x1="868" y1="589.5" x2="877" y2="589.5"/>
	</g>
	<g id="LINE_165_">
		<line class="st0" x1="868" y1="679.5" x2="868" y2="643.5"/>
	</g>
	<g id="LINE_166_">
		<line class="st0" x1="868" y1="643.5" x2="877" y2="643.5"/>
	</g>
	<g id="LINE_167_">
		<line class="st0" x1="877" y1="643.5" x2="877" y2="679.5"/>
	</g>
	<g id="LINE_168_">
		<line class="st0" x1="868" y1="679.5" x2="877" y2="679.5"/>
	</g>
	<g id="LINE_169_">
		<line class="st0" x1="868" y1="499.5" x2="868" y2="463.5"/>
	</g>
	<g id="LINE_170_">
		<line class="st0" x1="868" y1="463.5" x2="877" y2="463.5"/>
	</g>
	<g id="LINE_171_">
		<line class="st0" x1="877" y1="463.5" x2="877" y2="499.5"/>
	</g>
	<g id="LINE_172_">
		<line class="st0" x1="868" y1="499.5" x2="877" y2="499.5"/>
	</g>
	<g id="LINE_173_">
		<line class="st0" x1="868" y1="409.5" x2="868" y2="373.5"/>
	</g>
	<g id="LINE_174_">
		<line class="st0" x1="868" y1="373.5" x2="877" y2="373.5"/>
	</g>
	<g id="LINE_175_">
		<line class="st0" x1="877" y1="373.5" x2="877" y2="409.5"/>
	</g>
	<g id="LINE_176_">
		<line class="st0" x1="868" y1="409.5" x2="877" y2="409.5"/>
	</g>
	<g id="LINE_177_">
		<line class="st0" x1="868" y1="319.5" x2="868" y2="283.5"/>
	</g>
	<g id="LINE_178_">
		<line class="st0" x1="868" y1="283.5" x2="877" y2="283.5"/>
	</g>
	<g id="LINE_179_">
		<line class="st0" x1="877" y1="283.5" x2="877" y2="319.5"/>
	</g>
	<g id="LINE_180_">
		<line class="st0" x1="868" y1="319.5" x2="877" y2="319.5"/>
	</g>
	<g id="LINE_181_">
		<line class="st0" x1="868" y1="229.5" x2="868" y2="193.5"/>
	</g>
	<g id="LINE_182_">
		<line class="st0" x1="868" y1="193.5" x2="877" y2="193.5"/>
	</g>
	<g id="LINE_183_">
		<line class="st0" x1="877" y1="193.5" x2="877" y2="229.5"/>
	</g>
	<g id="LINE_184_">
		<line class="st0" x1="868" y1="229.5" x2="877" y2="229.5"/>
	</g>
	<g id="LINE_185_">
		<line class="st0" x1="868" y1="139.5" x2="868" y2="103.5"/>
	</g>
	<g id="LINE_186_">
		<line class="st0" x1="868" y1="103.5" x2="877" y2="103.5"/>
	</g>
	<g id="LINE_187_">
		<line class="st0" x1="877" y1="103.5" x2="877" y2="139.5"/>
	</g>
	<g id="LINE_188_">
		<line class="st0" x1="868" y1="139.5" x2="877" y2="139.5"/>
	</g>
	<g id="ARC_32_">
		<path class="st0" d="M346.2,350.3c-22.4-21.8-58.1-21.8-80.5,0"/>
	</g>
	<g id="LINE_189_">
		<line class="st0" x1="346.2" y1="350.3" x2="306" y2="371.2"/>
	</g>
	<g id="LINE_190_">
		<line class="st0" x1="265.8" y1="350.3" x2="306" y2="371.2"/>
	</g>
	<g id="LINE_191_">
		<line class="st0" x1="-174.7" y1="161.7" x2="-139.6" y2="180"/>
	</g>
	<g id="ARC_33_">
		<path class="st0" d="M-139.6,180c-64.5,135.9-63.5,293.9,2.9,428.9"/>
	</g>
	<g id="LINE_192_">
		<line class="st0" x1="-136.7" y1="608.9" x2="-171.6" y2="627.7"/>
	</g>
	<g id="ARC_34_">
		<path class="st0" d="M-174.7,161.7c-70.5,147.6-69.4,319.4,3.1,466"/>
	</g>
	<g id="ARC_35_">
		<path class="st0" d="M850,213.3c-7.8-23.9-17.2-47.2-28.1-69.9"/>
	</g>
	<g id="LINE_193_">
		<line class="st0" x1="821.9" y1="143.4" x2="850" y2="128.8"/>
	</g>
	<g id="LINE_194_">
		<line class="st0" x1="850" y1="128.8" x2="850" y2="213.3"/>
	</g>
	<g id="LINE_195_">
		<line class="st0" x1="798.6" y1="99.9" x2="827.6" y2="99.9"/>
	</g>
	<g id="LINE_196_">
		<line class="st0" x1="827.6" y1="99.9" x2="805.2" y2="111.5"/>
	</g>
	<g id="ARC_36_">
		<path class="st0" d="M805.2,111.5c-2.2-3.9-4.4-7.8-6.7-11.6"/>
	</g>
	<g id="LINE_197_">
		<line class="st0" x1="748.7" y1="608.9" x2="783.6" y2="627.7"/>
	</g>
	<g id="ARC_37_">
		<path class="st0" d="M748.7,608.9c66.3-135.1,67.4-293,2.9-428.9"/>
	</g>
	<g id="LINE_198_">
		<line class="st0" x1="751.6" y1="180" x2="786.7" y2="161.7"/>
	</g>
	<g id="ARC_38_">
		<path class="st0" d="M783.6,627.7c72.5-146.6,73.7-318.4,3.1-466"/>
	</g>
	<g id="LINE_199_">
		<line class="st0" x1="697" y1="692.1" x2="745.9" y2="692.1"/>
	</g>
	<g id="ARC_39_">
		<path class="st0" d="M697,692.1c12.6-16.4,24.2-33.6,34.6-51.5"/>
	</g>
	<g id="LINE_200_">
		<line class="st0" x1="731.6" y1="640.6" x2="766.6" y2="659.4"/>
	</g>
	<g id="ARC_40_">
		<path class="st0" d="M745.9,692.1c7.3-10.7,14.2-21.6,20.7-32.7"/>
	</g>
	<g id="LINE_201_">
		<line class="st0" x1="793.1" y1="692.1" x2="827.4" y2="692.1"/>
	</g>
	<g id="ARC_41_">
		<path class="st0" d="M793.1,692.1c2.8-4.6,5.6-9.3,8.3-14"/>
	</g>
	<g id="LINE_202_">
		<line class="st0" x1="801.5" y1="678.1" x2="827.4" y2="692.1"/>
	</g>
	<g id="ARC_42_">
		<path class="st0" d="M818.5,646.4c12.3-24.8,22.8-50.4,31.5-76.8"/>
	</g>
	<g id="LINE_203_">
		<line class="st0" x1="850" y1="569.7" x2="850" y2="663.3"/>
	</g>
	<g id="LINE_204_">
		<line class="st0" x1="818.5" y1="646.4" x2="850" y2="663.3"/>
	</g>
	<g id="LINE_205_">
		<line class="st0" x1="-238" y1="128.8" x2="-238" y2="213.3"/>
	</g>
	<g id="LINE_206_">
		<line class="st0" x1="-238" y1="128.8" x2="-209.9" y2="143.4"/>
	</g>
	<g id="ARC_43_">
		<path class="st0" d="M-209.9,143.4c-10.9,22.7-20.3,46-28.1,69.9"/>
	</g>
	<g id="LINE_207_">
		<line class="st0" x1="-238" y1="569.7" x2="-238" y2="663.3"/>
	</g>
	<g id="ARC_44_">
		<path class="st0" d="M-238,569.7c8.6,26.3,19.1,52,31.5,76.8"/>
	</g>
	<g id="LINE_208_">
		<line class="st0" x1="-206.5" y1="646.4" x2="-238" y2="663.3"/>
	</g>
	<g id="LINE_209_">
		<line class="st0" x1="-215.4" y1="692.1" x2="-181.1" y2="692.1"/>
	</g>
	<g id="LINE_210_">
		<line class="st0" x1="-215.4" y1="692.1" x2="-189.5" y2="678.1"/>
	</g>
	<g id="ARC_45_">
		<path class="st0" d="M-189.5,678.1c2.7,4.7,5.5,9.3,8.3,14"/>
	</g>
	<g id="LINE_211_">
		<line class="st0" x1="-215.6" y1="99.9" x2="-193.2" y2="111.5"/>
	</g>
	<g id="LINE_212_">
		<line class="st0" x1="-215.6" y1="99.9" x2="-186.6" y2="99.9"/>
	</g>
	<g id="ARC_46_">
		<path class="st0" d="M-186.6,99.9c-2.3,3.8-4.5,7.7-6.7,11.6"/>
	</g>
	<g id="LINE_213_">
		<line class="st0" x1="488.6" y1="276.2" x2="453.4" y2="294.5"/>
	</g>
	<g id="ARC_47_">
		<path class="st0" d="M453.4,294.5c-1.5-2.3-3.1-4.5-4.7-6.7"/>
	</g>
	<g id="ARC_48_">
		<path class="st0" d="M448.7,287.8c14.8-8.4,21.7-26.1,16.5-42.3"/>
	</g>
	<g id="ARC_49_">
		<path class="st0" d="M488.6,276.2c-6.9-10.9-14.7-21.2-23.4-30.7"/>
	</g>
	<g id="ARC_50_">
		<path class="st0" d="M465.2,537.5c5.2-16.2-1.7-33.9-16.5-42.3"/>
	</g>
	<g id="ARC_51_">
		<path class="st0" d="M448.7,495.2c1.1-1.6,2.3-3.2,3.4-4.8"/>
	</g>
	<g id="LINE_214_">
		<line class="st0" x1="452.1" y1="490.4" x2="487.1" y2="509.2"/>
	</g>
	<g id="ARC_52_">
		<path class="st0" d="M465.2,537.5c8.1-8.8,15.4-18.2,21.9-28.2"/>
	</g>
	<g id="LINE_215_">
		<line class="st0" x1="469.1" y1="458.7" x2="504.1" y2="477.5"/>
	</g>
	<g id="ARC_53_">
		<path class="st0" d="M469.1,458.7c17.4-42.3,17.7-89.7,0.9-132.2"/>
	</g>
	<g id="LINE_216_">
		<line class="st0" x1="470" y1="326.5" x2="505.3" y2="308.1"/>
	</g>
	<g id="ARC_54_">
		<path class="st0" d="M504.1,477.5c23.4-54,23.8-115.1,1.1-169.4"/>
	</g>
	<g id="ARC_55_">
		<path class="st0" d="M89.9,528c16.4,26,37.4,48.8,62,67.4"/>
	</g>
	<g id="ARC_56_">
		<path class="st0" d="M151.9,595.4c-11.6,16.1-8,38.6,8.1,50.3c16.1,11.6,38.6,8,50.3-8.1c1.7-2.3,3.1-4.8,4.1-7.5"/>
	</g>
	<g id="ARC_57_">
		<path class="st0" d="M214.4,630.1c59,22.6,124.2,22.6,183.2,0"/>
	</g>
	<g id="ARC_58_">
		<path class="st0" d="M397.6,630.1c7.5,18.4,28.5,27.2,46.9,19.7s27.2-28.5,19.7-46.9c-1.1-2.6-2.5-5.1-4.1-7.5"/>
	</g>
	<g id="ARC_59_">
		<path class="st0" d="M460.1,595.4c24.5-18.5,45.5-41.4,62-67.4"/>
	</g>
	<g id="LINE_217_">
		<line class="st0" x1="522.1" y1="528" x2="557" y2="546.8"/>
	</g>
	<g id="ARC_60_">
		<path class="st0" d="M55,546.8c85.8,138.6,267.7,181.5,406.4,95.7c38.9-24.1,71.7-56.8,95.7-95.7"/>
	</g>
	<g id="LINE_218_">
		<line class="st0" x1="55" y1="546.8" x2="89.9" y2="528"/>
	</g>
	<g id="LINE_219_">
		<line class="st0" x1="124.9" y1="509.2" x2="159.9" y2="490.4"/>
	</g>
	<g id="ARC_61_">
		<path class="st0" d="M159.9,490.4c1.1,1.6,2.2,3.2,3.4,4.8"/>
	</g>
	<g id="ARC_62_">
		<path class="st0" d="M163.3,495.2c-14.8,8.4-21.7,26.1-16.5,42.3"/>
	</g>
	<g id="ARC_63_">
		<path class="st0" d="M124.9,509.2c6.5,10,13.8,19.4,21.9,28.2"/>
	</g>
	<g id="LINE_220_">
		<line class="st0" x1="106.7" y1="308.1" x2="142" y2="326.5"/>
	</g>
	<g id="ARC_64_">
		<path class="st0" d="M142,326.5c-16.9,42.5-16.5,89.9,0.9,132.2"/>
	</g>
	<g id="LINE_221_">
		<line class="st0" x1="142.9" y1="458.7" x2="107.9" y2="477.5"/>
	</g>
	<g id="ARC_65_">
		<path class="st0" d="M106.7,308.1c-22.7,54.3-22.3,115.4,1.1,169.4"/>
	</g>
	<g id="ARC_66_">
		<path class="st0" d="M146.8,245.5c-8.7,9.5-16.6,19.8-23.4,30.7"/>
	</g>
	<g id="ARC_67_">
		<path class="st0" d="M146.8,245.5c-5.2,16.2,1.7,33.9,16.5,42.3"/>
	</g>
	<g id="ARC_68_">
		<path class="st0" d="M163.3,287.8c-1.6,2.2-3.2,4.5-4.7,6.7"/>
	</g>
	<g id="LINE_222_">
		<line class="st0" x1="123.4" y1="276.2" x2="158.6" y2="294.5"/>
	</g>
	<g id="LINE_223_">
		<line class="st0" x1="539.1" y1="496.3" x2="574.1" y2="515.1"/>
	</g>
	<g id="ARC_69_">
		<path class="st0" d="M539.1,496.3c29.5-65.6,30-140.5,1.4-206.5"/>
	</g>
	<g id="LINE_224_">
		<line class="st0" x1="540.5" y1="289.8" x2="575.7" y2="271.5"/>
	</g>
	<g id="ARC_70_">
		<path class="st0" d="M574.1,515.1c35.6-77.2,36.2-166,1.6-243.6"/>
	</g>
	<g id="ARC_71_">
		<path class="st0" d="M418,312.9c-43.4-61.8-128.7-76.8-190.6-33.4c-13,9.1-24.3,20.4-33.4,33.4"/>
	</g>
	<g id="ARC_72_">
		<path class="st0" d="M418,312.9c-2.6,1-5.1,2.3-7.5,3.9"/>
	</g>
	<g id="LINE_225_">
		<line class="st0" x1="410.5" y1="316.8" x2="382.4" y2="331.4"/>
	</g>
	<g id="ARC_73_">
		<path class="st0" d="M382.4,331.4c-33.2-42.2-94.3-49.5-136.5-16.4c-6.1,4.8-11.6,10.3-16.4,16.4"/>
	</g>
	<g id="LINE_226_">
		<line class="st0" x1="201.5" y1="316.8" x2="229.6" y2="331.4"/>
	</g>
	<g id="ARC_74_">
		<path class="st0" d="M201.5,316.8c-2.3-1.6-4.8-2.9-7.5-3.9"/>
	</g>
	<g id="ARC_75_">
		<path class="st0" d="M266.3,433.3c22.2,21.1,57.1,21.1,79.4,0"/>
	</g>
	<g id="LINE_227_">
		<line class="st0" x1="266.3" y1="433.3" x2="306" y2="411.9"/>
	</g>
	<g id="LINE_228_">
		<line class="st0" x1="306" y1="411.9" x2="345.7" y2="433.3"/>
	</g>
	<g id="ARC_76_">
		<path class="st0" d="M249.2,382.2c-1,6.4-1,12.9,0.1,19.3"/>
	</g>
	<g id="LINE_229_">
		<line class="st0" x1="249.2" y1="382.2" x2="267.5" y2="391.8"/>
	</g>
	<g id="LINE_230_">
		<line class="st0" x1="267.5" y1="391.8" x2="249.3" y2="401.5"/>
	</g>
	<g id="ARC_77_">
		<path class="st0" d="M523.9,257.9c-16.7-27.2-38.3-51-63.8-70.3"/>
	</g>
	<g id="ARC_78_">
		<path class="st0" d="M460.1,187.6c11.6-16.1,8-38.6-8.1-50.3c-16.1-11.6-38.6-8-50.3,8.1c-1.7,2.3-3.1,4.8-4.1,7.5"/>
	</g>
	<g id="ARC_79_">
		<path class="st0" d="M397.6,152.9c-59-22.6-124.2-22.6-183.2,0"/>
	</g>
	<g id="ARC_80_">
		<path class="st0" d="M214.4,152.9c-7.5-18.4-28.5-27.2-46.9-19.7c-18.4,7.5-27.2,28.5-19.7,46.9c1.1,2.6,2.5,5.1,4.1,7.5"/>
	</g>
	<g id="ARC_81_">
		<path class="st0" d="M151.9,187.6c-25.5,19.2-47.1,43.1-63.8,70.3"/>
	</g>
	<g id="LINE_231_">
		<line class="st0" x1="52.9" y1="239.6" x2="88.1" y2="257.9"/>
	</g>
	<g id="ARC_82_">
		<path class="st0" d="M260.1,99.9c-86.3,13.6-162.2,64.7-207.2,139.7"/>
	</g>
	<g id="LINE_232_">
		<line class="st0" x1="260.1" y1="99.9" x2="351.9" y2="99.9"/>
	</g>
	<g id="ARC_83_">
		<path class="st0" d="M559.1,239.6c-45-74.9-120.8-126.1-207.2-139.7"/>
	</g>
	<g id="LINE_233_">
		<line class="st0" x1="559.1" y1="239.6" x2="523.9" y2="257.9"/>
	</g>
	<g id="ARC_84_">
		<path class="st0" d="M439.2,221.5c-16.6-3.9-33.6,4.3-40.9,19.7"/>
	</g>
	<g id="ARC_85_">
		<path class="st0" d="M398.3,241.2c-56.6-34.8-128-34.8-184.7,0"/>
	</g>
	<g id="ARC_86_">
		<path class="st0" d="M213.7,241.2c-7.2-15.4-24.3-23.7-40.9-19.7"/>
	</g>
	<g id="ARC_87_">
		<path class="st0" d="M439.2,221.5c-78.2-61.3-188.2-61.3-266.4,0"/>
	</g>
	<g id="LINE_234_">
		<line class="st0" x1="195.1" y1="471.5" x2="230.4" y2="452.6"/>
	</g>
	<g id="ARC_88_">
		<path class="st0" d="M230.4,452.6c33.7,41.8,94.9,48.3,136.7,14.6c5.4-4.3,10.2-9.2,14.6-14.6"/>
	</g>
	<g id="LINE_235_">
		<line class="st0" x1="381.6" y1="452.6" x2="416.9" y2="471.5"/>
	</g>
	<g id="ARC_89_">
		<path class="st0" d="M195.1,471.5c44.2,61.3,129.7,75.1,191,30.9c11.9-8.6,22.3-19,30.9-30.9"/>
	</g>
	<g id="ARC_90_">
		<path class="st0" d="M172.8,561.5c16.6,3.9,33.6-4.3,40.9-19.7"/>
	</g>
	<g id="ARC_91_">
		<path class="st0" d="M213.7,541.8c56.6,34.8,128,34.8,184.7,0"/>
	</g>
	<g id="ARC_92_">
		<path class="st0" d="M398.3,541.8c7.2,15.4,24.3,23.7,40.9,19.7"/>
	</g>
	<g id="ARC_93_">
		<path class="st0" d="M172.8,561.5c78.2,61.3,188.2,61.3,266.4,0"/>
	</g>
	<g id="ARC_94_">
		<path class="st0" d="M71.2,99.9c-35.6,28.7-65.6,63.6-88.6,103.1"/>
	</g>
	<g id="LINE_236_">
		<line class="st0" x1="71.2" y1="99.9" x2="141.5" y2="99.9"/>
	</g>
	<g id="ARC_95_">
		<path class="st0" d="M141.5,99.9c-51.2,28.9-93.9,70.7-123.8,121.4"/>
	</g>
	<g id="LINE_237_">
		<line class="st0" x1="-17.5" y1="202.9" x2="17.7" y2="221.2"/>
	</g>
	<g id="ARC_96_">
		<path class="st0" d="M-93.4,282.7c-19.4,71.2-19.4,146.4,0,217.6"/>
	</g>
	<g id="ARC_97_">
		<path class="st0" d="M-93.4,500.3c-14.5,13.6-15.1,36.4-1.5,50.9c6.3,6.6,14.8,10.7,23.9,11.2"/>
	</g>
	<g id="ARC_98_">
		<path class="st0" d="M-71.1,562.4c1.4,3,2.8,6,4.2,9"/>
	</g>
	<g id="LINE_238_">
		<line class="st0" x1="-66.9" y1="571.4" x2="-101.8" y2="590.2"/>
	</g>
	<g id="ARC_99_">
		<path class="st0" d="M-104.4,198.3c-58.5,124.3-57.5,268.4,2.6,391.9"/>
	</g>
	<g id="LINE_239_">
		<line class="st0" x1="-104.4" y1="198.3" x2="-69.2" y2="216.6"/>
	</g>
	<g id="ARC_100_">
		<path class="st0" d="M-69.2,216.6c-0.6,1.3-1.2,2.7-1.8,4"/>
	</g>
	<g id="ARC_101_">
		<path class="st0" d="M-71.1,220.6c-19.8,1.3-34.9,18.4-33.6,38.2c0.6,9.1,4.6,17.6,11.2,23.9"/>
	</g>
	<g id="ARC_102_">
		<path class="st0" d="M705.4,500.3c19.4-71.2,19.4-146.4,0-217.6"/>
	</g>
	<g id="ARC_103_">
		<path class="st0" d="M705.4,282.7c14.5-13.6,15.1-36.4,1.5-50.9c-6.3-6.6-14.8-10.7-23.9-11.2"/>
	</g>
	<g id="ARC_104_">
		<path class="st0" d="M683.1,220.6c-0.6-1.3-1.2-2.7-1.8-4"/>
	</g>
	<g id="LINE_240_">
		<line class="st0" x1="681.2" y1="216.6" x2="716.4" y2="198.3"/>
	</g>
	<g id="ARC_105_">
		<path class="st0" d="M713.8,590.2c60.2-123.5,61.1-267.6,2.6-391.9"/>
	</g>
	<g id="LINE_241_">
		<line class="st0" x1="678.9" y1="571.4" x2="713.8" y2="590.2"/>
	</g>
	<g id="ARC_106_">
		<path class="st0" d="M678.9,571.4c1.4-3,2.8-6,4.2-9"/>
	</g>
	<g id="ARC_107_">
		<path class="st0" d="M683.1,562.4c19.8-1.3,34.9-18.4,33.6-38.2c-0.6-9.1-4.6-17.6-11.2-23.9"/>
	</g>
	<g id="LINE_242_">
		<line class="st0" x1="590.7" y1="692.1" x2="645.7" y2="692.1"/>
	</g>
	<g id="ARC_108_">
		<path class="st0" d="M590.7,692.1c20.8-19.7,39.4-41.4,55.7-64.9"/>
	</g>
	<g id="ARC_109_">
		<path class="st0" d="M646.4,627.2c4.3,13.8,16.4,23.7,30.7,25.1"/>
	</g>
	<g id="ARC_110_">
		<path class="st0" d="M645.7,692.1c11.2-12.7,21.7-26,31.4-39.8"/>
	</g>
	<g id="ARC_111_">
		<path class="st0" d="M-41.4,99.9c-8.3,9.9-16.2,20.2-23.7,30.8"/>
	</g>
	<g id="LINE_243_">
		<line class="st0" x1="-41.4" y1="99.9" x2="12.1" y2="99.9"/>
	</g>
	<g id="ARC_112_">
		<path class="st0" d="M12.1,99.9c-17.1,17.2-32.7,36-46.5,55.9"/>
	</g>
	<g id="ARC_113_">
		<path class="st0" d="M-34.4,155.8c-4.3-13.8-16.4-23.7-30.7-25.1"/>
	</g>
	<g id="ARC_114_">
		<path class="st0" d="M677.1,130.7c-7.4-10.6-15.3-20.9-23.7-30.8"/>
	</g>
	<g id="ARC_115_">
		<path class="st0" d="M677.1,130.7c-14.4,1.5-26.5,11.4-30.7,25.1"/>
	</g>
	<g id="ARC_116_">
		<path class="st0" d="M646.4,155.8c-13.8-20-29.4-38.7-46.5-55.9"/>
	</g>
	<g id="LINE_244_">
		<line class="st0" x1="599.9" y1="99.9" x2="653.4" y2="99.9"/>
	</g>
	<g id="ARC_117_">
		<path class="st0" d="M770.1,129.8c-5.7-10.2-11.8-20.1-18.2-29.9"/>
	</g>
	<g id="LINE_245_">
		<line class="st0" x1="770.1" y1="129.8" x2="734.9" y2="148.1"/>
	</g>
	<g id="ARC_118_">
		<path class="st0" d="M734.9,148.1c-9.5-16.7-19.9-32.7-31.2-48.2"/>
	</g>
	<g id="LINE_246_">
		<line class="st0" x1="703.8" y1="99.9" x2="751.9" y2="99.9"/>
	</g>
	<g id="ARC_119_">
		<path class="st0" d="M442.4,402.4c0.6-7.2,0.6-14.5,0-21.7"/>
	</g>
	<g id="ARC_120_">
		<path class="st0" d="M442.4,402.4c-16.8-5.6-35.3,1.8-43.4,17.6"/>
	</g>
	<g id="ARC_121_">
		<path class="st0" d="M398.9,420c5.6-18.4,5.7-38.1,0.1-56.6"/>
	</g>
	<g id="LINE_247_">
		<line class="st0" x1="399" y1="363.4" x2="399.1" y2="363.4"/>
	</g>
	<g id="ARC_122_">
		<path class="st0" d="M399.1,363.4c8.2,15.6,26.6,22.9,43.3,17.3"/>
	</g>
	<g id="ARC_123_">
		<path class="st0" d="M169.6,380.6c-0.6,7.2-0.6,14.5,0,21.7"/>
	</g>
	<g id="ARC_124_">
		<path class="st0" d="M169.6,380.6c16.7,5.6,35-1.7,43.3-17.3"/>
	</g>
	<g id="LINE_248_">
		<line class="st0" x1="212.9" y1="363.4" x2="213" y2="363.4"/>
	</g>
	<g id="ARC_125_">
		<path class="st0" d="M213,363.4c-5.6,18.5-5.5,38.2,0.1,56.6"/>
	</g>
	<g id="ARC_126_">
		<path class="st0" d="M213.1,420c-8.2-15.8-26.6-23.3-43.4-17.6"/>
	</g>
	<g id="LINE_249_">
		<line class="st0" x1="36.3" y1="271.5" x2="71.5" y2="289.8"/>
	</g>
	<g id="ARC_127_">
		<path class="st0" d="M71.5,289.8c-28.6,66-28.1,140.9,1.4,206.5"/>
	</g>
	<g id="LINE_250_">
		<line class="st0" x1="72.9" y1="496.3" x2="37.9" y2="515.1"/>
	</g>
	<g id="ARC_128_">
		<path class="st0" d="M36.3,271.5c-34.6,77.7-34,166.4,1.6,243.6"/>
	</g>
	<g id="ARC_129_">
		<path class="st0" d="M629.5,202.9c-23-39.5-53-74.4-88.6-103.1"/>
	</g>
	<g id="LINE_251_">
		<line class="st0" x1="629.5" y1="202.9" x2="594.3" y2="221.2"/>
	</g>
	<g id="ARC_130_">
		<path class="st0" d="M594.3,221.2c-29.9-50.6-72.6-92.5-123.8-121.4"/>
	</g>
	<g id="LINE_252_">
		<line class="st0" x1="470.5" y1="99.9" x2="540.8" y2="99.9"/>
	</g>
	<g id="LINE_253_">
		<line class="st0" x1="453.4" y1="692.1" x2="529.2" y2="692.1"/>
	</g>
	<g id="ARC_131_">
		<path class="st0" d="M453.4,692.1c57.3-28.1,105.4-72,138.6-126.5"/>
	</g>
	<g id="LINE_254_">
		<line class="st0" x1="592" y1="565.6" x2="626.9" y2="584.4"/>
	</g>
	<g id="ARC_132_">
		<path class="st0" d="M529.2,692.1c39.3-29.2,72.5-65.8,97.7-107.7"/>
	</g>
</g>
</svg>
