<?xml version="1.0" encoding="utf-8"?>
<!-- Generator: Adobe Illustrator 22.1.0, SVG Export Plug-In . SVG Version: 6.00 Build 0)  -->
<svg version="1.1" id="Layer_1" xmlns="http://www.w3.org/2000/svg" xmlns:xlink="http://www.w3.org/1999/xlink" x="0px" y="0px"
	 width="612px" height="792px" viewBox="0 0 612 792" style="enable-background:new 0 0 612 792;" xml:space="preserve">
<style type="text/css">
	.st0{fill:none;stroke:#000000;stroke-width:1.1339;stroke-linecap:round;stroke-linejoin:round;stroke-miterlimit:10;}
</style>
<g>
	<g id="LINE">
		<line class="st0" x1="152.1" y1="675.9" x2="119.7" y2="675.9"/>
	</g>
	<g id="ARC">
		<path class="st0" d="M152.1,675.9c2,0,3.6-1.6,3.6-3.6"/>
	</g>
	<g id="LINE_1_">
		<line class="st0" x1="155.7" y1="672.3" x2="155.7" y2="666.9"/>
	</g>
	<g id="LINE_2_">
		<line class="st0" x1="234.9" y1="666.9" x2="155.7" y2="666.9"/>
	</g>
	<g id="LINE_3_">
		<line class="st0" x1="234.9" y1="686.7" x2="234.9" y2="666.9"/>
	</g>
	<g id="ARC_1_">
		<path class="st0" d="M234.9,686.7c0,9.9,8.1,18,18,18c9.9,0,18-8.1,18-18"/>
	</g>
	<g id="LINE_4_">
		<line class="st0" x1="270.9" y1="686.7" x2="270.9" y2="666.9"/>
	</g>
	<g id="LINE_5_">
		<line class="st0" x1="350.1" y1="666.9" x2="270.9" y2="666.9"/>
	</g>
	<g id="LINE_6_">
		<line class="st0" x1="350.1" y1="675.9" x2="350.1" y2="666.9"/>
	</g>
	<g id="LINE_7_">
		<line class="st0" x1="386.1" y1="675.9" x2="350.1" y2="675.9"/>
	</g>
	<g id="LINE_8_">
		<line class="st0" x1="386.1" y1="675.9" x2="386.1" y2="666.9"/>
	</g>
	<g id="LINE_9_">
		<line class="st0" x1="465.3" y1="666.9" x2="386.1" y2="666.9"/>
	</g>
	<g id="LINE_10_">
		<line class="st0" x1="465.3" y1="675.9" x2="465.3" y2="666.9"/>
	</g>
	<g id="LINE_11_">
		<line class="st0" x1="501.3" y1="675.9" x2="465.3" y2="675.9"/>
	</g>
	<g id="LINE_12_">
		<line class="st0" x1="501.3" y1="675.9" x2="501.3" y2="666.9"/>
	</g>
	<g id="LINE_13_">
		<line class="st0" x1="580.5" y1="666.9" x2="501.3" y2="666.9"/>
	</g>
	<g id="LINE_14_">
		<line class="st0" x1="580.5" y1="675.9" x2="580.5" y2="666.9"/>
	</g>
	<g id="LINE_15_">
		<line class="st0" x1="616.5" y1="675.9" x2="580.5" y2="675.9"/>
	</g>
	<g id="LINE_16_">
		<line class="st0" x1="616.5" y1="675.9" x2="616.5" y2="666.9"/>
	</g>
	<g id="LINE_17_">
		<line class="st0" x1="695.7" y1="666.9" x2="616.5" y2="666.9"/>
	</g>
	<g id="LINE_18_">
		<line class="st0" x1="695.7" y1="675.9" x2="695.7" y2="666.9"/>
	</g>
	<g id="LINE_19_">
		<line class="st0" x1="731.7" y1="675.9" x2="695.7" y2="675.9"/>
	</g>
	<g id="LINE_20_">
		<line class="st0" x1="731.7" y1="675.9" x2="731.7" y2="666.9"/>
	</g>
	<g id="LINE_21_">
		<line class="st0" x1="810.9" y1="666.9" x2="731.7" y2="666.9"/>
	</g>
	<g id="LINE_22_">
		<line class="st0" x1="810.9" y1="675.9" x2="810.9" y2="666.9"/>
	</g>
	<g id="LINE_23_">
		<line class="st0" x1="846.9" y1="675.9" x2="810.9" y2="675.9"/>
	</g>
	<g id="LINE_24_">
		<line class="st0" x1="846.9" y1="675.9" x2="846.9" y2="666.9"/>
	</g>
	<g id="LINE_25_">
		<line class="st0" x1="903.6" y1="666.9" x2="846.9" y2="666.9"/>
	</g>
	<g id="LINE_26_">
		<line class="st0" x1="903.6" y1="666.9" x2="903.6" y2="627.3"/>
	</g>
	<g id="LINE_27_">
		<line class="st0" x1="903.6" y1="627.3" x2="894.6" y2="627.3"/>
	</g>
	<g id="LINE_28_">
		<line class="st0" x1="894.6" y1="627.3" x2="894.6" y2="591.3"/>
	</g>
	<g id="LINE_29_">
		<line class="st0" x1="903.6" y1="591.3" x2="894.6" y2="591.3"/>
	</g>
	<g id="LINE_30_">
		<line class="st0" x1="903.6" y1="591.3" x2="903.6" y2="555.3"/>
	</g>
	<g id="LINE_31_">
		<line class="st0" x1="903.6" y1="555.3" x2="894.6" y2="555.3"/>
	</g>
	<g id="LINE_32_">
		<line class="st0" x1="894.6" y1="555.3" x2="894.6" y2="519.3"/>
	</g>
	<g id="LINE_33_">
		<line class="st0" x1="903.6" y1="519.3" x2="894.6" y2="519.3"/>
	</g>
	<g id="LINE_34_">
		<line class="st0" x1="903.6" y1="519.3" x2="903.6" y2="483.3"/>
	</g>
	<g id="LINE_35_">
		<line class="st0" x1="903.6" y1="483.3" x2="894.6" y2="483.3"/>
	</g>
	<g id="LINE_36_">
		<line class="st0" x1="894.6" y1="483.3" x2="894.6" y2="447.3"/>
	</g>
	<g id="LINE_37_">
		<line class="st0" x1="903.6" y1="447.3" x2="894.6" y2="447.3"/>
	</g>
	<g id="LINE_38_">
		<line class="st0" x1="903.6" y1="447.3" x2="903.6" y2="407.7"/>
	</g>
	<g id="LINE_39_">
		<line class="st0" x1="903.6" y1="407.7" x2="873" y2="407.7"/>
	</g>
	<g id="LINE_40_">
		<line class="st0" x1="873" y1="398.7" x2="873" y2="407.7"/>
	</g>
	<g id="LINE_41_">
		<line class="st0" x1="873" y1="398.7" x2="837" y2="398.7"/>
	</g>
	<g id="LINE_42_">
		<line class="st0" x1="837" y1="398.7" x2="837" y2="407.7"/>
	</g>
	<g id="LINE_43_">
		<line class="st0" x1="837" y1="407.7" x2="783" y2="407.7"/>
	</g>
	<g id="LINE_44_">
		<line class="st0" x1="783" y1="398.7" x2="783" y2="407.7"/>
	</g>
	<g id="LINE_45_">
		<line class="st0" x1="783" y1="398.7" x2="747" y2="398.7"/>
	</g>
	<g id="LINE_46_">
		<line class="st0" x1="747" y1="398.7" x2="747" y2="407.7"/>
	</g>
	<g id="LINE_47_">
		<line class="st0" x1="747" y1="407.7" x2="693" y2="407.7"/>
	</g>
	<g id="LINE_48_">
		<line class="st0" x1="693" y1="398.7" x2="693" y2="407.7"/>
	</g>
	<g id="LINE_49_">
		<line class="st0" x1="693" y1="398.7" x2="657" y2="398.7"/>
	</g>
	<g id="LINE_50_">
		<line class="st0" x1="657" y1="398.7" x2="657" y2="407.7"/>
	</g>
	<g id="LINE_51_">
		<line class="st0" x1="657" y1="407.7" x2="603" y2="407.7"/>
	</g>
	<g id="LINE_52_">
		<line class="st0" x1="603" y1="398.7" x2="603" y2="407.7"/>
	</g>
	<g id="LINE_53_">
		<line class="st0" x1="603" y1="398.7" x2="567" y2="398.7"/>
	</g>
	<g id="LINE_54_">
		<line class="st0" x1="567" y1="398.7" x2="567" y2="407.7"/>
	</g>
	<g id="LINE_55_">
		<line class="st0" x1="567" y1="407.7" x2="513" y2="407.7"/>
	</g>
	<g id="LINE_56_">
		<line class="st0" x1="513" y1="398.7" x2="513" y2="407.7"/>
	</g>
	<g id="LINE_57_">
		<line class="st0" x1="513" y1="398.7" x2="477" y2="398.7"/>
	</g>
	<g id="LINE_58_">
		<line class="st0" x1="477" y1="398.7" x2="477" y2="407.7"/>
	</g>
	<g id="LINE_59_">
		<line class="st0" x1="477" y1="407.7" x2="423" y2="407.7"/>
	</g>
	<g id="LINE_60_">
		<line class="st0" x1="423" y1="398.7" x2="423" y2="407.7"/>
	</g>
	<g id="LINE_61_">
		<line class="st0" x1="423" y1="398.7" x2="387" y2="398.7"/>
	</g>
	<g id="LINE_62_">
		<line class="st0" x1="387" y1="398.7" x2="387" y2="407.7"/>
	</g>
	<g id="LINE_63_">
		<line class="st0" x1="387" y1="407.7" x2="333" y2="407.7"/>
	</g>
	<g id="LINE_64_">
		<line class="st0" x1="333" y1="398.7" x2="333" y2="407.7"/>
	</g>
	<g id="LINE_65_">
		<line class="st0" x1="333" y1="398.7" x2="297" y2="398.7"/>
	</g>
	<g id="LINE_66_">
		<line class="st0" x1="297" y1="398.7" x2="297" y2="407.7"/>
	</g>
	<g id="LINE_67_">
		<line class="st0" x1="297" y1="407.7" x2="257.4" y2="407.7"/>
	</g>
	<g id="LINE_68_">
		<line class="st0" x1="257.4" y1="382.5" x2="257.4" y2="407.7"/>
	</g>
	<g id="LINE_69_">
		<line class="st0" x1="266.4" y1="382.5" x2="257.4" y2="382.5"/>
	</g>
	<g id="LINE_70_">
		<line class="st0" x1="266.4" y1="346.5" x2="266.4" y2="382.5"/>
	</g>
	<g id="LINE_71_">
		<line class="st0" x1="266.4" y1="346.5" x2="257.4" y2="346.5"/>
	</g>
	<g id="LINE_72_">
		<line class="st0" x1="257.4" y1="328.5" x2="257.4" y2="346.5"/>
	</g>
	<g id="LINE_73_">
		<line class="st0" x1="266.4" y1="328.5" x2="257.4" y2="328.5"/>
	</g>
	<g id="LINE_74_">
		<line class="st0" x1="266.4" y1="292.5" x2="266.4" y2="328.5"/>
	</g>
	<g id="LINE_75_">
		<line class="st0" x1="266.4" y1="292.5" x2="257.4" y2="292.5"/>
	</g>
	<g id="LINE_76_">
		<line class="st0" x1="257.4" y1="276.3" x2="257.4" y2="292.5"/>
	</g>
	<g id="LINE_77_">
		<line class="st0" x1="266.4" y1="276.3" x2="257.4" y2="276.3"/>
	</g>
	<g id="LINE_78_">
		<line class="st0" x1="266.4" y1="276.3" x2="248.3" y2="258.1"/>
	</g>
	<g id="LINE_79_">
		<line class="st0" x1="254.6" y1="251.8" x2="248.3" y2="258.1"/>
	</g>
	<g id="LINE_80_">
		<line class="st0" x1="229.2" y1="226.3" x2="254.6" y2="251.8"/>
	</g>
	<g id="LINE_81_">
		<line class="st0" x1="229.2" y1="226.3" x2="222.8" y2="232.7"/>
	</g>
	<g id="LINE_82_">
		<line class="st0" x1="222.8" y1="232.7" x2="184.6" y2="194.5"/>
	</g>
	<g id="LINE_83_">
		<line class="st0" x1="191" y1="188.1" x2="184.6" y2="194.5"/>
	</g>
	<g id="LINE_84_">
		<line class="st0" x1="165.5" y1="162.7" x2="191" y2="188.1"/>
	</g>
	<g id="LINE_85_">
		<line class="st0" x1="165.5" y1="162.7" x2="159.2" y2="169"/>
	</g>
	<g id="LINE_86_">
		<line class="st0" x1="159.2" y1="169" x2="121" y2="130.9"/>
	</g>
	<g id="LINE_87_">
		<line class="st0" x1="127.3" y1="124.5" x2="121" y2="130.9"/>
	</g>
	<g id="LINE_88_">
		<line class="st0" x1="101.9" y1="99" x2="127.3" y2="124.5"/>
	</g>
	<g id="LINE_89_">
		<line class="st0" x1="101.9" y1="99" x2="95.5" y2="105.4"/>
	</g>
	<g id="LINE_90_">
		<line class="st0" x1="95.5" y1="105.4" x2="77.4" y2="87.3"/>
	</g>
	<g id="LINE_91_">
		<line class="st0" x1="77.4" y1="96.3" x2="77.4" y2="87.3"/>
	</g>
	<g id="LINE_92_">
		<line class="st0" x1="77.4" y1="96.3" x2="50.4" y2="96.3"/>
	</g>
	<g id="LINE_93_">
		<line class="st0" x1="50.4" y1="87.3" x2="50.4" y2="96.3"/>
	</g>
	<g id="LINE_94_">
		<line class="st0" x1="14.4" y1="87.3" x2="50.4" y2="87.3"/>
	</g>
	<g id="LINE_95_">
		<line class="st0" x1="14.4" y1="87.3" x2="14.4" y2="96.3"/>
	</g>
	<g id="LINE_96_">
		<line class="st0" x1="14.4" y1="96.3" x2="-39.6" y2="96.3"/>
	</g>
	<g id="LINE_97_">
		<line class="st0" x1="-39.6" y1="87.3" x2="-39.6" y2="96.3"/>
	</g>
	<g id="LINE_98_">
		<line class="st0" x1="-75.6" y1="87.3" x2="-39.6" y2="87.3"/>
	</g>
	<g id="LINE_99_">
		<line class="st0" x1="-75.6" y1="87.3" x2="-75.6" y2="96.3"/>
	</g>
	<g id="LINE_100_">
		<line class="st0" x1="-75.6" y1="96.3" x2="-129.6" y2="96.3"/>
	</g>
	<g id="LINE_101_">
		<line class="st0" x1="-129.6" y1="87.3" x2="-129.6" y2="96.3"/>
	</g>
	<g id="LINE_102_">
		<line class="st0" x1="-165.6" y1="87.3" x2="-129.6" y2="87.3"/>
	</g>
	<g id="LINE_103_">
		<line class="st0" x1="-165.6" y1="87.3" x2="-165.6" y2="96.3"/>
	</g>
	<g id="LINE_104_">
		<line class="st0" x1="-165.6" y1="96.3" x2="-219.6" y2="96.3"/>
	</g>
	<g id="LINE_105_">
		<line class="st0" x1="-219.6" y1="87.3" x2="-219.6" y2="96.3"/>
	</g>
	<g id="LINE_106_">
		<line class="st0" x1="-255.6" y1="87.3" x2="-219.6" y2="87.3"/>
	</g>
	<g id="LINE_107_">
		<line class="st0" x1="-255.6" y1="87.3" x2="-255.6" y2="96.3"/>
	</g>
	<g id="LINE_108_">
		<line class="st0" x1="-255.6" y1="96.3" x2="-282.6" y2="96.3"/>
	</g>
	<g id="LINE_109_">
		<line class="st0" x1="-282.6" y1="138.6" x2="-282.6" y2="96.3"/>
	</g>
	<g id="LINE_110_">
		<line class="st0" x1="-291.6" y1="138.6" x2="-282.6" y2="138.6"/>
	</g>
	<g id="LINE_111_">
		<line class="st0" x1="-291.6" y1="174.6" x2="-291.6" y2="138.6"/>
	</g>
	<g id="LINE_112_">
		<line class="st0" x1="-291.6" y1="174.6" x2="-282.6" y2="174.6"/>
	</g>
	<g id="LINE_113_">
		<line class="st0" x1="-282.6" y1="228.6" x2="-282.6" y2="174.6"/>
	</g>
	<g id="LINE_114_">
		<line class="st0" x1="-291.6" y1="228.6" x2="-282.6" y2="228.6"/>
	</g>
	<g id="LINE_115_">
		<line class="st0" x1="-291.6" y1="264.6" x2="-291.6" y2="228.6"/>
	</g>
	<g id="LINE_116_">
		<line class="st0" x1="-291.6" y1="264.6" x2="-282.6" y2="264.6"/>
	</g>
	<g id="LINE_117_">
		<line class="st0" x1="-282.6" y1="318.6" x2="-282.6" y2="264.6"/>
	</g>
	<g id="LINE_118_">
		<line class="st0" x1="-291.6" y1="318.6" x2="-282.6" y2="318.6"/>
	</g>
	<g id="LINE_119_">
		<line class="st0" x1="-291.6" y1="354.6" x2="-291.6" y2="318.6"/>
	</g>
	<g id="LINE_120_">
		<line class="st0" x1="-291.6" y1="354.6" x2="-282.6" y2="354.6"/>
	</g>
	<g id="LINE_121_">
		<line class="st0" x1="-282.6" y1="408.6" x2="-282.6" y2="354.6"/>
	</g>
	<g id="LINE_122_">
		<line class="st0" x1="-291.6" y1="408.6" x2="-282.6" y2="408.6"/>
	</g>
	<g id="LINE_123_">
		<line class="st0" x1="-291.6" y1="444.6" x2="-291.6" y2="408.6"/>
	</g>
	<g id="LINE_124_">
		<line class="st0" x1="-291.6" y1="444.6" x2="-282.6" y2="444.6"/>
	</g>
	<g id="LINE_125_">
		<line class="st0" x1="-282.6" y1="498.6" x2="-282.6" y2="444.6"/>
	</g>
	<g id="LINE_126_">
		<line class="st0" x1="-291.6" y1="498.6" x2="-282.6" y2="498.6"/>
	</g>
	<g id="LINE_127_">
		<line class="st0" x1="-291.6" y1="534.6" x2="-291.6" y2="498.6"/>
	</g>
	<g id="LINE_128_">
		<line class="st0" x1="-291.6" y1="534.6" x2="-282.6" y2="534.6"/>
	</g>
	<g id="LINE_129_">
		<line class="st0" x1="-282.6" y1="588.6" x2="-282.6" y2="534.6"/>
	</g>
	<g id="LINE_130_">
		<line class="st0" x1="-291.6" y1="588.6" x2="-282.6" y2="588.6"/>
	</g>
	<g id="LINE_131_">
		<line class="st0" x1="-291.6" y1="624.6" x2="-291.6" y2="588.6"/>
	</g>
	<g id="LINE_132_">
		<line class="st0" x1="-291.6" y1="624.6" x2="-282.6" y2="624.6"/>
	</g>
	<g id="LINE_133_">
		<line class="st0" x1="-282.6" y1="666.9" x2="-282.6" y2="624.6"/>
	</g>
	<g id="LINE_134_">
		<line class="st0" x1="-225.9" y1="666.9" x2="-282.6" y2="666.9"/>
	</g>
	<g id="LINE_135_">
		<line class="st0" x1="-225.9" y1="675.9" x2="-225.9" y2="666.9"/>
	</g>
	<g id="LINE_136_">
		<line class="st0" x1="-193.5" y1="675.9" x2="-225.9" y2="675.9"/>
	</g>
	<g id="ARC_2_">
		<path class="st0" d="M-193.5,675.9c2,0,3.6-1.6,3.6-3.6"/>
	</g>
	<g id="LINE_137_">
		<line class="st0" x1="-189.9" y1="672.3" x2="-189.9" y2="666.9"/>
	</g>
	<g id="LINE_138_">
		<line class="st0" x1="-110.7" y1="666.9" x2="-189.9" y2="666.9"/>
	</g>
	<g id="LINE_139_">
		<line class="st0" x1="-110.7" y1="675.9" x2="-110.7" y2="666.9"/>
	</g>
	<g id="LINE_140_">
		<line class="st0" x1="-78.3" y1="675.9" x2="-110.7" y2="675.9"/>
	</g>
	<g id="ARC_3_">
		<path class="st0" d="M-78.3,675.9c2,0,3.6-1.6,3.6-3.6"/>
	</g>
	<g id="LINE_141_">
		<line class="st0" x1="-74.7" y1="672.3" x2="-74.7" y2="666.9"/>
	</g>
	<g id="LINE_142_">
		<line class="st0" x1="4.5" y1="666.9" x2="-74.7" y2="666.9"/>
	</g>
	<g id="LINE_143_">
		<line class="st0" x1="4.5" y1="675.9" x2="4.5" y2="666.9"/>
	</g>
	<g id="LINE_144_">
		<line class="st0" x1="36.9" y1="675.9" x2="4.5" y2="675.9"/>
	</g>
	<g id="ARC_4_">
		<path class="st0" d="M36.9,675.9c2,0,3.6-1.6,3.6-3.6"/>
	</g>
	<g id="LINE_145_">
		<line class="st0" x1="40.5" y1="672.3" x2="40.5" y2="666.9"/>
	</g>
	<g id="LINE_146_">
		<line class="st0" x1="119.7" y1="666.9" x2="40.5" y2="666.9"/>
	</g>
	<g id="LINE_147_">
		<line class="st0" x1="119.7" y1="675.9" x2="119.7" y2="666.9"/>
	</g>
	<g id="CIRCLE">
		<path class="st0" d="M252.9,677.7c5,0,9,4,9,9c0,5-4,9-9,9c-5,0-9-4-9-9C243.9,681.8,247.9,677.7,252.9,677.7L252.9,677.7z"/>
	</g>
</g>
</svg>
