<?xml version="1.0" encoding="utf-8"?>
<!-- Generator: Adobe Illustrator 22.1.0, SVG Export Plug-In . SVG Version: 6.00 Build 0)  -->
<svg version="1.1" id="Layer_1" xmlns="http://www.w3.org/2000/svg" xmlns:xlink="http://www.w3.org/1999/xlink" x="0px" y="0px"
	 width="612px" height="792px" viewBox="0 0 612 792" style="enable-background:new 0 0 612 792;" xml:space="preserve">
<style type="text/css">
	.st0{fill:none;stroke:#000000;stroke-width:1.1339;stroke-linecap:round;stroke-linejoin:round;stroke-miterlimit:10;}
</style>
<g>
	<g id="LINE">
		<line class="st0" x1="163.8" y1="409.5" x2="163.8" y2="382.5"/>
	</g>
	<g id="LINE_1_">
		<line class="st0" x1="163.8" y1="382.5" x2="217.8" y2="382.5"/>
	</g>
	<g id="LINE_2_">
		<line class="st0" x1="217.8" y1="382.5" x2="217.8" y2="369"/>
	</g>
	<g id="LINE_3_">
		<line class="st0" x1="217.8" y1="369" x2="264.6" y2="396"/>
	</g>
	<g id="LINE_4_">
		<line class="st0" x1="217.8" y1="423" x2="264.6" y2="396"/>
	</g>
	<g id="LINE_5_">
		<line class="st0" x1="217.8" y1="409.5" x2="217.8" y2="423"/>
	</g>
	<g id="LINE_6_">
		<line class="st0" x1="163.8" y1="409.5" x2="217.8" y2="409.5"/>
	</g>
	<g id="LINE_7_">
		<line class="st0" x1="531" y1="409.5" x2="531" y2="382.5"/>
	</g>
	<g id="LINE_8_">
		<line class="st0" x1="531" y1="382.5" x2="585" y2="382.5"/>
	</g>
	<g id="LINE_9_">
		<line class="st0" x1="585" y1="382.5" x2="585" y2="369"/>
	</g>
	<g id="LINE_10_">
		<line class="st0" x1="585" y1="369" x2="631.8" y2="396"/>
	</g>
	<g id="LINE_11_">
		<line class="st0" x1="585" y1="423" x2="631.8" y2="396"/>
	</g>
	<g id="LINE_12_">
		<line class="st0" x1="585" y1="409.5" x2="585" y2="423"/>
	</g>
	<g id="LINE_13_">
		<line class="st0" x1="531" y1="409.5" x2="585" y2="409.5"/>
	</g>
	<g id="LINE_14_">
		<line class="st0" x1="-63" y1="378" x2="-63" y2="355.3"/>
	</g>
	<g id="LINE_15_">
		<line class="st0" x1="-72" y1="378" x2="-63" y2="378"/>
	</g>
	<g id="LINE_16_">
		<line class="st0" x1="-72" y1="378" x2="-72" y2="414"/>
	</g>
	<g id="LINE_17_">
		<line class="st0" x1="-72" y1="414" x2="-63" y2="414"/>
	</g>
	<g id="LINE_18_">
		<line class="st0" x1="-63" y1="436.7" x2="-63" y2="414"/>
	</g>
	<g id="LINE_19_">
		<line class="st0" x1="-63" y1="436.7" x2="-36" y2="436.7"/>
	</g>
	<g id="LINE_20_">
		<line class="st0" x1="-36" y1="445.7" x2="-36" y2="436.7"/>
	</g>
	<g id="LINE_21_">
		<line class="st0" x1="0" y1="445.7" x2="-36" y2="445.7"/>
	</g>
	<g id="LINE_22_">
		<line class="st0" x1="0" y1="445.7" x2="0" y2="436.7"/>
	</g>
	<g id="LINE_23_">
		<line class="st0" x1="0" y1="436.7" x2="72" y2="436.7"/>
	</g>
	<g id="LINE_24_">
		<line class="st0" x1="72" y1="445.7" x2="72" y2="436.7"/>
	</g>
	<g id="LINE_25_">
		<line class="st0" x1="108" y1="445.7" x2="72" y2="445.7"/>
	</g>
	<g id="LINE_26_">
		<line class="st0" x1="108" y1="445.7" x2="108" y2="436.7"/>
	</g>
	<g id="LINE_27_">
		<line class="st0" x1="108" y1="436.7" x2="180" y2="436.7"/>
	</g>
	<g id="LINE_28_">
		<line class="st0" x1="180" y1="445.7" x2="180" y2="436.7"/>
	</g>
	<g id="LINE_29_">
		<line class="st0" x1="216" y1="445.7" x2="180" y2="445.7"/>
	</g>
	<g id="LINE_30_">
		<line class="st0" x1="216" y1="445.7" x2="216" y2="436.7"/>
	</g>
	<g id="LINE_31_">
		<line class="st0" x1="216" y1="436.7" x2="288" y2="436.7"/>
	</g>
	<g id="LINE_32_">
		<line class="st0" x1="288" y1="445.7" x2="288" y2="436.7"/>
	</g>
	<g id="LINE_33_">
		<line class="st0" x1="324" y1="445.7" x2="288" y2="445.7"/>
	</g>
	<g id="LINE_34_">
		<line class="st0" x1="324" y1="445.7" x2="324" y2="436.7"/>
	</g>
	<g id="LINE_35_">
		<line class="st0" x1="324" y1="436.7" x2="396" y2="436.7"/>
	</g>
	<g id="LINE_36_">
		<line class="st0" x1="396" y1="445.7" x2="396" y2="436.7"/>
	</g>
	<g id="LINE_37_">
		<line class="st0" x1="432" y1="445.7" x2="396" y2="445.7"/>
	</g>
	<g id="LINE_38_">
		<line class="st0" x1="432" y1="445.7" x2="432" y2="436.7"/>
	</g>
	<g id="LINE_39_">
		<line class="st0" x1="432" y1="436.7" x2="504" y2="436.7"/>
	</g>
	<g id="LINE_40_">
		<line class="st0" x1="504" y1="445.7" x2="504" y2="436.7"/>
	</g>
	<g id="LINE_41_">
		<line class="st0" x1="540" y1="445.7" x2="504" y2="445.7"/>
	</g>
	<g id="LINE_42_">
		<line class="st0" x1="540" y1="445.7" x2="540" y2="436.7"/>
	</g>
	<g id="LINE_43_">
		<line class="st0" x1="540" y1="436.7" x2="612" y2="436.7"/>
	</g>
	<g id="LINE_44_">
		<line class="st0" x1="612" y1="445.7" x2="612" y2="436.7"/>
	</g>
	<g id="LINE_45_">
		<line class="st0" x1="648" y1="445.7" x2="612" y2="445.7"/>
	</g>
	<g id="LINE_46_">
		<line class="st0" x1="648" y1="445.7" x2="648" y2="436.7"/>
	</g>
	<g id="LINE_47_">
		<line class="st0" x1="648" y1="436.7" x2="675" y2="436.7"/>
	</g>
	<g id="LINE_48_">
		<line class="st0" x1="675" y1="414" x2="675" y2="436.7"/>
	</g>
	<g id="LINE_49_">
		<line class="st0" x1="684" y1="414" x2="675" y2="414"/>
	</g>
	<g id="LINE_50_">
		<line class="st0" x1="684" y1="378" x2="684" y2="414"/>
	</g>
	<g id="LINE_51_">
		<line class="st0" x1="684" y1="378" x2="675" y2="378"/>
	</g>
	<g id="LINE_52_">
		<line class="st0" x1="675" y1="355.3" x2="675" y2="378"/>
	</g>
	<g id="LINE_53_">
		<line class="st0" x1="648" y1="355.3" x2="675" y2="355.3"/>
	</g>
	<g id="LINE_54_">
		<line class="st0" x1="648" y1="346.3" x2="648" y2="355.3"/>
	</g>
	<g id="LINE_55_">
		<line class="st0" x1="648" y1="346.3" x2="612" y2="346.3"/>
	</g>
	<g id="LINE_56_">
		<line class="st0" x1="612" y1="346.3" x2="612" y2="355.3"/>
	</g>
	<g id="LINE_57_">
		<line class="st0" x1="540" y1="355.3" x2="612" y2="355.3"/>
	</g>
	<g id="LINE_58_">
		<line class="st0" x1="540" y1="346.3" x2="540" y2="355.3"/>
	</g>
	<g id="LINE_59_">
		<line class="st0" x1="540" y1="346.3" x2="504" y2="346.3"/>
	</g>
	<g id="LINE_60_">
		<line class="st0" x1="504" y1="346.3" x2="504" y2="355.3"/>
	</g>
	<g id="LINE_61_">
		<line class="st0" x1="432" y1="355.3" x2="504" y2="355.3"/>
	</g>
	<g id="LINE_62_">
		<line class="st0" x1="432" y1="346.3" x2="432" y2="355.3"/>
	</g>
	<g id="LINE_63_">
		<line class="st0" x1="432" y1="346.3" x2="396" y2="346.3"/>
	</g>
	<g id="LINE_64_">
		<line class="st0" x1="396" y1="346.3" x2="396" y2="355.3"/>
	</g>
	<g id="LINE_65_">
		<line class="st0" x1="324" y1="355.3" x2="396" y2="355.3"/>
	</g>
	<g id="LINE_66_">
		<line class="st0" x1="324" y1="346.3" x2="324" y2="355.3"/>
	</g>
	<g id="LINE_67_">
		<line class="st0" x1="324" y1="346.3" x2="288" y2="346.3"/>
	</g>
	<g id="LINE_68_">
		<line class="st0" x1="288" y1="346.3" x2="288" y2="355.3"/>
	</g>
	<g id="LINE_69_">
		<line class="st0" x1="216" y1="355.3" x2="288" y2="355.3"/>
	</g>
	<g id="LINE_70_">
		<line class="st0" x1="216" y1="346.3" x2="216" y2="355.3"/>
	</g>
	<g id="LINE_71_">
		<line class="st0" x1="216" y1="346.3" x2="180" y2="346.3"/>
	</g>
	<g id="LINE_72_">
		<line class="st0" x1="180" y1="346.3" x2="180" y2="355.3"/>
	</g>
	<g id="LINE_73_">
		<line class="st0" x1="108" y1="355.3" x2="180" y2="355.3"/>
	</g>
	<g id="LINE_74_">
		<line class="st0" x1="108" y1="346.3" x2="108" y2="355.3"/>
	</g>
	<g id="LINE_75_">
		<line class="st0" x1="108" y1="346.3" x2="72" y2="346.3"/>
	</g>
	<g id="LINE_76_">
		<line class="st0" x1="72" y1="346.3" x2="72" y2="355.3"/>
	</g>
	<g id="LINE_77_">
		<line class="st0" x1="0" y1="355.3" x2="72" y2="355.3"/>
	</g>
	<g id="LINE_78_">
		<line class="st0" x1="0" y1="346.3" x2="0" y2="355.3"/>
	</g>
	<g id="LINE_79_">
		<line class="st0" x1="0" y1="346.3" x2="-36" y2="346.3"/>
	</g>
	<g id="LINE_80_">
		<line class="st0" x1="-36" y1="346.3" x2="-36" y2="355.3"/>
	</g>
	<g id="LINE_81_">
		<line class="st0" x1="-63" y1="355.3" x2="-36" y2="355.3"/>
	</g>
	<g id="LINE_82_">
		<line class="st0" x1="347.4" y1="409.5" x2="347.4" y2="382.5"/>
	</g>
	<g id="LINE_83_">
		<line class="st0" x1="347.4" y1="382.5" x2="401.4" y2="382.5"/>
	</g>
	<g id="LINE_84_">
		<line class="st0" x1="401.4" y1="382.5" x2="401.4" y2="369"/>
	</g>
	<g id="LINE_85_">
		<line class="st0" x1="401.4" y1="369" x2="448.2" y2="396"/>
	</g>
	<g id="LINE_86_">
		<line class="st0" x1="401.4" y1="423" x2="448.2" y2="396"/>
	</g>
	<g id="LINE_87_">
		<line class="st0" x1="401.4" y1="409.5" x2="401.4" y2="423"/>
	</g>
	<g id="LINE_88_">
		<line class="st0" x1="347.4" y1="409.5" x2="401.4" y2="409.5"/>
	</g>
	<g id="LINE_89_">
		<line class="st0" x1="-19.8" y1="409.5" x2="-19.8" y2="382.5"/>
	</g>
	<g id="LINE_90_">
		<line class="st0" x1="-19.8" y1="382.5" x2="34.2" y2="382.5"/>
	</g>
	<g id="LINE_91_">
		<line class="st0" x1="34.2" y1="382.5" x2="34.2" y2="369"/>
	</g>
	<g id="LINE_92_">
		<line class="st0" x1="34.2" y1="369" x2="81" y2="396"/>
	</g>
	<g id="LINE_93_">
		<line class="st0" x1="34.2" y1="423" x2="81" y2="396"/>
	</g>
	<g id="LINE_94_">
		<line class="st0" x1="34.2" y1="409.5" x2="34.2" y2="423"/>
	</g>
	<g id="LINE_95_">
		<line class="st0" x1="-19.8" y1="409.5" x2="34.2" y2="409.5"/>
	</g>
</g>
</svg>
