<?xml version="1.0" encoding="utf-8"?>
<!-- Generator: Adobe Illustrator 22.1.0, SVG Export Plug-In . SVG Version: 6.00 Build 0)  -->
<svg version="1.1" id="Layer_1" xmlns="http://www.w3.org/2000/svg" xmlns:xlink="http://www.w3.org/1999/xlink" x="0px" y="0px"
	 width="612px" height="792px" viewBox="0 0 612 792" style="enable-background:new 0 0 612 792;" xml:space="preserve">
<style type="text/css">
	.st0{fill:none;stroke:#000000;stroke-width:1.1339;stroke-linecap:round;stroke-linejoin:round;stroke-miterlimit:10;}
</style>
<g>
	<g id="LINE">
		<line class="st0" x1="239.4" y1="170.3" x2="213.2" y2="196.5"/>
	</g>
	<g id="ARC">
		<path class="st0" d="M249.5,166c-3.8,0-7.5,1.5-10.2,4.2"/>
	</g>
	<g id="LINE_1_">
		<line class="st0" x1="329.6" y1="166" x2="249.5" y2="166"/>
	</g>
	<g id="ARC_1_">
		<path class="st0" d="M339.1,169.6c-2.6-2.3-6-3.6-9.5-3.6"/>
	</g>
	<g id="LINE_2_">
		<line class="st0" x1="459.7" y1="275.3" x2="339.1" y2="169.6"/>
	</g>
	<g id="ARC_2_">
		<path class="st0" d="M455.5,299.5c7.4-2.9,11-11.3,8.1-18.7c-0.8-2.1-2.2-4-3.9-5.5"/>
	</g>
	<g id="LINE_3_">
		<line class="st0" x1="349.8" y1="341.2" x2="455.5" y2="299.5"/>
	</g>
	<g id="ARC_3_">
		<path class="st0" d="M334.4,338c4.1,4.1,10.1,5.3,15.5,3.2"/>
	</g>
	<g id="LINE_4_">
		<line class="st0" x1="213.2" y1="216.8" x2="334.4" y2="338"/>
	</g>
	<g id="ARC_4_">
		<path class="st0" d="M213.2,196.5c-5.6,5.6-5.6,14.7,0,20.4"/>
	</g>
	<g id="LINE_5_">
		<line class="st0" x1="519.4" y1="275.8" x2="551.3" y2="317.6"/>
	</g>
	<g id="ARC_5_">
		<path class="st0" d="M519.4,275.8c-0.6-0.8-1.2-1.5-1.9-2.1"/>
	</g>
	<g id="LINE_6_">
		<line class="st0" x1="349.8" y1="126.8" x2="517.4" y2="273.7"/>
	</g>
	<g id="LINE_7_">
		<line class="st0" x1="227.3" y1="126.8" x2="349.8" y2="126.8"/>
	</g>
	<g id="LINE_8_">
		<line class="st0" x1="149.8" y1="204.3" x2="227.3" y2="126.8"/>
	</g>
	<g id="LINE_9_">
		<line class="st0" x1="149.8" y1="204.3" x2="289" y2="343.6"/>
	</g>
	<g id="ARC_6_">
		<path class="st0" d="M284.1,367.1c7.4-2.9,11-11.3,8.1-18.7c-0.7-1.8-1.8-3.5-3.2-4.9"/>
	</g>
	<g id="LINE_10_">
		<line class="st0" x1="203.8" y1="398.8" x2="284.1" y2="367.1"/>
	</g>
	<g id="ARC_7_">
		<path class="st0" d="M188.3,395.6c4.1,4.1,10.1,5.3,15.5,3.2"/>
	</g>
	<g id="LINE_11_">
		<line class="st0" x1="188.3" y1="395.6" x2="73.4" y2="280.7"/>
	</g>
	<g id="LINE_12_">
		<line class="st0" x1="60.7" y1="293.4" x2="73.4" y2="280.7"/>
	</g>
	<g id="LINE_13_">
		<line class="st0" x1="60.7" y1="665.2" x2="60.7" y2="293.4"/>
	</g>
	<g id="LINE_14_">
		<line class="st0" x1="87.7" y1="665.2" x2="60.7" y2="665.2"/>
	</g>
	<g id="ARC_8_">
		<path class="st0" d="M87.7,665.2c5.9,0,11.7-2,16.4-5.6"/>
	</g>
	<g id="LINE_15_">
		<line class="st0" x1="134.7" y1="636.2" x2="104.1" y2="659.6"/>
	</g>
	<g id="LINE_16_">
		<line class="st0" x1="140.2" y1="643.4" x2="134.7" y2="636.2"/>
	</g>
	<g id="LINE_17_">
		<line class="st0" x1="168.7" y1="621.5" x2="140.2" y2="643.4"/>
	</g>
	<g id="LINE_18_">
		<line class="st0" x1="168.7" y1="621.5" x2="163.3" y2="614.4"/>
	</g>
	<g id="LINE_19_">
		<line class="st0" x1="206.2" y1="581.6" x2="163.3" y2="614.4"/>
	</g>
	<g id="LINE_20_">
		<line class="st0" x1="211.6" y1="588.7" x2="206.2" y2="581.6"/>
	</g>
	<g id="LINE_21_">
		<line class="st0" x1="240.2" y1="566.8" x2="211.6" y2="588.7"/>
	</g>
	<g id="LINE_22_">
		<line class="st0" x1="240.2" y1="566.8" x2="234.8" y2="559.7"/>
	</g>
	<g id="LINE_23_">
		<line class="st0" x1="277.7" y1="526.9" x2="234.8" y2="559.7"/>
	</g>
	<g id="LINE_24_">
		<line class="st0" x1="283.1" y1="534" x2="277.7" y2="526.9"/>
	</g>
	<g id="LINE_25_">
		<line class="st0" x1="311.7" y1="512.2" x2="283.1" y2="534"/>
	</g>
	<g id="LINE_26_">
		<line class="st0" x1="311.7" y1="512.2" x2="306.3" y2="505"/>
	</g>
	<g id="LINE_27_">
		<line class="st0" x1="349.1" y1="472.2" x2="306.3" y2="505"/>
	</g>
	<g id="LINE_28_">
		<line class="st0" x1="354.6" y1="479.4" x2="349.1" y2="472.2"/>
	</g>
	<g id="LINE_29_">
		<line class="st0" x1="383.2" y1="457.5" x2="354.6" y2="479.4"/>
	</g>
	<g id="LINE_30_">
		<line class="st0" x1="383.2" y1="457.5" x2="377.7" y2="450.3"/>
	</g>
	<g id="LINE_31_">
		<line class="st0" x1="420.6" y1="417.5" x2="377.7" y2="450.3"/>
	</g>
	<g id="LINE_32_">
		<line class="st0" x1="426.1" y1="424.7" x2="420.6" y2="417.5"/>
	</g>
	<g id="LINE_33_">
		<line class="st0" x1="454.7" y1="402.8" x2="426.1" y2="424.7"/>
	</g>
	<g id="LINE_34_">
		<line class="st0" x1="454.7" y1="402.8" x2="449.2" y2="395.7"/>
	</g>
	<g id="LINE_35_">
		<line class="st0" x1="492.1" y1="362.9" x2="449.2" y2="395.7"/>
	</g>
	<g id="LINE_36_">
		<line class="st0" x1="497.6" y1="370" x2="492.1" y2="362.9"/>
	</g>
	<g id="LINE_37_">
		<line class="st0" x1="526.2" y1="348.1" x2="497.6" y2="370"/>
	</g>
	<g id="LINE_38_">
		<line class="st0" x1="526.2" y1="348.1" x2="520.7" y2="341"/>
	</g>
	<g id="LINE_39_">
		<line class="st0" x1="551.3" y1="317.6" x2="520.7" y2="341"/>
	</g>
</g>
</svg>
