<?xml version="1.0" encoding="utf-8"?>
<!-- Generator: Adobe Illustrator 22.1.0, SVG Export Plug-In . SVG Version: 6.00 Build 0)  -->
<svg version="1.1" id="Layer_1" xmlns="http://www.w3.org/2000/svg" xmlns:xlink="http://www.w3.org/1999/xlink" x="0px" y="0px"
	 width="612px" height="792px" viewBox="0 0 612 792" style="enable-background:new 0 0 612 792;" xml:space="preserve">
<style type="text/css">
	.st0{fill:none;stroke:#000000;stroke-width:1.1339;stroke-linecap:round;stroke-linejoin:round;stroke-miterlimit:10;}
</style>
<g>
	<g id="LINE">
		<line class="st0" x1="17.1" y1="476.3" x2="580.1" y2="476.3"/>
	</g>
	<g id="LINE_1_">
		<line class="st0" x1="580.1" y1="476.3" x2="580.1" y2="446.8"/>
	</g>
	<g id="LINE_2_">
		<line class="st0" x1="594.9" y1="446.8" x2="580.1" y2="446.8"/>
	</g>
	<g id="LINE_3_">
		<line class="st0" x1="594.9" y1="446.8" x2="594.9" y2="410.8"/>
	</g>
	<g id="LINE_4_">
		<line class="st0" x1="580.1" y1="410.8" x2="594.9" y2="410.8"/>
	</g>
	<g id="LINE_5_">
		<line class="st0" x1="580.1" y1="410.8" x2="580.1" y2="381.2"/>
	</g>
	<g id="LINE_6_">
		<line class="st0" x1="580.1" y1="381.2" x2="594.9" y2="381.2"/>
	</g>
	<g id="LINE_7_">
		<line class="st0" x1="594.9" y1="381.2" x2="594.9" y2="345.2"/>
	</g>
	<g id="LINE_8_">
		<line class="st0" x1="594.9" y1="345.2" x2="580.1" y2="345.2"/>
	</g>
	<g id="LINE_9_">
		<line class="st0" x1="580.1" y1="315.7" x2="580.1" y2="345.2"/>
	</g>
	<g id="LINE_10_">
		<line class="st0" x1="17.1" y1="315.7" x2="580.1" y2="315.7"/>
	</g>
	<g id="LINE_11_">
		<line class="st0" x1="17.1" y1="362.7" x2="17.1" y2="315.7"/>
	</g>
	<g id="ARC">
		<path class="st0" d="M17.1,362.7c0,3.2,2.1,6,5.2,6.9"/>
	</g>
	<g id="LINE_12_">
		<line class="st0" x1="22.3" y1="369.6" x2="65" y2="381.8"/>
	</g>
	<g id="ARC_1_">
		<path class="st0" d="M65,381.8c1.6,0.5,3.3,0.7,4.9,0.7"/>
	</g>
	<g id="LINE_13_">
		<line class="st0" x1="70" y1="382.5" x2="315.2" y2="382.5"/>
	</g>
	<g id="ARC_2_">
		<path class="st0" d="M336.8,389.7c-6.2-4.7-13.8-7.2-21.6-7.2"/>
	</g>
	<g id="LINE_14_">
		<line class="st0" x1="337.5" y1="390.2" x2="336.8" y2="389.7"/>
	</g>
	<g id="ARC_3_">
		<path class="st0" d="M337.5,401.8c3.2-2.4,3.8-6.9,1.4-10.1c-0.4-0.5-0.9-1-1.4-1.4"/>
	</g>
	<g id="LINE_15_">
		<line class="st0" x1="336.8" y1="402.3" x2="337.5" y2="401.8"/>
	</g>
	<g id="ARC_4_">
		<path class="st0" d="M315.2,409.5c7.8,0,15.4-2.5,21.6-7.2"/>
	</g>
	<g id="LINE_16_">
		<line class="st0" x1="70" y1="409.5" x2="315.2" y2="409.5"/>
	</g>
	<g id="ARC_5_">
		<path class="st0" d="M70,409.5c-1.7,0-3.3,0.2-4.9,0.7"/>
	</g>
	<g id="LINE_17_">
		<line class="st0" x1="22.3" y1="422.4" x2="65" y2="410.2"/>
	</g>
	<g id="ARC_6_">
		<path class="st0" d="M22.3,422.4c-3.1,0.9-5.2,3.7-5.2,6.9"/>
	</g>
	<g id="LINE_18_">
		<line class="st0" x1="17.1" y1="476.3" x2="17.1" y2="429.3"/>
	</g>
	<g id="LINE_19_">
		<line class="st0" x1="505.6" y1="333.7" x2="541.6" y2="333.7"/>
	</g>
	<g id="LINE_20_">
		<line class="st0" x1="505.6" y1="324.7" x2="505.6" y2="333.7"/>
	</g>
	<g id="LINE_21_">
		<line class="st0" x1="505.6" y1="324.7" x2="541.6" y2="324.7"/>
	</g>
	<g id="LINE_22_">
		<line class="st0" x1="541.6" y1="324.7" x2="541.6" y2="333.7"/>
	</g>
	<g id="LINE_23_">
		<line class="st0" x1="505.6" y1="467.3" x2="541.6" y2="467.3"/>
	</g>
	<g id="LINE_24_">
		<line class="st0" x1="505.6" y1="458.3" x2="505.6" y2="467.3"/>
	</g>
	<g id="LINE_25_">
		<line class="st0" x1="505.6" y1="458.3" x2="541.6" y2="458.3"/>
	</g>
	<g id="LINE_26_">
		<line class="st0" x1="541.6" y1="458.3" x2="541.6" y2="467.3"/>
	</g>
	<g id="LINE_27_">
		<line class="st0" x1="415.6" y1="467.3" x2="451.6" y2="467.3"/>
	</g>
	<g id="LINE_28_">
		<line class="st0" x1="415.6" y1="458.3" x2="415.6" y2="467.3"/>
	</g>
	<g id="LINE_29_">
		<line class="st0" x1="415.6" y1="458.3" x2="451.6" y2="458.3"/>
	</g>
	<g id="LINE_30_">
		<line class="st0" x1="451.6" y1="458.3" x2="451.6" y2="467.3"/>
	</g>
	<g id="LINE_31_">
		<line class="st0" x1="325.6" y1="467.3" x2="361.6" y2="467.3"/>
	</g>
	<g id="LINE_32_">
		<line class="st0" x1="325.6" y1="458.3" x2="325.6" y2="467.3"/>
	</g>
	<g id="LINE_33_">
		<line class="st0" x1="325.6" y1="458.3" x2="361.6" y2="458.3"/>
	</g>
	<g id="LINE_34_">
		<line class="st0" x1="361.6" y1="458.3" x2="361.6" y2="467.3"/>
	</g>
	<g id="LINE_35_">
		<line class="st0" x1="415.6" y1="333.7" x2="451.6" y2="333.7"/>
	</g>
	<g id="LINE_36_">
		<line class="st0" x1="415.6" y1="324.7" x2="415.6" y2="333.7"/>
	</g>
	<g id="LINE_37_">
		<line class="st0" x1="415.6" y1="324.7" x2="451.6" y2="324.7"/>
	</g>
	<g id="LINE_38_">
		<line class="st0" x1="451.6" y1="324.7" x2="451.6" y2="333.7"/>
	</g>
	<g id="LINE_39_">
		<line class="st0" x1="325.6" y1="333.7" x2="361.6" y2="333.7"/>
	</g>
	<g id="LINE_40_">
		<line class="st0" x1="325.6" y1="324.7" x2="325.6" y2="333.7"/>
	</g>
	<g id="LINE_41_">
		<line class="st0" x1="325.6" y1="324.7" x2="361.6" y2="324.7"/>
	</g>
	<g id="LINE_42_">
		<line class="st0" x1="361.6" y1="324.7" x2="361.6" y2="333.7"/>
	</g>
	<g id="LINE_43_">
		<line class="st0" x1="235.6" y1="333.7" x2="271.6" y2="333.7"/>
	</g>
	<g id="LINE_44_">
		<line class="st0" x1="235.6" y1="324.7" x2="235.6" y2="333.7"/>
	</g>
	<g id="LINE_45_">
		<line class="st0" x1="235.6" y1="324.7" x2="271.6" y2="324.7"/>
	</g>
	<g id="LINE_46_">
		<line class="st0" x1="271.6" y1="324.7" x2="271.6" y2="333.7"/>
	</g>
	<g id="LINE_47_">
		<line class="st0" x1="145.6" y1="333.7" x2="181.6" y2="333.7"/>
	</g>
	<g id="LINE_48_">
		<line class="st0" x1="145.6" y1="324.7" x2="145.6" y2="333.7"/>
	</g>
	<g id="LINE_49_">
		<line class="st0" x1="145.6" y1="324.7" x2="181.6" y2="324.7"/>
	</g>
	<g id="LINE_50_">
		<line class="st0" x1="181.6" y1="324.7" x2="181.6" y2="333.7"/>
	</g>
	<g id="LINE_51_">
		<line class="st0" x1="55.6" y1="333.7" x2="91.6" y2="333.7"/>
	</g>
	<g id="LINE_52_">
		<line class="st0" x1="55.6" y1="324.7" x2="55.6" y2="333.7"/>
	</g>
	<g id="LINE_53_">
		<line class="st0" x1="55.6" y1="324.7" x2="91.6" y2="324.7"/>
	</g>
	<g id="LINE_54_">
		<line class="st0" x1="91.6" y1="324.7" x2="91.6" y2="333.7"/>
	</g>
	<g id="LINE_55_">
		<line class="st0" x1="55.6" y1="467.3" x2="91.6" y2="467.3"/>
	</g>
	<g id="LINE_56_">
		<line class="st0" x1="55.6" y1="458.3" x2="55.6" y2="467.3"/>
	</g>
	<g id="LINE_57_">
		<line class="st0" x1="55.6" y1="458.3" x2="91.6" y2="458.3"/>
	</g>
	<g id="LINE_58_">
		<line class="st0" x1="91.6" y1="458.3" x2="91.6" y2="467.3"/>
	</g>
	<g id="LINE_59_">
		<line class="st0" x1="145.6" y1="467.3" x2="181.6" y2="467.3"/>
	</g>
	<g id="LINE_60_">
		<line class="st0" x1="145.6" y1="458.3" x2="145.6" y2="467.3"/>
	</g>
	<g id="LINE_61_">
		<line class="st0" x1="145.6" y1="458.3" x2="181.6" y2="458.3"/>
	</g>
	<g id="LINE_62_">
		<line class="st0" x1="181.6" y1="458.3" x2="181.6" y2="467.3"/>
	</g>
	<g id="LINE_63_">
		<line class="st0" x1="235.6" y1="467.3" x2="271.6" y2="467.3"/>
	</g>
	<g id="LINE_64_">
		<line class="st0" x1="235.6" y1="458.3" x2="235.6" y2="467.3"/>
	</g>
	<g id="LINE_65_">
		<line class="st0" x1="235.6" y1="458.3" x2="271.6" y2="458.3"/>
	</g>
	<g id="LINE_66_">
		<line class="st0" x1="271.6" y1="458.3" x2="271.6" y2="467.3"/>
	</g>
</g>
</svg>
