<?xml version="1.0" encoding="utf-8"?>
<!-- Generator: Adobe Illustrator 22.1.0, SVG Export Plug-In . SVG Version: 6.00 Build 0)  -->
<svg version="1.1" id="Layer_1" xmlns="http://www.w3.org/2000/svg" xmlns:xlink="http://www.w3.org/1999/xlink" x="0px" y="0px"
	 width="612px" height="792px" viewBox="0 0 612 792" style="enable-background:new 0 0 612 792;" xml:space="preserve">
<style type="text/css">
	.st0{fill:none;stroke:#000000;stroke-width:1.1339;stroke-linecap:round;stroke-linejoin:round;stroke-miterlimit:10;}
</style>
<g>
	<g id="LINE">
		<line class="st0" x1="388.4" y1="217.9" x2="361.8" y2="193.7"/>
	</g>
	<g id="LINE_1_">
		<line class="st0" x1="367.8" y1="187" x2="361.8" y2="193.7"/>
	</g>
	<g id="LINE_2_">
		<line class="st0" x1="367.8" y1="187" x2="394.5" y2="211.2"/>
	</g>
	<g id="LINE_3_">
		<line class="st0" x1="388.4" y1="217.9" x2="394.5" y2="211.2"/>
	</g>
	<g id="LINE_4_">
		<line class="st0" x1="96.7" y1="553.2" x2="105.7" y2="553.2"/>
	</g>
	<g id="LINE_5_">
		<line class="st0" x1="96.7" y1="517.2" x2="96.7" y2="553.2"/>
	</g>
	<g id="LINE_6_">
		<line class="st0" x1="105.7" y1="517.2" x2="96.7" y2="517.2"/>
	</g>
	<g id="LINE_7_">
		<line class="st0" x1="105.7" y1="517.2" x2="105.7" y2="553.2"/>
	</g>
	<g id="LINE_8_">
		<line class="st0" x1="96.7" y1="380.3" x2="105.7" y2="380.3"/>
	</g>
	<g id="LINE_9_">
		<line class="st0" x1="96.7" y1="344.3" x2="96.7" y2="380.3"/>
	</g>
	<g id="LINE_10_">
		<line class="st0" x1="105.7" y1="344.3" x2="96.7" y2="344.3"/>
	</g>
	<g id="LINE_11_">
		<line class="st0" x1="105.7" y1="344.3" x2="105.7" y2="380.3"/>
	</g>
	<g id="LINE_12_">
		<line class="st0" x1="227.3" y1="126.8" x2="60.7" y2="293.4"/>
	</g>
	<g id="LINE_13_">
		<line class="st0" x1="60.7" y1="293.4" x2="60.7" y2="665.2"/>
	</g>
	<g id="LINE_14_">
		<line class="st0" x1="60.7" y1="665.2" x2="551.3" y2="317.6"/>
	</g>
	<g id="LINE_15_">
		<line class="st0" x1="519.4" y1="275.8" x2="551.3" y2="317.6"/>
	</g>
	<g id="ARC">
		<path class="st0" d="M519.4,275.8c-0.6-0.8-1.2-1.5-1.9-2.1"/>
	</g>
	<g id="LINE_16_">
		<line class="st0" x1="517.4" y1="273.7" x2="349.8" y2="126.8"/>
	</g>
	<g id="LINE_17_">
		<line class="st0" x1="349.8" y1="126.8" x2="227.3" y2="126.8"/>
	</g>
	<g id="LINE_18_">
		<line class="st0" x1="466.9" y1="289.1" x2="440.3" y2="264.9"/>
	</g>
	<g id="LINE_19_">
		<line class="st0" x1="446.3" y1="258.3" x2="440.3" y2="264.9"/>
	</g>
	<g id="LINE_20_">
		<line class="st0" x1="446.3" y1="258.3" x2="473" y2="282.5"/>
	</g>
	<g id="LINE_21_">
		<line class="st0" x1="466.9" y1="289.1" x2="473" y2="282.5"/>
	</g>
</g>
</svg>
