<?xml version="1.0" encoding="utf-8"?>
<!-- Generator: Adobe Illustrator 22.1.0, SVG Export Plug-In . SVG Version: 6.00 Build 0)  -->
<svg version="1.1" id="Layer_1" xmlns="http://www.w3.org/2000/svg" xmlns:xlink="http://www.w3.org/1999/xlink" x="0px" y="0px"
	 width="612px" height="792px" viewBox="0 0 612 792" style="enable-background:new 0 0 612 792;" xml:space="preserve">
<style type="text/css">
	.st0{fill:none;stroke:#000000;stroke-width:1.1339;stroke-linecap:round;stroke-linejoin:round;stroke-miterlimit:10;}
</style>
<g>
	<g id="LINE">
		<line class="st0" x1="252.7" y1="327.6" x2="252.7" y2="464.4"/>
	</g>
	<g id="LINE_1_">
		<line class="st0" x1="243.7" y1="464.4" x2="252.7" y2="464.4"/>
	</g>
	<g id="LINE_2_">
		<line class="st0" x1="243.7" y1="500.4" x2="243.7" y2="464.4"/>
	</g>
	<g id="LINE_3_">
		<line class="st0" x1="243.7" y1="500.4" x2="252.7" y2="500.4"/>
	</g>
	<g id="LINE_4_">
		<line class="st0" x1="252.7" y1="500.4" x2="252.7" y2="536.4"/>
	</g>
	<g id="LINE_5_">
		<line class="st0" x1="359.3" y1="536.4" x2="252.7" y2="536.4"/>
	</g>
	<g id="LINE_6_">
		<line class="st0" x1="359.3" y1="536.4" x2="359.3" y2="500.4"/>
	</g>
	<g id="LINE_7_">
		<line class="st0" x1="368.3" y1="500.4" x2="359.3" y2="500.4"/>
	</g>
	<g id="LINE_8_">
		<line class="st0" x1="368.3" y1="464.4" x2="368.3" y2="500.4"/>
	</g>
	<g id="LINE_9_">
		<line class="st0" x1="368.3" y1="464.4" x2="359.3" y2="464.4"/>
	</g>
	<g id="LINE_10_">
		<line class="st0" x1="359.3" y1="464.4" x2="359.3" y2="327.6"/>
	</g>
	<g id="LINE_11_">
		<line class="st0" x1="368.3" y1="327.6" x2="359.3" y2="327.6"/>
	</g>
	<g id="LINE_12_">
		<line class="st0" x1="368.3" y1="291.6" x2="368.3" y2="327.6"/>
	</g>
	<g id="LINE_13_">
		<line class="st0" x1="368.3" y1="291.6" x2="359.3" y2="291.6"/>
	</g>
	<g id="LINE_14_">
		<line class="st0" x1="359.3" y1="291.6" x2="359.3" y2="255.6"/>
	</g>
	<g id="LINE_15_">
		<line class="st0" x1="359.3" y1="255.6" x2="252.7" y2="255.6"/>
	</g>
	<g id="LINE_16_">
		<line class="st0" x1="252.7" y1="255.6" x2="252.7" y2="291.6"/>
	</g>
	<g id="LINE_17_">
		<line class="st0" x1="243.7" y1="291.6" x2="252.7" y2="291.6"/>
	</g>
	<g id="LINE_18_">
		<line class="st0" x1="243.7" y1="327.6" x2="243.7" y2="291.6"/>
	</g>
	<g id="LINE_19_">
		<line class="st0" x1="243.7" y1="327.6" x2="252.7" y2="327.6"/>
	</g>
</g>
</svg>
