<?xml version="1.0" encoding="utf-8"?>
<!-- Generator: Adobe Illustrator 22.1.0, SVG Export Plug-In . SVG Version: 6.00 Build 0)  -->
<svg version="1.1" id="Layer_1" xmlns="http://www.w3.org/2000/svg" xmlns:xlink="http://www.w3.org/1999/xlink" x="0px" y="0px"
	 width="612px" height="792px" viewBox="0 0 612 792" style="enable-background:new 0 0 612 792;" xml:space="preserve">
<style type="text/css">
	.st0{fill:none;stroke:#000000;stroke-width:1.1339;stroke-linecap:round;stroke-linejoin:round;stroke-miterlimit:10;}
</style>
<g>
	<g id="LINE">
		<line class="st0" x1="895" y1="339.3" x2="895" y2="461.7"/>
	</g>
	<g id="LINE_1_">
		<line class="st0" x1="895" y1="339.3" x2="864" y2="339.3"/>
	</g>
	<g id="LINE_2_">
		<line class="st0" x1="864" y1="330.3" x2="864" y2="339.3"/>
	</g>
	<g id="LINE_3_">
		<line class="st0" x1="864" y1="330.3" x2="828" y2="330.3"/>
	</g>
	<g id="LINE_4_">
		<line class="st0" x1="828" y1="330.3" x2="828" y2="339.3"/>
	</g>
	<g id="LINE_5_">
		<line class="st0" x1="828" y1="339.3" x2="792" y2="339.3"/>
	</g>
	<g id="LINE_6_">
		<line class="st0" x1="792" y1="330.3" x2="792" y2="339.3"/>
	</g>
	<g id="LINE_7_">
		<line class="st0" x1="792" y1="330.3" x2="756" y2="330.3"/>
	</g>
	<g id="LINE_8_">
		<line class="st0" x1="756" y1="330.3" x2="756" y2="339.3"/>
	</g>
	<g id="LINE_9_">
		<line class="st0" x1="756" y1="339.3" x2="720" y2="339.3"/>
	</g>
	<g id="LINE_10_">
		<line class="st0" x1="720" y1="330.3" x2="720" y2="339.3"/>
	</g>
	<g id="LINE_11_">
		<line class="st0" x1="720" y1="330.3" x2="684" y2="330.3"/>
	</g>
	<g id="LINE_12_">
		<line class="st0" x1="684" y1="330.3" x2="684" y2="339.3"/>
	</g>
	<g id="LINE_13_">
		<line class="st0" x1="684" y1="339.3" x2="648" y2="339.3"/>
	</g>
	<g id="LINE_14_">
		<line class="st0" x1="648" y1="330.3" x2="648" y2="339.3"/>
	</g>
	<g id="LINE_15_">
		<line class="st0" x1="648" y1="330.3" x2="612" y2="330.3"/>
	</g>
	<g id="LINE_16_">
		<line class="st0" x1="612" y1="330.3" x2="612" y2="339.3"/>
	</g>
	<g id="LINE_17_">
		<line class="st0" x1="612" y1="339.3" x2="576" y2="339.3"/>
	</g>
	<g id="LINE_18_">
		<line class="st0" x1="576" y1="330.3" x2="576" y2="339.3"/>
	</g>
	<g id="LINE_19_">
		<line class="st0" x1="576" y1="330.3" x2="540" y2="330.3"/>
	</g>
	<g id="LINE_20_">
		<line class="st0" x1="540" y1="330.3" x2="540" y2="339.3"/>
	</g>
	<g id="LINE_21_">
		<line class="st0" x1="540" y1="339.3" x2="504" y2="339.3"/>
	</g>
	<g id="LINE_22_">
		<line class="st0" x1="504" y1="330.3" x2="504" y2="339.3"/>
	</g>
	<g id="LINE_23_">
		<line class="st0" x1="504" y1="330.3" x2="468" y2="330.3"/>
	</g>
	<g id="LINE_24_">
		<line class="st0" x1="468" y1="330.3" x2="468" y2="339.3"/>
	</g>
	<g id="LINE_25_">
		<line class="st0" x1="468" y1="339.3" x2="432" y2="339.3"/>
	</g>
	<g id="LINE_26_">
		<line class="st0" x1="432" y1="330.3" x2="432" y2="339.3"/>
	</g>
	<g id="LINE_27_">
		<line class="st0" x1="432" y1="330.3" x2="396" y2="330.3"/>
	</g>
	<g id="LINE_28_">
		<line class="st0" x1="396" y1="330.3" x2="396" y2="339.3"/>
	</g>
	<g id="LINE_29_">
		<line class="st0" x1="396" y1="339.3" x2="360" y2="339.3"/>
	</g>
	<g id="LINE_30_">
		<line class="st0" x1="360" y1="330.3" x2="360" y2="339.3"/>
	</g>
	<g id="LINE_31_">
		<line class="st0" x1="360" y1="330.3" x2="324" y2="330.3"/>
	</g>
	<g id="LINE_32_">
		<line class="st0" x1="324" y1="330.3" x2="324" y2="339.3"/>
	</g>
	<g id="LINE_33_">
		<line class="st0" x1="324" y1="339.3" x2="288" y2="339.3"/>
	</g>
	<g id="LINE_34_">
		<line class="st0" x1="288" y1="330.3" x2="288" y2="339.3"/>
	</g>
	<g id="LINE_35_">
		<line class="st0" x1="288" y1="330.3" x2="252" y2="330.3"/>
	</g>
	<g id="LINE_36_">
		<line class="st0" x1="252" y1="330.3" x2="252" y2="339.3"/>
	</g>
	<g id="LINE_37_">
		<line class="st0" x1="252" y1="339.3" x2="216" y2="339.3"/>
	</g>
	<g id="LINE_38_">
		<line class="st0" x1="216" y1="330.3" x2="216" y2="339.3"/>
	</g>
	<g id="LINE_39_">
		<line class="st0" x1="216" y1="330.3" x2="180" y2="330.3"/>
	</g>
	<g id="LINE_40_">
		<line class="st0" x1="180" y1="330.3" x2="180" y2="339.3"/>
	</g>
	<g id="LINE_41_">
		<line class="st0" x1="180" y1="339.3" x2="144" y2="339.3"/>
	</g>
	<g id="LINE_42_">
		<line class="st0" x1="144" y1="330.3" x2="144" y2="339.3"/>
	</g>
	<g id="LINE_43_">
		<line class="st0" x1="144" y1="330.3" x2="108" y2="330.3"/>
	</g>
	<g id="LINE_44_">
		<line class="st0" x1="108" y1="330.3" x2="108" y2="339.3"/>
	</g>
	<g id="LINE_45_">
		<line class="st0" x1="108" y1="339.3" x2="72" y2="339.3"/>
	</g>
	<g id="LINE_46_">
		<line class="st0" x1="72" y1="330.3" x2="72" y2="339.3"/>
	</g>
	<g id="LINE_47_">
		<line class="st0" x1="72" y1="330.3" x2="36" y2="330.3"/>
	</g>
	<g id="LINE_48_">
		<line class="st0" x1="36" y1="330.3" x2="36" y2="339.3"/>
	</g>
	<g id="LINE_49_">
		<line class="st0" x1="36" y1="339.3" x2="0" y2="339.3"/>
	</g>
	<g id="LINE_50_">
		<line class="st0" x1="0" y1="330.3" x2="0" y2="339.3"/>
	</g>
	<g id="LINE_51_">
		<line class="st0" x1="0" y1="330.3" x2="-36" y2="330.3"/>
	</g>
	<g id="LINE_52_">
		<line class="st0" x1="-36" y1="330.3" x2="-36" y2="339.3"/>
	</g>
	<g id="LINE_53_">
		<line class="st0" x1="-36" y1="339.3" x2="-72" y2="339.3"/>
	</g>
	<g id="LINE_54_">
		<line class="st0" x1="-72" y1="330.3" x2="-72" y2="339.3"/>
	</g>
	<g id="LINE_55_">
		<line class="st0" x1="-72" y1="330.3" x2="-108" y2="330.3"/>
	</g>
	<g id="LINE_56_">
		<line class="st0" x1="-108" y1="330.3" x2="-108" y2="339.3"/>
	</g>
	<g id="LINE_57_">
		<line class="st0" x1="-108" y1="339.3" x2="-144" y2="339.3"/>
	</g>
	<g id="LINE_58_">
		<line class="st0" x1="-144" y1="330.3" x2="-144" y2="339.3"/>
	</g>
	<g id="LINE_59_">
		<line class="st0" x1="-144" y1="330.3" x2="-180" y2="330.3"/>
	</g>
	<g id="LINE_60_">
		<line class="st0" x1="-180" y1="330.3" x2="-180" y2="339.3"/>
	</g>
	<g id="LINE_61_">
		<line class="st0" x1="-180" y1="339.3" x2="-216" y2="339.3"/>
	</g>
	<g id="LINE_62_">
		<line class="st0" x1="-216" y1="330.3" x2="-216" y2="339.3"/>
	</g>
	<g id="LINE_63_">
		<line class="st0" x1="-216" y1="330.3" x2="-252" y2="330.3"/>
	</g>
	<g id="LINE_64_">
		<line class="st0" x1="-252" y1="330.3" x2="-252" y2="339.3"/>
	</g>
	<g id="LINE_65_">
		<line class="st0" x1="-252" y1="339.3" x2="-283" y2="339.3"/>
	</g>
	<g id="LINE_66_">
		<line class="st0" x1="-283" y1="461.7" x2="-283" y2="339.3"/>
	</g>
	<g id="LINE_67_">
		<line class="st0" x1="895" y1="461.7" x2="-283" y2="461.7"/>
	</g>
	<g id="LINE_68_">
		<line class="st0" x1="868" y1="409.5" x2="868" y2="445.5"/>
	</g>
	<g id="LINE_69_">
		<line class="st0" x1="868" y1="409.5" x2="877" y2="409.5"/>
	</g>
	<g id="LINE_70_">
		<line class="st0" x1="877" y1="445.5" x2="877" y2="409.5"/>
	</g>
	<g id="LINE_71_">
		<line class="st0" x1="868" y1="445.5" x2="877" y2="445.5"/>
	</g>
	<g id="LINE_72_">
		<line class="st0" x1="868" y1="355.5" x2="868" y2="391.5"/>
	</g>
	<g id="LINE_73_">
		<line class="st0" x1="868" y1="355.5" x2="877" y2="355.5"/>
	</g>
	<g id="LINE_74_">
		<line class="st0" x1="877" y1="391.5" x2="877" y2="355.5"/>
	</g>
	<g id="LINE_75_">
		<line class="st0" x1="868" y1="391.5" x2="877" y2="391.5"/>
	</g>
	<g id="LINE_76_">
		<line class="st0" x1="-265" y1="445.5" x2="-265" y2="409.5"/>
	</g>
	<g id="LINE_77_">
		<line class="st0" x1="-265" y1="409.5" x2="-256" y2="409.5"/>
	</g>
	<g id="LINE_78_">
		<line class="st0" x1="-256" y1="445.5" x2="-256" y2="409.5"/>
	</g>
	<g id="LINE_79_">
		<line class="st0" x1="-265" y1="445.5" x2="-256" y2="445.5"/>
	</g>
	<g id="LINE_80_">
		<line class="st0" x1="-265" y1="391.5" x2="-265" y2="355.5"/>
	</g>
	<g id="LINE_81_">
		<line class="st0" x1="-265" y1="355.5" x2="-256" y2="355.5"/>
	</g>
	<g id="LINE_82_">
		<line class="st0" x1="-256" y1="391.5" x2="-256" y2="355.5"/>
	</g>
	<g id="LINE_83_">
		<line class="st0" x1="-265" y1="391.5" x2="-256" y2="391.5"/>
	</g>
</g>
</svg>
