<?xml version="1.0" encoding="utf-8"?>
<!-- Generator: Adobe Illustrator 22.1.0, SVG Export Plug-In . SVG Version: 6.00 Build 0)  -->
<svg version="1.1" id="Layer_1" xmlns="http://www.w3.org/2000/svg" xmlns:xlink="http://www.w3.org/1999/xlink" x="0px" y="0px"
	 width="612px" height="792px" viewBox="0 0 612 792" style="enable-background:new 0 0 612 792;" xml:space="preserve">
<style type="text/css">
	.st0{fill:none;stroke:#000000;stroke-width:1.1339;stroke-linecap:round;stroke-linejoin:round;stroke-miterlimit:10;}
</style>
<g>
	<g id="LINE">
		<line class="st0" x1="173.2" y1="449.1" x2="189" y2="449.1"/>
	</g>
	<g id="ARC">
		<path class="st0" d="M189,491.6c11.7-4.4,17.7-17.4,13.4-29.2c-2.3-6.2-7.2-11.1-13.4-13.4"/>
	</g>
	<g id="LINE_1_">
		<line class="st0" x1="173.2" y1="491.6" x2="189" y2="491.6"/>
	</g>
	<g id="ARC_1_">
		<path class="st0" d="M173.2,449.1c-11.7,4.4-17.7,17.4-13.4,29.2c2.3,6.2,7.2,11.1,13.4,13.4"/>
	</g>
	<g id="ARC_2_">
		<path class="st0" d="M423,449.1c-11.7,4.4-17.7,17.4-13.4,29.2c2.3,6.2,7.2,11.1,13.4,13.4"/>
	</g>
	<g id="LINE_2_">
		<line class="st0" x1="438.8" y1="449.1" x2="423" y2="449.1"/>
	</g>
	<g id="ARC_3_">
		<path class="st0" d="M438.8,491.6c11.7-4.4,17.7-17.4,13.4-29.2c-2.3-6.2-7.2-11.1-13.4-13.4"/>
	</g>
	<g id="LINE_3_">
		<line class="st0" x1="438.8" y1="491.6" x2="423" y2="491.6"/>
	</g>
	<g id="LINE_4_">
		<line class="st0" x1="895" y1="528" x2="895" y2="264"/>
	</g>
	<g id="ARC_4_">
		<path class="st0" d="M895,264c0-8-6.4-14.4-14.4-14.4"/>
	</g>
	<g id="LINE_5_">
		<line class="st0" x1="880.6" y1="249.6" x2="-268.6" y2="249.6"/>
	</g>
	<g id="ARC_5_">
		<path class="st0" d="M-268.6,249.6c-8,0-14.4,6.4-14.4,14.4"/>
	</g>
	<g id="LINE_6_">
		<line class="st0" x1="-283" y1="264" x2="-283" y2="528"/>
	</g>
	<g id="ARC_6_">
		<path class="st0" d="M-283,528c0,8,6.4,14.4,14.4,14.4"/>
	</g>
	<g id="LINE_7_">
		<line class="st0" x1="880.6" y1="542.4" x2="-268.6" y2="542.4"/>
	</g>
	<g id="ARC_7_">
		<path class="st0" d="M880.6,542.4c8,0,14.4-6.4,14.4-14.4"/>
	</g>
	<g id="LINE_8_">
		<line class="st0" x1="-256" y1="324" x2="-265" y2="324"/>
	</g>
	<g id="LINE_9_">
		<line class="st0" x1="-265" y1="288" x2="-265" y2="324"/>
	</g>
	<g id="LINE_10_">
		<line class="st0" x1="-256" y1="288" x2="-265" y2="288"/>
	</g>
	<g id="LINE_11_">
		<line class="st0" x1="-256" y1="288" x2="-256" y2="324"/>
	</g>
	<g id="LINE_12_">
		<line class="st0" x1="-256" y1="414" x2="-265" y2="414"/>
	</g>
	<g id="LINE_13_">
		<line class="st0" x1="-265" y1="378" x2="-265" y2="414"/>
	</g>
	<g id="LINE_14_">
		<line class="st0" x1="-256" y1="378" x2="-265" y2="378"/>
	</g>
	<g id="LINE_15_">
		<line class="st0" x1="-256" y1="378" x2="-256" y2="414"/>
	</g>
	<g id="LINE_16_">
		<line class="st0" x1="-256" y1="504" x2="-265" y2="504"/>
	</g>
	<g id="LINE_17_">
		<line class="st0" x1="-265" y1="468" x2="-265" y2="504"/>
	</g>
	<g id="LINE_18_">
		<line class="st0" x1="-256" y1="468" x2="-265" y2="468"/>
	</g>
	<g id="LINE_19_">
		<line class="st0" x1="-256" y1="468" x2="-256" y2="504"/>
	</g>
	<g id="LINE_20_">
		<line class="st0" x1="868" y1="288" x2="868" y2="324"/>
	</g>
	<g id="LINE_21_">
		<line class="st0" x1="877" y1="288" x2="868" y2="288"/>
	</g>
	<g id="LINE_22_">
		<line class="st0" x1="877" y1="324" x2="877" y2="288"/>
	</g>
	<g id="LINE_23_">
		<line class="st0" x1="877" y1="324" x2="868" y2="324"/>
	</g>
	<g id="LINE_24_">
		<line class="st0" x1="877" y1="414" x2="868" y2="414"/>
	</g>
	<g id="LINE_25_">
		<line class="st0" x1="868" y1="378" x2="868" y2="414"/>
	</g>
	<g id="LINE_26_">
		<line class="st0" x1="877" y1="378" x2="868" y2="378"/>
	</g>
	<g id="LINE_27_">
		<line class="st0" x1="877" y1="414" x2="877" y2="378"/>
	</g>
	<g id="LINE_28_">
		<line class="st0" x1="877" y1="504" x2="868" y2="504"/>
	</g>
	<g id="LINE_29_">
		<line class="st0" x1="868" y1="468" x2="868" y2="504"/>
	</g>
	<g id="LINE_30_">
		<line class="st0" x1="877" y1="468" x2="868" y2="468"/>
	</g>
	<g id="LINE_31_">
		<line class="st0" x1="877" y1="504" x2="877" y2="468"/>
	</g>
	<g id="LINE_32_">
		<line class="st0" x1="672.9" y1="449.1" x2="688.7" y2="449.1"/>
	</g>
	<g id="ARC_8_">
		<path class="st0" d="M688.7,491.6c11.7-4.4,17.7-17.4,13.4-29.2c-2.3-6.2-7.2-11.1-13.4-13.4"/>
	</g>
	<g id="LINE_33_">
		<line class="st0" x1="672.9" y1="491.6" x2="688.7" y2="491.6"/>
	</g>
	<g id="ARC_9_">
		<path class="st0" d="M672.9,449.1c-11.7,4.4-17.7,17.4-13.4,29.2c2.3,6.2,7.2,11.1,13.4,13.4"/>
	</g>
	<g id="LINE_34_">
		<line class="st0" x1="-76.7" y1="449.1" x2="-60.9" y2="449.1"/>
	</g>
	<g id="ARC_10_">
		<path class="st0" d="M-60.9,491.6c11.7-4.4,17.7-17.4,13.4-29.2c-2.3-6.2-7.2-11.1-13.4-13.4"/>
	</g>
	<g id="LINE_35_">
		<line class="st0" x1="-60.9" y1="491.6" x2="-76.7" y2="491.6"/>
	</g>
	<g id="ARC_11_">
		<path class="st0" d="M-76.7,449.1c-11.7,4.4-17.7,17.4-13.4,29.2c2.3,6.2,7.2,11.1,13.4,13.4"/>
	</g>
</g>
</svg>
