<?xml version="1.0" encoding="utf-8"?>
<!-- Generator: Adobe Illustrator 22.1.0, SVG Export Plug-In . SVG Version: 6.00 Build 0)  -->
<svg version="1.1" id="Layer_1" xmlns="http://www.w3.org/2000/svg" xmlns:xlink="http://www.w3.org/1999/xlink" x="0px" y="0px"
	 width="612px" height="792px" viewBox="0 0 612 792" style="enable-background:new 0 0 612 792;" xml:space="preserve">
<style type="text/css">
	.st0{fill:none;stroke:#000000;stroke-width:1.1339;stroke-linecap:round;stroke-linejoin:round;stroke-miterlimit:10;}
</style>
<g>
	<g id="LINE">
		<line class="st0" x1="456.3" y1="672.3" x2="456.3" y2="666.9"/>
	</g>
	<g id="ARC">
		<path class="st0" d="M456.3,672.3c0,2,1.6,3.6,3.6,3.6"/>
	</g>
	<g id="LINE_1_">
		<line class="st0" x1="459.9" y1="675.9" x2="492.3" y2="675.9"/>
	</g>
	<g id="LINE_2_">
		<line class="st0" x1="492.3" y1="675.9" x2="492.3" y2="666.9"/>
	</g>
	<g id="LINE_3_">
		<line class="st0" x1="492.3" y1="666.9" x2="571.5" y2="666.9"/>
	</g>
	<g id="LINE_4_">
		<line class="st0" x1="571.5" y1="672.3" x2="571.5" y2="666.9"/>
	</g>
	<g id="ARC_1_">
		<path class="st0" d="M571.5,672.3c0,2,1.6,3.6,3.6,3.6"/>
	</g>
	<g id="LINE_5_">
		<line class="st0" x1="575.1" y1="675.9" x2="607.5" y2="675.9"/>
	</g>
	<g id="LINE_6_">
		<line class="st0" x1="607.5" y1="675.9" x2="607.5" y2="666.9"/>
	</g>
	<g id="LINE_7_">
		<line class="st0" x1="607.5" y1="666.9" x2="686.7" y2="666.9"/>
	</g>
	<g id="LINE_8_">
		<line class="st0" x1="686.7" y1="672.3" x2="686.7" y2="666.9"/>
	</g>
	<g id="ARC_2_">
		<path class="st0" d="M686.7,672.3c0,2,1.6,3.6,3.6,3.6"/>
	</g>
	<g id="LINE_9_">
		<line class="st0" x1="690.3" y1="675.9" x2="722.7" y2="675.9"/>
	</g>
	<g id="LINE_10_">
		<line class="st0" x1="722.7" y1="675.9" x2="722.7" y2="666.9"/>
	</g>
	<g id="LINE_11_">
		<line class="st0" x1="722.7" y1="666.9" x2="801.9" y2="666.9"/>
	</g>
	<g id="LINE_12_">
		<line class="st0" x1="801.9" y1="672.3" x2="801.9" y2="666.9"/>
	</g>
	<g id="ARC_3_">
		<path class="st0" d="M801.9,672.3c0,2,1.6,3.6,3.6,3.6"/>
	</g>
	<g id="LINE_13_">
		<line class="st0" x1="805.5" y1="675.9" x2="837.9" y2="675.9"/>
	</g>
	<g id="LINE_14_">
		<line class="st0" x1="837.9" y1="675.9" x2="837.9" y2="666.9"/>
	</g>
	<g id="LINE_15_">
		<line class="st0" x1="837.9" y1="666.9" x2="894.6" y2="666.9"/>
	</g>
	<g id="LINE_16_">
		<line class="st0" x1="894.6" y1="666.9" x2="894.6" y2="624.6"/>
	</g>
	<g id="LINE_17_">
		<line class="st0" x1="903.6" y1="624.6" x2="894.6" y2="624.6"/>
	</g>
	<g id="LINE_18_">
		<line class="st0" x1="903.6" y1="624.6" x2="903.6" y2="588.6"/>
	</g>
	<g id="LINE_19_">
		<line class="st0" x1="903.6" y1="588.6" x2="894.6" y2="588.6"/>
	</g>
	<g id="LINE_20_">
		<line class="st0" x1="894.6" y1="588.6" x2="894.6" y2="534.6"/>
	</g>
	<g id="LINE_21_">
		<line class="st0" x1="903.6" y1="534.6" x2="894.6" y2="534.6"/>
	</g>
	<g id="LINE_22_">
		<line class="st0" x1="903.6" y1="534.6" x2="903.6" y2="498.6"/>
	</g>
	<g id="LINE_23_">
		<line class="st0" x1="903.6" y1="498.6" x2="894.6" y2="498.6"/>
	</g>
	<g id="LINE_24_">
		<line class="st0" x1="894.6" y1="498.6" x2="894.6" y2="444.6"/>
	</g>
	<g id="LINE_25_">
		<line class="st0" x1="903.6" y1="444.6" x2="894.6" y2="444.6"/>
	</g>
	<g id="LINE_26_">
		<line class="st0" x1="903.6" y1="444.6" x2="903.6" y2="408.6"/>
	</g>
	<g id="LINE_27_">
		<line class="st0" x1="903.6" y1="408.6" x2="894.6" y2="408.6"/>
	</g>
	<g id="LINE_28_">
		<line class="st0" x1="894.6" y1="408.6" x2="894.6" y2="354.6"/>
	</g>
	<g id="LINE_29_">
		<line class="st0" x1="903.6" y1="354.6" x2="894.6" y2="354.6"/>
	</g>
	<g id="LINE_30_">
		<line class="st0" x1="903.6" y1="354.6" x2="903.6" y2="318.6"/>
	</g>
	<g id="LINE_31_">
		<line class="st0" x1="903.6" y1="318.6" x2="894.6" y2="318.6"/>
	</g>
	<g id="LINE_32_">
		<line class="st0" x1="894.6" y1="318.6" x2="894.6" y2="264.6"/>
	</g>
	<g id="LINE_33_">
		<line class="st0" x1="903.6" y1="264.6" x2="894.6" y2="264.6"/>
	</g>
	<g id="LINE_34_">
		<line class="st0" x1="903.6" y1="264.6" x2="903.6" y2="228.6"/>
	</g>
	<g id="LINE_35_">
		<line class="st0" x1="903.6" y1="228.6" x2="894.6" y2="228.6"/>
	</g>
	<g id="LINE_36_">
		<line class="st0" x1="894.6" y1="228.6" x2="894.6" y2="174.6"/>
	</g>
	<g id="LINE_37_">
		<line class="st0" x1="903.6" y1="174.6" x2="894.6" y2="174.6"/>
	</g>
	<g id="LINE_38_">
		<line class="st0" x1="903.6" y1="174.6" x2="903.6" y2="138.6"/>
	</g>
	<g id="LINE_39_">
		<line class="st0" x1="903.6" y1="138.6" x2="894.6" y2="138.6"/>
	</g>
	<g id="LINE_40_">
		<line class="st0" x1="894.6" y1="138.6" x2="894.6" y2="96.3"/>
	</g>
	<g id="LINE_41_">
		<line class="st0" x1="867.6" y1="96.3" x2="894.6" y2="96.3"/>
	</g>
	<g id="LINE_42_">
		<line class="st0" x1="867.6" y1="87.3" x2="867.6" y2="96.3"/>
	</g>
	<g id="LINE_43_">
		<line class="st0" x1="867.6" y1="87.3" x2="831.6" y2="87.3"/>
	</g>
	<g id="LINE_44_">
		<line class="st0" x1="831.6" y1="87.3" x2="831.6" y2="96.3"/>
	</g>
	<g id="LINE_45_">
		<line class="st0" x1="777.6" y1="96.3" x2="831.6" y2="96.3"/>
	</g>
	<g id="LINE_46_">
		<line class="st0" x1="777.6" y1="87.3" x2="777.6" y2="96.3"/>
	</g>
	<g id="LINE_47_">
		<line class="st0" x1="777.6" y1="87.3" x2="741.6" y2="87.3"/>
	</g>
	<g id="LINE_48_">
		<line class="st0" x1="741.6" y1="87.3" x2="741.6" y2="96.3"/>
	</g>
	<g id="LINE_49_">
		<line class="st0" x1="687.6" y1="96.3" x2="741.6" y2="96.3"/>
	</g>
	<g id="LINE_50_">
		<line class="st0" x1="687.6" y1="87.3" x2="687.6" y2="96.3"/>
	</g>
	<g id="LINE_51_">
		<line class="st0" x1="687.6" y1="87.3" x2="651.6" y2="87.3"/>
	</g>
	<g id="LINE_52_">
		<line class="st0" x1="651.6" y1="87.3" x2="651.6" y2="96.3"/>
	</g>
	<g id="LINE_53_">
		<line class="st0" x1="597.6" y1="96.3" x2="651.6" y2="96.3"/>
	</g>
	<g id="LINE_54_">
		<line class="st0" x1="597.6" y1="87.3" x2="597.6" y2="96.3"/>
	</g>
	<g id="LINE_55_">
		<line class="st0" x1="597.6" y1="87.3" x2="561.6" y2="87.3"/>
	</g>
	<g id="LINE_56_">
		<line class="st0" x1="561.6" y1="87.3" x2="561.6" y2="96.3"/>
	</g>
	<g id="LINE_57_">
		<line class="st0" x1="534.6" y1="96.3" x2="561.6" y2="96.3"/>
	</g>
	<g id="LINE_58_">
		<line class="st0" x1="534.6" y1="96.3" x2="534.6" y2="87.3"/>
	</g>
	<g id="LINE_59_">
		<line class="st0" x1="534.6" y1="87.3" x2="516.5" y2="105.4"/>
	</g>
	<g id="LINE_60_">
		<line class="st0" x1="510.1" y1="99" x2="516.5" y2="105.4"/>
	</g>
	<g id="LINE_61_">
		<line class="st0" x1="484.7" y1="124.5" x2="510.1" y2="99"/>
	</g>
	<g id="LINE_62_">
		<line class="st0" x1="484.7" y1="124.5" x2="491" y2="130.9"/>
	</g>
	<g id="LINE_63_">
		<line class="st0" x1="491" y1="130.9" x2="452.8" y2="169"/>
	</g>
	<g id="LINE_64_">
		<line class="st0" x1="446.5" y1="162.7" x2="452.8" y2="169"/>
	</g>
	<g id="LINE_65_">
		<line class="st0" x1="421" y1="188.1" x2="446.5" y2="162.7"/>
	</g>
	<g id="LINE_66_">
		<line class="st0" x1="421" y1="188.1" x2="427.4" y2="194.5"/>
	</g>
	<g id="LINE_67_">
		<line class="st0" x1="427.4" y1="194.5" x2="389.2" y2="232.7"/>
	</g>
	<g id="LINE_68_">
		<line class="st0" x1="382.8" y1="226.3" x2="389.2" y2="232.7"/>
	</g>
	<g id="LINE_69_">
		<line class="st0" x1="357.4" y1="251.8" x2="382.8" y2="226.3"/>
	</g>
	<g id="LINE_70_">
		<line class="st0" x1="357.4" y1="251.8" x2="363.7" y2="258.1"/>
	</g>
	<g id="LINE_71_">
		<line class="st0" x1="363.7" y1="258.1" x2="345.6" y2="276.3"/>
	</g>
	<g id="LINE_72_">
		<line class="st0" x1="354.6" y1="276.3" x2="345.6" y2="276.3"/>
	</g>
	<g id="LINE_73_">
		<line class="st0" x1="354.6" y1="276.3" x2="354.6" y2="292.5"/>
	</g>
	<g id="LINE_74_">
		<line class="st0" x1="345.6" y1="292.5" x2="354.6" y2="292.5"/>
	</g>
	<g id="LINE_75_">
		<line class="st0" x1="345.6" y1="292.5" x2="345.6" y2="328.5"/>
	</g>
	<g id="LINE_76_">
		<line class="st0" x1="345.6" y1="328.5" x2="354.6" y2="328.5"/>
	</g>
	<g id="LINE_77_">
		<line class="st0" x1="354.6" y1="328.5" x2="354.6" y2="346.5"/>
	</g>
	<g id="LINE_78_">
		<line class="st0" x1="345.6" y1="346.5" x2="354.6" y2="346.5"/>
	</g>
	<g id="LINE_79_">
		<line class="st0" x1="345.6" y1="346.5" x2="345.6" y2="382.5"/>
	</g>
	<g id="LINE_80_">
		<line class="st0" x1="345.6" y1="382.5" x2="354.6" y2="382.5"/>
	</g>
	<g id="LINE_81_">
		<line class="st0" x1="354.6" y1="382.5" x2="354.6" y2="407.7"/>
	</g>
	<g id="LINE_82_">
		<line class="st0" x1="315" y1="407.7" x2="354.6" y2="407.7"/>
	</g>
	<g id="LINE_83_">
		<line class="st0" x1="315" y1="398.7" x2="315" y2="407.7"/>
	</g>
	<g id="LINE_84_">
		<line class="st0" x1="279" y1="398.7" x2="315" y2="398.7"/>
	</g>
	<g id="LINE_85_">
		<line class="st0" x1="279" y1="398.7" x2="279" y2="407.7"/>
	</g>
	<g id="LINE_86_">
		<line class="st0" x1="225" y1="407.7" x2="279" y2="407.7"/>
	</g>
	<g id="LINE_87_">
		<line class="st0" x1="225" y1="398.7" x2="225" y2="407.7"/>
	</g>
	<g id="LINE_88_">
		<line class="st0" x1="189" y1="398.7" x2="225" y2="398.7"/>
	</g>
	<g id="LINE_89_">
		<line class="st0" x1="189" y1="398.7" x2="189" y2="407.7"/>
	</g>
	<g id="LINE_90_">
		<line class="st0" x1="135" y1="407.7" x2="189" y2="407.7"/>
	</g>
	<g id="LINE_91_">
		<line class="st0" x1="135" y1="398.7" x2="135" y2="407.7"/>
	</g>
	<g id="LINE_92_">
		<line class="st0" x1="99" y1="398.7" x2="135" y2="398.7"/>
	</g>
	<g id="LINE_93_">
		<line class="st0" x1="99" y1="398.7" x2="99" y2="407.7"/>
	</g>
	<g id="LINE_94_">
		<line class="st0" x1="45" y1="407.7" x2="99" y2="407.7"/>
	</g>
	<g id="LINE_95_">
		<line class="st0" x1="45" y1="398.7" x2="45" y2="407.7"/>
	</g>
	<g id="LINE_96_">
		<line class="st0" x1="9" y1="398.7" x2="45" y2="398.7"/>
	</g>
	<g id="LINE_97_">
		<line class="st0" x1="9" y1="398.7" x2="9" y2="407.7"/>
	</g>
	<g id="LINE_98_">
		<line class="st0" x1="-45" y1="407.7" x2="9" y2="407.7"/>
	</g>
	<g id="LINE_99_">
		<line class="st0" x1="-45" y1="398.7" x2="-45" y2="407.7"/>
	</g>
	<g id="LINE_100_">
		<line class="st0" x1="-81" y1="398.7" x2="-45" y2="398.7"/>
	</g>
	<g id="LINE_101_">
		<line class="st0" x1="-81" y1="398.7" x2="-81" y2="407.7"/>
	</g>
	<g id="LINE_102_">
		<line class="st0" x1="-135" y1="407.7" x2="-81" y2="407.7"/>
	</g>
	<g id="LINE_103_">
		<line class="st0" x1="-135" y1="398.7" x2="-135" y2="407.7"/>
	</g>
	<g id="LINE_104_">
		<line class="st0" x1="-171" y1="398.7" x2="-135" y2="398.7"/>
	</g>
	<g id="LINE_105_">
		<line class="st0" x1="-171" y1="398.7" x2="-171" y2="407.7"/>
	</g>
	<g id="LINE_106_">
		<line class="st0" x1="-225" y1="407.7" x2="-171" y2="407.7"/>
	</g>
	<g id="LINE_107_">
		<line class="st0" x1="-225" y1="398.7" x2="-225" y2="407.7"/>
	</g>
	<g id="LINE_108_">
		<line class="st0" x1="-261" y1="398.7" x2="-225" y2="398.7"/>
	</g>
	<g id="LINE_109_">
		<line class="st0" x1="-261" y1="398.7" x2="-261" y2="407.7"/>
	</g>
	<g id="LINE_110_">
		<line class="st0" x1="-291.6" y1="407.7" x2="-261" y2="407.7"/>
	</g>
	<g id="LINE_111_">
		<line class="st0" x1="-291.6" y1="407.7" x2="-291.6" y2="447.3"/>
	</g>
	<g id="LINE_112_">
		<line class="st0" x1="-282.6" y1="447.3" x2="-291.6" y2="447.3"/>
	</g>
	<g id="LINE_113_">
		<line class="st0" x1="-282.6" y1="483.3" x2="-282.6" y2="447.3"/>
	</g>
	<g id="LINE_114_">
		<line class="st0" x1="-282.6" y1="483.3" x2="-291.6" y2="483.3"/>
	</g>
	<g id="LINE_115_">
		<line class="st0" x1="-291.6" y1="483.3" x2="-291.6" y2="519.3"/>
	</g>
	<g id="LINE_116_">
		<line class="st0" x1="-282.6" y1="519.3" x2="-291.6" y2="519.3"/>
	</g>
	<g id="LINE_117_">
		<line class="st0" x1="-282.6" y1="555.3" x2="-282.6" y2="519.3"/>
	</g>
	<g id="LINE_118_">
		<line class="st0" x1="-282.6" y1="555.3" x2="-291.6" y2="555.3"/>
	</g>
	<g id="LINE_119_">
		<line class="st0" x1="-291.6" y1="555.3" x2="-291.6" y2="591.3"/>
	</g>
	<g id="LINE_120_">
		<line class="st0" x1="-282.6" y1="591.3" x2="-291.6" y2="591.3"/>
	</g>
	<g id="LINE_121_">
		<line class="st0" x1="-282.6" y1="627.3" x2="-282.6" y2="591.3"/>
	</g>
	<g id="LINE_122_">
		<line class="st0" x1="-282.6" y1="627.3" x2="-291.6" y2="627.3"/>
	</g>
	<g id="LINE_123_">
		<line class="st0" x1="-291.6" y1="627.3" x2="-291.6" y2="666.9"/>
	</g>
	<g id="LINE_124_">
		<line class="st0" x1="-291.6" y1="666.9" x2="-234.9" y2="666.9"/>
	</g>
	<g id="LINE_125_">
		<line class="st0" x1="-234.9" y1="675.9" x2="-234.9" y2="666.9"/>
	</g>
	<g id="LINE_126_">
		<line class="st0" x1="-234.9" y1="675.9" x2="-198.9" y2="675.9"/>
	</g>
	<g id="LINE_127_">
		<line class="st0" x1="-198.9" y1="675.9" x2="-198.9" y2="666.9"/>
	</g>
	<g id="LINE_128_">
		<line class="st0" x1="-198.9" y1="666.9" x2="-119.7" y2="666.9"/>
	</g>
	<g id="LINE_129_">
		<line class="st0" x1="-119.7" y1="675.9" x2="-119.7" y2="666.9"/>
	</g>
	<g id="LINE_130_">
		<line class="st0" x1="-119.7" y1="675.9" x2="-83.7" y2="675.9"/>
	</g>
	<g id="LINE_131_">
		<line class="st0" x1="-83.7" y1="675.9" x2="-83.7" y2="666.9"/>
	</g>
	<g id="LINE_132_">
		<line class="st0" x1="-83.7" y1="666.9" x2="-4.5" y2="666.9"/>
	</g>
	<g id="LINE_133_">
		<line class="st0" x1="-4.5" y1="675.9" x2="-4.5" y2="666.9"/>
	</g>
	<g id="LINE_134_">
		<line class="st0" x1="-4.5" y1="675.9" x2="31.5" y2="675.9"/>
	</g>
	<g id="LINE_135_">
		<line class="st0" x1="31.5" y1="675.9" x2="31.5" y2="666.9"/>
	</g>
	<g id="LINE_136_">
		<line class="st0" x1="31.5" y1="666.9" x2="110.7" y2="666.9"/>
	</g>
	<g id="LINE_137_">
		<line class="st0" x1="110.7" y1="675.9" x2="110.7" y2="666.9"/>
	</g>
	<g id="LINE_138_">
		<line class="st0" x1="110.7" y1="675.9" x2="146.7" y2="675.9"/>
	</g>
	<g id="LINE_139_">
		<line class="st0" x1="146.7" y1="675.9" x2="146.7" y2="666.9"/>
	</g>
	<g id="LINE_140_">
		<line class="st0" x1="146.7" y1="666.9" x2="225.9" y2="666.9"/>
	</g>
	<g id="LINE_141_">
		<line class="st0" x1="225.9" y1="675.9" x2="225.9" y2="666.9"/>
	</g>
	<g id="LINE_142_">
		<line class="st0" x1="225.9" y1="675.9" x2="261.9" y2="675.9"/>
	</g>
	<g id="LINE_143_">
		<line class="st0" x1="261.9" y1="675.9" x2="261.9" y2="666.9"/>
	</g>
	<g id="LINE_144_">
		<line class="st0" x1="261.9" y1="666.9" x2="341.1" y2="666.9"/>
	</g>
	<g id="LINE_145_">
		<line class="st0" x1="341.1" y1="686.7" x2="341.1" y2="666.9"/>
	</g>
	<g id="ARC_4_">
		<path class="st0" d="M341.1,686.7c0,9.9,8.1,18,18,18s18-8.1,18-18"/>
	</g>
	<g id="LINE_146_">
		<line class="st0" x1="377.1" y1="686.7" x2="377.1" y2="666.9"/>
	</g>
	<g id="LINE_147_">
		<line class="st0" x1="377.1" y1="666.9" x2="456.3" y2="666.9"/>
	</g>
	<g id="CIRCLE">
		<path class="st0" d="M359.1,695.7c-5,0-9-4-9-9c0-5,4-9,9-9c5,0,9,4,9,9C368.1,691.7,364.1,695.7,359.1,695.7L359.1,695.7z"/>
	</g>
</g>
</svg>
