<?xml version="1.0" encoding="utf-8"?>
<!-- Generator: Adobe Illustrator 22.1.0, SVG Export Plug-In . SVG Version: 6.00 Build 0)  -->
<svg version="1.1" id="Layer_1" xmlns="http://www.w3.org/2000/svg" xmlns:xlink="http://www.w3.org/1999/xlink" x="0px" y="0px"
	 width="612px" height="792px" viewBox="0 0 612 792" style="enable-background:new 0 0 612 792;" xml:space="preserve">
<style type="text/css">
	.st0{fill:none;stroke:#000000;stroke-width:1.1339;stroke-linecap:round;stroke-linejoin:round;stroke-miterlimit:10;}
</style>
<g>
	<g id="LINE">
		<line class="st0" x1="-256" y1="525.6" x2="-256" y2="486"/>
	</g>
	<g id="LINE_1_">
		<line class="st0" x1="-256" y1="525.6" x2="-252" y2="525.6"/>
	</g>
	<g id="LINE_2_">
		<line class="st0" x1="-252" y1="534.6" x2="-252" y2="525.6"/>
	</g>
	<g id="LINE_3_">
		<line class="st0" x1="-252" y1="534.6" x2="-216" y2="534.6"/>
	</g>
	<g id="LINE_4_">
		<line class="st0" x1="-216" y1="534.6" x2="-216" y2="525.6"/>
	</g>
	<g id="LINE_5_">
		<line class="st0" x1="-216" y1="525.6" x2="-162" y2="525.6"/>
	</g>
	<g id="LINE_6_">
		<line class="st0" x1="-162" y1="534.6" x2="-162" y2="525.6"/>
	</g>
	<g id="LINE_7_">
		<line class="st0" x1="-162" y1="534.6" x2="-126" y2="534.6"/>
	</g>
	<g id="LINE_8_">
		<line class="st0" x1="-126" y1="534.6" x2="-126" y2="525.6"/>
	</g>
	<g id="LINE_9_">
		<line class="st0" x1="-126" y1="525.6" x2="-72" y2="525.6"/>
	</g>
	<g id="LINE_10_">
		<line class="st0" x1="-72" y1="534.6" x2="-72" y2="525.6"/>
	</g>
	<g id="LINE_11_">
		<line class="st0" x1="-72" y1="534.6" x2="-36" y2="534.6"/>
	</g>
	<g id="LINE_12_">
		<line class="st0" x1="-36" y1="534.6" x2="-36" y2="525.6"/>
	</g>
	<g id="LINE_13_">
		<line class="st0" x1="-36" y1="525.6" x2="18" y2="525.6"/>
	</g>
	<g id="LINE_14_">
		<line class="st0" x1="18" y1="534.6" x2="18" y2="525.6"/>
	</g>
	<g id="LINE_15_">
		<line class="st0" x1="18" y1="534.6" x2="54" y2="534.6"/>
	</g>
	<g id="LINE_16_">
		<line class="st0" x1="54" y1="534.6" x2="54" y2="525.6"/>
	</g>
	<g id="LINE_17_">
		<line class="st0" x1="54" y1="525.6" x2="108" y2="525.6"/>
	</g>
	<g id="LINE_18_">
		<line class="st0" x1="108" y1="534.6" x2="108" y2="525.6"/>
	</g>
	<g id="LINE_19_">
		<line class="st0" x1="108" y1="534.6" x2="144" y2="534.6"/>
	</g>
	<g id="LINE_20_">
		<line class="st0" x1="144" y1="534.6" x2="144" y2="525.6"/>
	</g>
	<g id="LINE_21_">
		<line class="st0" x1="144" y1="525.6" x2="198" y2="525.6"/>
	</g>
	<g id="LINE_22_">
		<line class="st0" x1="198" y1="534.6" x2="198" y2="525.6"/>
	</g>
	<g id="LINE_23_">
		<line class="st0" x1="198" y1="534.6" x2="234" y2="534.6"/>
	</g>
	<g id="LINE_24_">
		<line class="st0" x1="234" y1="534.6" x2="234" y2="525.6"/>
	</g>
	<g id="LINE_25_">
		<line class="st0" x1="234" y1="525.6" x2="288" y2="525.6"/>
	</g>
	<g id="LINE_26_">
		<line class="st0" x1="288" y1="534.6" x2="288" y2="525.6"/>
	</g>
	<g id="LINE_27_">
		<line class="st0" x1="288" y1="534.6" x2="324" y2="534.6"/>
	</g>
	<g id="LINE_28_">
		<line class="st0" x1="324" y1="534.6" x2="324" y2="525.6"/>
	</g>
	<g id="LINE_29_">
		<line class="st0" x1="324" y1="525.6" x2="378" y2="525.6"/>
	</g>
	<g id="LINE_30_">
		<line class="st0" x1="378" y1="534.6" x2="378" y2="525.6"/>
	</g>
	<g id="LINE_31_">
		<line class="st0" x1="378" y1="534.6" x2="414" y2="534.6"/>
	</g>
	<g id="LINE_32_">
		<line class="st0" x1="414" y1="534.6" x2="414" y2="525.6"/>
	</g>
	<g id="LINE_33_">
		<line class="st0" x1="414" y1="525.6" x2="468" y2="525.6"/>
	</g>
	<g id="LINE_34_">
		<line class="st0" x1="468" y1="534.6" x2="468" y2="525.6"/>
	</g>
	<g id="LINE_35_">
		<line class="st0" x1="468" y1="534.6" x2="504" y2="534.6"/>
	</g>
	<g id="LINE_36_">
		<line class="st0" x1="504" y1="534.6" x2="504" y2="525.6"/>
	</g>
	<g id="LINE_37_">
		<line class="st0" x1="504" y1="525.6" x2="558" y2="525.6"/>
	</g>
	<g id="LINE_38_">
		<line class="st0" x1="558" y1="534.6" x2="558" y2="525.6"/>
	</g>
	<g id="LINE_39_">
		<line class="st0" x1="558" y1="534.6" x2="594" y2="534.6"/>
	</g>
	<g id="LINE_40_">
		<line class="st0" x1="594" y1="534.6" x2="594" y2="525.6"/>
	</g>
	<g id="LINE_41_">
		<line class="st0" x1="594" y1="525.6" x2="648" y2="525.6"/>
	</g>
	<g id="LINE_42_">
		<line class="st0" x1="648" y1="534.6" x2="648" y2="525.6"/>
	</g>
	<g id="LINE_43_">
		<line class="st0" x1="648" y1="534.6" x2="684" y2="534.6"/>
	</g>
	<g id="LINE_44_">
		<line class="st0" x1="684" y1="534.6" x2="684" y2="525.6"/>
	</g>
	<g id="LINE_45_">
		<line class="st0" x1="684" y1="525.6" x2="738" y2="525.6"/>
	</g>
	<g id="LINE_46_">
		<line class="st0" x1="738" y1="534.6" x2="738" y2="525.6"/>
	</g>
	<g id="LINE_47_">
		<line class="st0" x1="738" y1="534.6" x2="774" y2="534.6"/>
	</g>
	<g id="LINE_48_">
		<line class="st0" x1="774" y1="534.6" x2="774" y2="525.6"/>
	</g>
	<g id="LINE_49_">
		<line class="st0" x1="774" y1="525.6" x2="828" y2="525.6"/>
	</g>
	<g id="LINE_50_">
		<line class="st0" x1="828" y1="534.6" x2="828" y2="525.6"/>
	</g>
	<g id="LINE_51_">
		<line class="st0" x1="828" y1="534.6" x2="864" y2="534.6"/>
	</g>
	<g id="LINE_52_">
		<line class="st0" x1="864" y1="534.6" x2="864" y2="525.6"/>
	</g>
	<g id="LINE_53_">
		<line class="st0" x1="864" y1="525.6" x2="868" y2="525.6"/>
	</g>
	<g id="LINE_54_">
		<line class="st0" x1="868" y1="486" x2="868" y2="525.6"/>
	</g>
	<g id="LINE_55_">
		<line class="st0" x1="877" y1="486" x2="868" y2="486"/>
	</g>
	<g id="LINE_56_">
		<line class="st0" x1="877" y1="450" x2="877" y2="486"/>
	</g>
	<g id="LINE_57_">
		<line class="st0" x1="877" y1="450" x2="868" y2="450"/>
	</g>
	<g id="LINE_58_">
		<line class="st0" x1="868" y1="414" x2="868" y2="450"/>
	</g>
	<g id="LINE_59_">
		<line class="st0" x1="877" y1="414" x2="868" y2="414"/>
	</g>
	<g id="LINE_60_">
		<line class="st0" x1="877" y1="378" x2="877" y2="414"/>
	</g>
	<g id="LINE_61_">
		<line class="st0" x1="877" y1="378" x2="868" y2="378"/>
	</g>
	<g id="LINE_62_">
		<line class="st0" x1="868" y1="342" x2="868" y2="378"/>
	</g>
	<g id="LINE_63_">
		<line class="st0" x1="877" y1="342" x2="868" y2="342"/>
	</g>
	<g id="LINE_64_">
		<line class="st0" x1="877" y1="306" x2="877" y2="342"/>
	</g>
	<g id="LINE_65_">
		<line class="st0" x1="877" y1="306" x2="868" y2="306"/>
	</g>
	<g id="LINE_66_">
		<line class="st0" x1="868" y1="266.4" x2="868" y2="306"/>
	</g>
	<g id="LINE_67_">
		<line class="st0" x1="823.5" y1="266.4" x2="868" y2="266.4"/>
	</g>
	<g id="LINE_68_">
		<line class="st0" x1="823.5" y1="257.4" x2="823.5" y2="266.4"/>
	</g>
	<g id="LINE_69_">
		<line class="st0" x1="787.5" y1="257.4" x2="823.5" y2="257.4"/>
	</g>
	<g id="LINE_70_">
		<line class="st0" x1="787.5" y1="257.4" x2="787.5" y2="266.4"/>
	</g>
	<g id="LINE_71_">
		<line class="st0" x1="743" y1="266.4" x2="787.5" y2="266.4"/>
	</g>
	<g id="LINE_72_">
		<line class="st0" x1="743" y1="327.6" x2="743" y2="266.4"/>
	</g>
	<g id="LINE_73_">
		<line class="st0" x1="743" y1="327.6" x2="761" y2="327.6"/>
	</g>
	<g id="LINE_74_">
		<line class="st0" x1="761" y1="336.6" x2="761" y2="327.6"/>
	</g>
	<g id="LINE_75_">
		<line class="st0" x1="731.5" y1="336.6" x2="761" y2="336.6"/>
	</g>
	<g id="LINE_76_">
		<line class="st0" x1="731.5" y1="327.6" x2="731.5" y2="336.6"/>
	</g>
	<g id="LINE_77_">
		<line class="st0" x1="695.5" y1="327.6" x2="731.5" y2="327.6"/>
	</g>
	<g id="LINE_78_">
		<line class="st0" x1="695.5" y1="327.6" x2="695.5" y2="336.6"/>
	</g>
	<g id="LINE_79_">
		<line class="st0" x1="666" y1="336.6" x2="695.5" y2="336.6"/>
	</g>
	<g id="LINE_80_">
		<line class="st0" x1="666" y1="327.6" x2="666" y2="336.6"/>
	</g>
	<g id="LINE_81_">
		<line class="st0" x1="630" y1="327.6" x2="666" y2="327.6"/>
	</g>
	<g id="LINE_82_">
		<line class="st0" x1="630" y1="327.6" x2="630" y2="336.6"/>
	</g>
	<g id="LINE_83_">
		<line class="st0" x1="600.5" y1="336.6" x2="630" y2="336.6"/>
	</g>
	<g id="LINE_84_">
		<line class="st0" x1="600.5" y1="336.6" x2="600.5" y2="327.6"/>
	</g>
	<g id="LINE_85_">
		<line class="st0" x1="600.5" y1="327.6" x2="618.5" y2="327.6"/>
	</g>
	<g id="LINE_86_">
		<line class="st0" x1="618.5" y1="327.6" x2="618.5" y2="266.4"/>
	</g>
	<g id="LINE_87_">
		<line class="st0" x1="573.8" y1="266.4" x2="618.5" y2="266.4"/>
	</g>
	<g id="LINE_88_">
		<line class="st0" x1="573.8" y1="257.4" x2="573.8" y2="266.4"/>
	</g>
	<g id="LINE_89_">
		<line class="st0" x1="537.8" y1="257.4" x2="573.8" y2="257.4"/>
	</g>
	<g id="LINE_90_">
		<line class="st0" x1="537.8" y1="257.4" x2="537.8" y2="266.4"/>
	</g>
	<g id="LINE_91_">
		<line class="st0" x1="493.2" y1="266.4" x2="537.8" y2="266.4"/>
	</g>
	<g id="LINE_92_">
		<line class="st0" x1="493.2" y1="327.6" x2="493.2" y2="266.4"/>
	</g>
	<g id="LINE_93_">
		<line class="st0" x1="493.2" y1="327.6" x2="511.2" y2="327.6"/>
	</g>
	<g id="LINE_94_">
		<line class="st0" x1="511.2" y1="336.6" x2="511.2" y2="327.6"/>
	</g>
	<g id="LINE_95_">
		<line class="st0" x1="481.7" y1="336.6" x2="511.2" y2="336.6"/>
	</g>
	<g id="LINE_96_">
		<line class="st0" x1="481.7" y1="327.6" x2="481.7" y2="336.6"/>
	</g>
	<g id="LINE_97_">
		<line class="st0" x1="445.7" y1="327.6" x2="481.7" y2="327.6"/>
	</g>
	<g id="LINE_98_">
		<line class="st0" x1="445.7" y1="327.6" x2="445.7" y2="336.6"/>
	</g>
	<g id="LINE_99_">
		<line class="st0" x1="416.2" y1="336.6" x2="445.7" y2="336.6"/>
	</g>
	<g id="LINE_100_">
		<line class="st0" x1="416.2" y1="327.6" x2="416.2" y2="336.6"/>
	</g>
	<g id="LINE_101_">
		<line class="st0" x1="380.2" y1="327.6" x2="416.2" y2="327.6"/>
	</g>
	<g id="LINE_102_">
		<line class="st0" x1="380.2" y1="327.6" x2="380.2" y2="336.6"/>
	</g>
	<g id="LINE_103_">
		<line class="st0" x1="350.6" y1="336.6" x2="380.2" y2="336.6"/>
	</g>
	<g id="LINE_104_">
		<line class="st0" x1="350.6" y1="336.6" x2="350.6" y2="327.6"/>
	</g>
	<g id="LINE_105_">
		<line class="st0" x1="350.6" y1="327.6" x2="368.6" y2="327.6"/>
	</g>
	<g id="LINE_106_">
		<line class="st0" x1="368.6" y1="327.6" x2="368.6" y2="266.4"/>
	</g>
	<g id="LINE_107_">
		<line class="st0" x1="324" y1="266.4" x2="368.6" y2="266.4"/>
	</g>
	<g id="LINE_108_">
		<line class="st0" x1="324" y1="257.4" x2="324" y2="266.4"/>
	</g>
	<g id="LINE_109_">
		<line class="st0" x1="288" y1="257.4" x2="324" y2="257.4"/>
	</g>
	<g id="LINE_110_">
		<line class="st0" x1="288" y1="257.4" x2="288" y2="266.4"/>
	</g>
	<g id="LINE_111_">
		<line class="st0" x1="243.4" y1="266.4" x2="288" y2="266.4"/>
	</g>
	<g id="LINE_112_">
		<line class="st0" x1="243.4" y1="327.6" x2="243.4" y2="266.4"/>
	</g>
	<g id="LINE_113_">
		<line class="st0" x1="243.4" y1="327.6" x2="261.4" y2="327.6"/>
	</g>
	<g id="LINE_114_">
		<line class="st0" x1="261.4" y1="336.6" x2="261.4" y2="327.6"/>
	</g>
	<g id="LINE_115_">
		<line class="st0" x1="231.8" y1="336.6" x2="261.4" y2="336.6"/>
	</g>
	<g id="LINE_116_">
		<line class="st0" x1="231.8" y1="327.6" x2="231.8" y2="336.6"/>
	</g>
	<g id="LINE_117_">
		<line class="st0" x1="195.8" y1="327.6" x2="231.8" y2="327.6"/>
	</g>
	<g id="LINE_118_">
		<line class="st0" x1="195.8" y1="327.6" x2="195.8" y2="336.6"/>
	</g>
	<g id="LINE_119_">
		<line class="st0" x1="166.3" y1="336.6" x2="195.8" y2="336.6"/>
	</g>
	<g id="LINE_120_">
		<line class="st0" x1="166.3" y1="327.6" x2="166.3" y2="336.6"/>
	</g>
	<g id="LINE_121_">
		<line class="st0" x1="130.3" y1="327.6" x2="166.3" y2="327.6"/>
	</g>
	<g id="LINE_122_">
		<line class="st0" x1="130.3" y1="327.6" x2="130.3" y2="336.6"/>
	</g>
	<g id="LINE_123_">
		<line class="st0" x1="100.8" y1="336.6" x2="130.3" y2="336.6"/>
	</g>
	<g id="LINE_124_">
		<line class="st0" x1="100.8" y1="336.6" x2="100.8" y2="327.6"/>
	</g>
	<g id="LINE_125_">
		<line class="st0" x1="100.8" y1="327.6" x2="118.8" y2="327.6"/>
	</g>
	<g id="LINE_126_">
		<line class="st0" x1="118.8" y1="327.6" x2="118.8" y2="266.4"/>
	</g>
	<g id="LINE_127_">
		<line class="st0" x1="74.2" y1="266.4" x2="118.8" y2="266.4"/>
	</g>
	<g id="LINE_128_">
		<line class="st0" x1="74.2" y1="257.4" x2="74.2" y2="266.4"/>
	</g>
	<g id="LINE_129_">
		<line class="st0" x1="38.2" y1="257.4" x2="74.2" y2="257.4"/>
	</g>
	<g id="LINE_130_">
		<line class="st0" x1="38.2" y1="257.4" x2="38.2" y2="266.4"/>
	</g>
	<g id="LINE_131_">
		<line class="st0" x1="-6.5" y1="266.4" x2="38.2" y2="266.4"/>
	</g>
	<g id="LINE_132_">
		<line class="st0" x1="-6.5" y1="327.6" x2="-6.5" y2="266.4"/>
	</g>
	<g id="LINE_133_">
		<line class="st0" x1="-6.5" y1="327.6" x2="11.5" y2="327.6"/>
	</g>
	<g id="LINE_134_">
		<line class="st0" x1="11.5" y1="336.6" x2="11.5" y2="327.6"/>
	</g>
	<g id="LINE_135_">
		<line class="st0" x1="-18" y1="336.6" x2="11.5" y2="336.6"/>
	</g>
	<g id="LINE_136_">
		<line class="st0" x1="-18" y1="327.6" x2="-18" y2="336.6"/>
	</g>
	<g id="LINE_137_">
		<line class="st0" x1="-54" y1="327.6" x2="-18" y2="327.6"/>
	</g>
	<g id="LINE_138_">
		<line class="st0" x1="-54" y1="327.6" x2="-54" y2="336.6"/>
	</g>
	<g id="LINE_139_">
		<line class="st0" x1="-83.5" y1="336.6" x2="-54" y2="336.6"/>
	</g>
	<g id="LINE_140_">
		<line class="st0" x1="-83.5" y1="327.6" x2="-83.5" y2="336.6"/>
	</g>
	<g id="LINE_141_">
		<line class="st0" x1="-119.5" y1="327.6" x2="-83.5" y2="327.6"/>
	</g>
	<g id="LINE_142_">
		<line class="st0" x1="-119.5" y1="327.6" x2="-119.5" y2="336.6"/>
	</g>
	<g id="LINE_143_">
		<line class="st0" x1="-149" y1="336.6" x2="-119.5" y2="336.6"/>
	</g>
	<g id="LINE_144_">
		<line class="st0" x1="-149" y1="336.6" x2="-149" y2="327.6"/>
	</g>
	<g id="LINE_145_">
		<line class="st0" x1="-149" y1="327.6" x2="-131" y2="327.6"/>
	</g>
	<g id="LINE_146_">
		<line class="st0" x1="-131" y1="327.6" x2="-131" y2="266.4"/>
	</g>
	<g id="LINE_147_">
		<line class="st0" x1="-175.5" y1="266.4" x2="-131" y2="266.4"/>
	</g>
	<g id="LINE_148_">
		<line class="st0" x1="-175.5" y1="257.4" x2="-175.5" y2="266.4"/>
	</g>
	<g id="LINE_149_">
		<line class="st0" x1="-211.5" y1="257.4" x2="-175.5" y2="257.4"/>
	</g>
	<g id="LINE_150_">
		<line class="st0" x1="-211.5" y1="257.4" x2="-211.5" y2="266.4"/>
	</g>
	<g id="LINE_151_">
		<line class="st0" x1="-256" y1="266.4" x2="-211.5" y2="266.4"/>
	</g>
	<g id="LINE_152_">
		<line class="st0" x1="-256" y1="306" x2="-256" y2="266.4"/>
	</g>
	<g id="LINE_153_">
		<line class="st0" x1="-265" y1="306" x2="-256" y2="306"/>
	</g>
	<g id="LINE_154_">
		<line class="st0" x1="-265" y1="306" x2="-265" y2="342"/>
	</g>
	<g id="LINE_155_">
		<line class="st0" x1="-265" y1="342" x2="-256" y2="342"/>
	</g>
	<g id="LINE_156_">
		<line class="st0" x1="-256" y1="378" x2="-256" y2="342"/>
	</g>
	<g id="LINE_157_">
		<line class="st0" x1="-265" y1="378" x2="-256" y2="378"/>
	</g>
	<g id="LINE_158_">
		<line class="st0" x1="-265" y1="378" x2="-265" y2="414"/>
	</g>
	<g id="LINE_159_">
		<line class="st0" x1="-265" y1="414" x2="-256" y2="414"/>
	</g>
	<g id="LINE_160_">
		<line class="st0" x1="-256" y1="450" x2="-256" y2="414"/>
	</g>
	<g id="LINE_161_">
		<line class="st0" x1="-265" y1="450" x2="-256" y2="450"/>
	</g>
	<g id="LINE_162_">
		<line class="st0" x1="-265" y1="450" x2="-265" y2="486"/>
	</g>
	<g id="LINE_163_">
		<line class="st0" x1="-265" y1="486" x2="-256" y2="486"/>
	</g>
</g>
</svg>
